<svg width="25" height="24" viewBox="0 0 25 24" fill="none" xmlns="http://www.w3.org/2000/svg">
<g opacity="0.4">
<path d="M17.0024 22.5962C17.0091 23.2586 16.4739 23.7992 15.8114 23.7992H8.64448C7.98972 23.7992 7.4577 23.2708 7.45333 22.6161L7.4375 20.2495C7.4375 18.9392 8.49765 17.8672 9.81985 17.8672H14.5965C15.9068 17.8672 16.9669 18.9273 16.9789 20.2376L17.0024 22.5962Z" fill="white"/>
<path d="M19.9692 9.52816V12.113C19.9692 12.7444 20.2194 13.3519 20.672 13.8045L21.6488 14.7813C22.1014 15.2339 22.3516 15.8414 22.3516 16.4727V17.8664C22.3516 20.6074 21.2689 22.6235 18.9039 23.4246C18.5452 23.5462 18.193 23.2628 18.1917 22.884L18.1824 20.2249C18.1586 18.2714 16.5505 16.6752 14.6089 16.6752H9.8323C7.85494 16.6752 6.25877 18.2833 6.25877 20.2488V22.8981C6.25877 23.2763 5.90891 23.5607 5.5499 23.442C3.15694 22.6501 2.10156 20.6216 2.10156 17.8664V5.95463C2.10156 3.08861 3.23531 0.991927 5.84809 0.280473C6.20611 0.182975 6.53977 0.470716 6.53444 0.84172L6.497 3.45316C6.48509 4.01301 6.68759 4.54904 7.06877 4.95404C7.46186 5.35904 7.97406 5.58535 8.58156 5.59728C9.19403 5.59728 9.73942 5.34384 10.1116 4.93134C10.2453 4.78318 10.5013 4.77721 10.6423 4.91831C11.0235 5.32331 11.5476 5.56153 12.1551 5.57344C12.7677 5.57344 13.3266 5.30418 13.7079 4.87074C13.8332 4.72831 14.0898 4.71695 14.2158 4.85875C14.597 5.26374 15.1211 5.50198 15.7286 5.5139C16.8721 5.5139 17.7894 4.6205 17.8132 3.46506L17.8605 0.816657C17.8669 0.454182 18.1951 0.179056 18.5454 0.272182C21.1707 0.969938 22.3516 3.08054 22.3516 5.95463V7.14581C22.3516 7.80095 21.8155 8.33698 21.1604 8.33698C20.5052 8.33698 19.9692 8.87301 19.9692 9.52816Z" fill="white"/>
<path d="M8.92446 0.00391891C9.25882 0.00176288 9.52944 0.275233 9.5238 0.609561L9.47453 3.52587C9.46262 4.01425 9.06953 4.40734 8.58115 4.40734H8.56925C8.06895 4.39543 7.67585 3.99043 7.68776 3.49013V0.603652C7.68776 0.276222 7.95209 0.0101964 8.27952 0.00807608L8.92446 0.00391891Z" fill="white"/>
<path d="M12.5064 0C12.8393 0 13.1076 0.272851 13.102 0.605678L13.0527 3.51397C13.0407 3.99044 12.6477 4.38353 12.1593 4.38353H12.1474C11.6471 4.37162 11.254 3.96662 11.2659 3.47824V0.595588C11.2659 0.266657 11.5325 0 11.8615 0H12.5064Z" fill="white"/>
<path d="M16.0803 0.00798039C16.4118 0.010065 16.6778 0.282439 16.672 0.613896L16.623 3.44237C16.6111 3.93075 16.218 4.32384 15.7296 4.32384H15.7177C15.2174 4.31193 14.8243 3.90693 14.8362 3.41854V0.599495C14.8362 0.269098 15.1052 0.0018338 15.4355 0.00391836L16.0803 0.00798039Z" fill="white"/>
</g>
</svg>
