<svg width="24" height="25" viewBox="0 0 24 25" fill="none" xmlns="http://www.w3.org/2000/svg">
<g opacity="0.4" clip-path="url(#clip0_1773_14793)">
<path d="M23.1 13.4C23.604 13.4 24 12.992 24 12.5C24 11.996 23.604 11.6 23.1 11.6H21.6V8.96H23.1C23.604 8.96 24 8.564 24 8.06C24 7.568 23.604 7.16 23.1 7.16H21.324C20.748 5.252 19.248 3.752 17.34 3.176V1.4C17.34 0.908 16.932 0.5 16.44 0.5C15.948 0.5 15.54 0.908 15.54 1.4V2.9H12.9V1.4C12.9 0.908 12.492 0.5 12 0.5C11.508 0.5 11.1 0.908 11.1 1.4V2.9H8.472V1.4C8.472 0.908 8.064 0.5 7.572 0.5C7.068 0.5 6.672 0.908 6.672 1.4V3.176C4.752 3.752 3.252 5.252 2.676 7.16H0.9C0.408 7.16 0 7.568 0 8.06C0 8.564 0.408 8.96 0.9 8.96H2.4V11.6H0.9C0.408 11.6 0 11.996 0 12.5C0 12.992 0.408 13.4 0.9 13.4H2.4V16.04H0.9C0.408 16.04 0 16.436 0 16.94C0 17.432 0.408 17.84 0.9 17.84H2.676C3.24 19.748 4.752 21.248 6.672 21.824V23.6C6.672 24.092 7.068 24.5 7.572 24.5C8.064 24.5 8.472 24.092 8.472 23.6V22.1H11.112V23.6C11.112 24.092 11.508 24.5 12.012 24.5C12.504 24.5 12.912 24.092 12.912 23.6V22.1H15.54V23.6C15.54 24.092 15.948 24.5 16.44 24.5C16.932 24.5 17.34 24.092 17.34 23.6V21.824C19.248 21.248 20.748 19.748 21.324 17.84H23.1C23.604 17.84 24 17.432 24 16.94C24 16.436 23.604 16.04 23.1 16.04H21.6V13.4H23.1ZM18.312 15.212C18.312 17.192 16.692 18.812 14.712 18.812H9.288C7.308 18.812 5.688 17.192 5.688 15.212V9.788C5.688 7.808 7.308 6.188 9.288 6.188H14.712C16.692 6.188 18.312 7.808 18.312 9.788V15.212Z" fill="white"/>
<path d="M9.62244 17.5987H14.3864C15.8864 17.5987 17.1104 16.3867 17.1104 14.8747V10.1107C17.1104 8.61072 15.8984 7.38672 14.3864 7.38672H9.62244C8.12244 7.38672 6.89844 8.59872 6.89844 10.1107V14.8747C6.89844 16.3867 8.11044 17.5987 9.62244 17.5987Z" fill="white"/>
</g>
<defs>
<clipPath id="clip0_1773_14793">
<rect width="24" height="24" fill="white" transform="translate(0 0.5)"/>
</clipPath>
</defs>
</svg>
