<svg width="100" height="100" viewBox="0 0 100 100" fill="none" xmlns="http://www.w3.org/2000/svg">
<path opacity="0.4" d="M58.6135 7.00649C57.9541 7.03924 57.3074 7.20197 56.7117 7.48515L30.7657 19.8216C29.4054 20.4683 28.4168 21.6908 28.0813 23.1437L21.6792 50.8545C21.3808 52.1446 21.624 53.4982 22.3524 54.6087C22.4395 54.7429 22.534 54.8729 22.6349 54.9986L40.5934 77.218C41.5353 78.3824 42.9625 79.0608 44.4724 79.0608L73.2727 79.0544C74.7817 79.0555 76.2099 78.3782 77.1518 77.2148L95.1039 54.9923C96.0458 53.8268 96.3994 52.3021 96.0628 50.8481L89.6512 23.1374C89.3146 21.6845 88.327 20.4619 86.9667 19.8152L61.0187 7.48515C60.27 7.12906 59.4428 6.96422 58.6124 7.00649H58.6135Z" fill="url(#paint0_linear_1939_35825)"/>
<path opacity="0.5" d="M42.2854 17.9479C41.6259 17.9806 40.9793 18.1434 40.3835 18.4266L14.4376 30.763C13.0773 31.4097 12.0887 32.6322 11.7531 34.0851L5.35107 61.7959C5.05268 63.086 5.29585 64.4396 6.0243 65.5501C6.11138 65.6843 6.20588 65.8143 6.30676 65.9401L24.2653 88.1594C25.2072 89.3238 26.6343 90.0022 28.1443 90.0022L56.9446 89.9958C58.4535 89.9969 59.8818 89.3196 60.8237 88.1562L78.7758 65.9337C79.7177 64.7682 80.0713 63.2435 79.7347 61.7895L73.3231 34.0788C72.9864 32.6259 71.9989 31.4033 70.6386 30.7567L44.6905 18.4266C43.9419 18.0705 43.1147 17.9056 42.2843 17.9479H42.2854Z" fill="url(#paint1_linear_1939_35825)"/>
<path opacity="0.8" d="M2.8658 66.5326C2.9603 66.6779 3.06287 66.8186 3.17236 66.9547M2.8658 66.5326C2.0752 65.3306 1.81128 63.8654 2.13513 62.4689M2.8658 66.5326L2.44805 66.8074C2.44782 66.807 2.4476 66.8067 2.44737 66.8064M2.8658 66.5326L2.44669 66.8053C2.44692 66.8057 2.44714 66.806 2.44737 66.8064M3.17236 66.9547L42.2066 15.0077C41.4957 15.0447 40.7987 15.2206 40.1564 15.5251L11.9968 28.8783M3.17236 66.9547L22.663 91.0053L3.17236 66.9547ZM2.13513 62.4689L9.08339 32.4743M2.13513 62.4689L1.64803 62.3561M2.13513 62.4689L1.64805 62.356M9.08339 32.4743C9.44757 30.9016 10.5205 29.5783 11.9968 28.8783M9.08339 32.4743L8.59628 32.3615L1.64805 62.356M9.08339 32.4743L8.59629 32.3614C8.99546 30.6377 10.1705 29.1909 11.7826 28.4265M11.9968 28.8783L11.7826 28.4266L11.7826 28.4265M11.9968 28.8783L11.7826 28.4265M58.13 93.4931C59.9167 93.4944 61.6102 92.6946 62.7285 91.317L62.7289 91.3166L82.2125 67.2626C83.331 65.8822 83.7522 64.0742 83.3518 62.349L76.3932 32.3544L76.3931 32.3543C75.9928 30.6311 74.8192 29.1841 73.2068 28.4197L73.2068 28.4196L45.0451 15.0734C45.0451 15.0734 45.045 15.0733 45.0449 15.0733C44.1577 14.6524 43.1776 14.4577 42.194 14.5077L42.194 14.5077C41.4133 14.5466 40.6477 14.7388 39.9422 15.0733L39.9421 15.0734L11.7826 28.4265M58.13 93.4931L58.1303 92.9931L58.1305 93.4931H58.13ZM58.13 93.4931L26.873 93.5C25.085 93.5 23.3928 92.699 22.2746 91.3203L22.2745 91.3201L2.7839 67.2695L2.78276 67.2681C2.66368 67.12 2.55138 66.9661 2.44737 66.8064M2.44737 66.8064C1.58256 65.4908 1.29324 63.8862 1.64803 62.3561M1.64803 62.3561C1.64804 62.356 1.64805 62.356 1.64805 62.356M1.64803 62.3561L1.64805 62.356" stroke="url(#paint2_linear_1939_35825)"/>
<path d="M42.5429 27.375C41.6849 27.375 40.9893 28.1442 40.9904 29.0921C40.9904 29.1069 40.9936 29.1206 40.9936 29.1354C40.9925 29.2643 40.9862 29.4196 40.9904 29.5316C41.0106 30.079 41.1306 30.4974 41.2028 31.0014C41.3334 32.0803 41.4428 32.9742 41.3748 33.8047C41.309 34.1186 41.0775 34.4049 40.8704 34.6036L40.8343 35.2576C39.902 35.3348 38.9643 35.4753 38.0267 35.6866C33.9947 36.5975 30.5224 38.6643 27.8794 41.4549C27.7073 41.3387 27.4079 41.1242 27.3187 41.0587C27.0415 41.0957 26.7612 41.1812 26.3959 40.9699C25.7015 40.5039 25.0675 39.8615 24.3019 39.088C23.9515 38.7182 23.6966 38.3653 23.2804 38.0081C23.1859 37.9267 23.0414 37.8179 22.9353 37.7344C22.6093 37.4756 22.2249 37.3414 21.8532 37.3287C21.3754 37.3128 20.9166 37.4977 20.6151 37.8739C20.0799 38.5417 20.2519 39.5614 20.9963 40.1521C21.0037 40.1584 21.0122 40.1626 21.0196 40.169C21.1216 40.2514 21.2469 40.357 21.3414 40.4268C21.7842 40.7522 22.1877 40.9181 22.6284 41.176C23.5575 41.7465 24.3274 42.2199 24.938 42.7905C25.1769 43.0431 25.2183 43.489 25.2502 43.6823L25.7482 44.1251C23.0839 48.115 21.85 53.0443 22.5795 58.0666L21.9297 58.2547C21.7587 58.4744 21.5155 58.821 21.2628 58.9246C20.4632 59.175 19.5649 59.2669 18.4786 59.38C17.9688 59.4223 17.5292 59.3969 16.9887 59.4983C16.8698 59.5205 16.7041 59.5638 16.5735 59.5945C16.5693 59.5945 16.565 59.5966 16.5608 59.5977C16.5534 59.5998 16.5449 59.6029 16.5374 59.604C15.6221 59.8238 15.0338 60.6617 15.2228 61.4859C15.4118 62.3111 16.3059 62.8131 17.2277 62.6155C17.234 62.6144 17.2436 62.6133 17.251 62.6123C17.2616 62.6102 17.2701 62.6049 17.2808 62.6028C17.4092 62.5743 17.5696 62.5436 17.6821 62.514C18.2131 62.3724 18.5985 62.1643 19.0753 61.9825C20.1032 61.6159 20.9538 61.3094 21.7831 61.19C22.1293 61.1626 22.4946 61.4024 22.6762 61.5039L23.3536 61.3887C24.9114 66.1943 28.1756 70.0786 32.3095 72.5163L32.0271 73.1905C32.129 73.4525 32.2405 73.8054 32.1651 74.0643C31.8635 74.842 31.3475 75.663 30.7592 76.5781C30.4746 77.0008 30.1837 77.3294 29.9267 77.8133C29.8651 77.9296 29.7865 78.1071 29.727 78.2296C29.3278 79.0792 29.6209 80.0587 30.3875 80.4254C31.1595 80.7952 32.1163 80.4053 32.5315 79.5536C32.5315 79.5526 32.5347 79.5515 32.5347 79.5505C32.5347 79.5505 32.5347 79.5483 32.5347 79.5473C32.5941 79.4268 32.6769 79.2683 32.7269 79.1542C32.9467 78.6523 33.0199 78.2222 33.175 77.7372C33.5859 76.7102 33.8121 75.6324 34.377 74.9614C34.532 74.7775 34.7848 74.7068 35.046 74.637L35.3975 74.003C39.0015 75.3798 43.0356 75.7486 47.0654 74.8388C47.985 74.6307 48.8717 74.3623 49.7297 74.04C49.8284 74.2144 50.0121 74.5504 50.061 74.6338C50.3275 74.7205 50.6174 74.7649 50.8542 75.1125C51.2779 75.8321 51.5667 76.6827 51.9193 77.7108C52.0743 78.1958 52.1508 78.6259 52.3706 79.1278C52.4205 79.2419 52.5044 79.4025 52.5628 79.524C52.9758 80.3778 53.9368 80.7698 54.7099 80.3989C55.4766 80.0312 55.7696 79.0528 55.3704 78.2032C55.3109 78.0807 55.2291 77.9031 55.1676 77.7869C54.9106 77.303 54.6196 76.9786 54.335 76.5548C53.7468 75.6398 53.2594 74.879 52.9578 74.1013C52.8314 73.6998 52.979 73.4504 53.0767 73.1905C53.0183 73.1239 52.8919 72.7445 52.8176 72.566C57.114 70.0416 60.2826 66.0126 61.7703 61.3591C61.971 61.3908 62.3204 61.4521 62.434 61.4743C62.6676 61.3211 62.8821 61.1214 63.3037 61.1541C64.133 61.2735 64.9836 61.5799 66.0115 61.9466C66.4893 62.1283 66.8737 62.3397 67.4047 62.4813C67.5172 62.5109 67.6776 62.5394 67.806 62.5669C67.8167 62.569 67.8252 62.5743 67.8358 62.5764C67.8432 62.5774 67.8528 62.5785 67.8591 62.5795C68.7798 62.7771 69.6739 62.2752 69.864 61.45C70.053 60.6247 69.4658 59.7879 68.5494 59.5681C68.4166 59.5374 68.2276 59.4867 68.0981 59.4624C67.5576 59.361 67.118 59.3853 66.6082 59.3441C65.523 59.231 64.6236 59.1391 63.824 58.8886C63.498 58.7629 63.2665 58.3772 63.154 58.2187L62.5264 58.037C62.8513 55.6965 62.7642 53.2598 62.2014 50.8221C61.6333 48.3623 60.6299 46.1116 59.2908 44.1293C59.4522 43.9835 59.7559 43.7162 59.842 43.6369C59.8674 43.3601 59.8451 43.0684 60.134 42.762C60.7445 42.1914 61.5144 41.718 62.4436 41.1474C62.8842 40.8896 63.292 40.7227 63.7348 40.3983C63.8346 40.3243 63.9716 40.2081 64.0767 40.1246C64.8222 39.5329 64.9931 38.5132 64.4579 37.8464C63.9228 37.1797 62.8864 37.1163 62.142 37.708C62.0358 37.7915 61.8924 37.9003 61.7969 37.9817C61.3796 38.3388 61.1226 38.6907 60.7711 39.0616C60.0055 39.8361 59.3726 40.4817 58.6771 40.9467C58.3755 41.121 57.9348 41.0608 57.7341 41.0492L57.1437 41.4686C53.7754 37.9542 49.1902 35.7067 44.2514 35.2703C44.2376 35.0643 44.2196 34.6923 44.2153 34.5803C44.0136 34.388 43.7693 34.2232 43.7078 33.8079C43.6398 32.9774 43.7534 32.0835 43.884 31.0046C43.9562 30.5006 44.0762 30.0821 44.0964 29.5348C44.1006 29.4101 44.0932 29.2305 44.0932 29.0952C44.0932 28.1474 43.3977 27.3782 42.5407 27.3782L42.5429 27.375ZM40.5986 39.3617L40.1377 47.4683L40.1048 47.4852C40.074 48.2101 39.474 48.7891 38.7371 48.7891C38.4355 48.7891 38.1573 48.693 37.9311 48.5282L37.9184 48.5345L31.2381 43.8229C33.2907 41.8142 35.9167 40.3296 38.9431 39.6459C39.4963 39.5212 40.0485 39.4283 40.5986 39.3617ZM44.4914 39.3617C48.0243 39.7939 51.2928 41.3862 53.7956 43.826L47.1589 48.5081L47.1355 48.4986C46.5462 48.9265 45.7168 48.8208 45.257 48.2471C45.0691 48.0125 44.9703 47.7367 44.9586 47.4578L44.9523 47.4546L44.4914 39.3617ZM28.8159 46.8512L34.9154 52.2803L34.909 52.3131C35.4591 52.7896 35.5408 53.6159 35.081 54.1887C34.8931 54.4232 34.6414 54.5807 34.3706 54.6546L34.3643 54.6811L26.5467 56.9264C26.1485 53.3053 27.0065 49.7866 28.817 46.8523L28.8159 46.8512ZM56.2294 46.8544C57.1352 48.3158 57.8223 49.9483 58.23 51.7182C58.6335 53.467 58.7355 55.2125 58.5688 56.899L50.7108 54.6472L50.7045 54.6145C50.0005 54.4232 49.5683 53.711 49.7318 52.9967C49.7987 52.7041 49.9548 52.4568 50.1661 52.274L50.1629 52.2571L56.2284 46.8555L56.2294 46.8544ZM41.293 52.6988H43.7916L45.3441 54.6303L44.7866 57.0406L42.5439 58.1141L40.2938 57.0374L39.7363 54.6272L41.293 52.6988ZM49.3039 59.3092C49.41 59.3039 49.5162 59.3134 49.6192 59.3324L49.632 59.3155L57.7193 60.6765C56.5353 63.9849 54.2713 66.8516 51.245 68.7694L48.1061 61.2239L48.1156 61.2112C47.8268 60.5444 48.1156 59.7625 48.7793 59.4444C48.9492 59.3631 49.1265 59.3176 49.3039 59.3092ZM35.7214 59.3419C36.3383 59.3504 36.8915 59.7773 37.036 60.4018C37.1029 60.6945 37.0699 60.984 36.9595 61.2408L36.9829 61.2703L33.8769 68.7398C30.9726 66.8854 28.6599 64.1096 27.4228 60.7029L35.44 59.3493L35.4527 59.3663C35.5419 59.3493 35.6332 59.3419 35.7214 59.343V59.3419ZM42.494 62.6144C42.7085 62.607 42.9273 62.6503 43.1343 62.7497C43.4062 62.8796 43.6164 63.0846 43.7481 63.3308H43.7778L47.7302 70.4368C47.2173 70.608 46.6895 70.7538 46.1501 70.8764C43.128 71.559 40.1143 71.3519 37.3864 70.4273L41.3281 63.335H41.3344C41.5712 62.8955 42.0194 62.6324 42.493 62.6155L42.494 62.6144Z" fill="white" stroke="white" stroke-width="0.25"/>
<defs>
<linearGradient id="paint0_linear_1939_35825" x1="102.49" y1="-0.810207" x2="32.1805" y2="74.5982" gradientUnits="userSpaceOnUse">
<stop stop-color="white"/>
<stop offset="1" stop-color="white" stop-opacity="0"/>
</linearGradient>
<linearGradient id="paint1_linear_1939_35825" x1="86.1616" y1="10.1312" x2="15.8523" y2="85.5396" gradientUnits="userSpaceOnUse">
<stop stop-color="white"/>
<stop offset="1" stop-color="white" stop-opacity="0"/>
</linearGradient>
<linearGradient id="paint2_linear_1939_35825" x1="79.4114" y1="20.1316" x2="6.28725" y2="92.6707" gradientUnits="userSpaceOnUse">
<stop stop-color="white"/>
<stop offset="1" stop-color="white" stop-opacity="0"/>
</linearGradient>
</defs>
</svg>
