<svg width="100" height="100" viewBox="0 0 100 100" fill="none" xmlns="http://www.w3.org/2000/svg">
<path opacity="0.8" d="M95.3536 88.3536C95.5488 88.1583 95.5488 87.8417 95.3536 87.6464L92.1716 84.4645C91.9763 84.2692 91.6597 84.2692 91.4645 84.4645C91.2692 84.6597 91.2692 84.9763 91.4645 85.1716L94.2929 88L91.4645 90.8284C91.2692 91.0237 91.2692 91.3403 91.4645 91.5355C91.6597 91.7308 91.9763 91.7308 92.1716 91.5355L95.3536 88.3536ZM5 88.5H95V87.5H5V88.5Z" fill="url(#paint0_linear_1773_14869)"/>
<circle cx="50.5" cy="49.5" r="34.5" fill="url(#paint1_linear_1773_14869)"/>
<path d="M53.3636 71H48.6154V66.0877C47.1795 65.924 45.6783 65.531 44.1119 64.9088C42.5455 64.2538 41.1748 63.4023 40 62.3544L43.1329 57.4912C44.373 58.4409 45.5478 59.1614 46.6573 59.6526C47.7995 60.1111 48.958 60.3404 50.1329 60.3404C52.7762 60.3404 54.0979 59.2105 54.0979 56.9509C54.0979 55.9357 53.6573 55.0842 52.7762 54.3965C51.9277 53.7088 50.8508 53.0702 49.5455 52.4807C48.2727 51.8585 46.9837 51.1708 45.6783 50.4175C44.4056 49.6316 43.3287 48.6655 42.4476 47.5193C41.5991 46.3731 41.1748 44.9158 41.1748 43.1474C41.1748 40.724 41.8275 38.7263 43.1329 37.1544C44.4709 35.5497 46.2984 34.5181 48.6154 34.0597V29H53.3636V33.9614C54.9301 34.1906 56.3007 34.6655 57.4755 35.386C58.6503 36.1064 59.711 36.9743 60.6573 37.9895L57.035 42.1158C56.1538 41.2971 55.3054 40.6912 54.4895 40.2982C53.6737 39.8725 52.7436 39.6597 51.6993 39.6597C49.2844 39.6597 48.0769 40.7076 48.0769 42.8035C48.0769 43.7205 48.5012 44.5064 49.3496 45.1614C50.2308 45.7836 51.3077 46.3895 52.5804 46.9789C53.8858 47.5357 55.1748 48.1906 56.4476 48.9439C57.7529 49.6971 58.8298 50.6795 59.6783 51.8912C60.5594 53.0702 61 54.593 61 56.4597C61 58.8175 60.3473 60.848 59.042 62.5509C57.7692 64.2211 55.8765 65.3345 53.3636 65.8912V71Z" fill="white"/>
<circle opacity="0.8" cx="50.5" cy="49.5" r="39" stroke="url(#paint2_linear_1773_14869)"/>
<defs>
<linearGradient id="paint0_linear_1773_14869" x1="95.5844" y1="88" x2="0.909093" y2="88" gradientUnits="userSpaceOnUse">
<stop stop-color="white"/>
<stop offset="1" stop-color="white" stop-opacity="0"/>
</linearGradient>
<linearGradient id="paint1_linear_1773_14869" x1="22" y1="19" x2="77.1334" y2="72.6364" gradientUnits="userSpaceOnUse">
<stop stop-color="white"/>
<stop offset="1" stop-color="white" stop-opacity="0"/>
</linearGradient>
<linearGradient id="paint2_linear_1773_14869" x1="82" y1="11" x2="33.6636" y2="89.9575" gradientUnits="userSpaceOnUse">
<stop stop-color="white"/>
<stop offset="0.956709" stop-color="white" stop-opacity="0"/>
</linearGradient>
</defs>
</svg>
