<svg width="100" height="101" viewBox="0 0 100 101" fill="none" xmlns="http://www.w3.org/2000/svg">
<path d="M55.965 82.5C54.5573 82.5 53.2012 82.015 52.0957 81.1047L20.7435 55.2667C19.3432 54.1177 18.5178 52.409 18.4809 50.5885L18.0019 29.645C17.9282 26.571 20.0507 23.9372 23.0356 23.3776L43.3917 19.6022C45.1679 19.274 46.9809 19.744 48.3812 20.9005L79.7334 46.7311C81.0084 47.7831 81.7971 49.2679 81.9666 50.9243C82.1361 52.5807 81.657 54.1997 80.6178 55.4905L60.7408 80.2094C59.7017 81.5002 58.235 82.2985 56.5989 82.4701C56.3851 82.4925 56.1714 82.5 55.9576 82.5H55.965ZM44.4972 23.9745C44.394 23.9745 44.2909 23.982 44.1877 24.0043L23.8316 27.7797C22.9914 27.9364 22.4018 28.675 22.4166 29.5405L22.8956 50.4841C22.9103 50.9989 23.1388 51.4764 23.5294 51.7972L54.8816 77.6353C55.2354 77.9263 55.6849 78.0681 56.1493 78.0158C56.6062 77.9711 57.0189 77.7398 57.3137 77.3816L77.1908 52.6627C77.4782 52.3046 77.6182 51.8495 77.5666 51.3794C77.5224 50.9168 77.294 50.499 76.9402 50.2005L45.588 24.3625C45.2785 24.1088 44.8952 23.967 44.4972 23.967V23.9745Z" fill="url(#paint0_linear_2745_27428)"/>
<path d="M36.2222 44.9556C38.9575 44.9556 41.1749 42.7108 41.1749 39.9416C41.1749 37.1725 38.9575 34.9277 36.2222 34.9277C33.4869 34.9277 31.2695 37.1725 31.2695 39.9416C31.2695 42.7108 33.4869 44.9556 36.2222 44.9556Z" fill="url(#paint1_linear_2745_27428)"/>
<defs>
<linearGradient id="paint0_linear_2745_27428" x1="75.9887" y1="68.6631" x2="32.3924" y2="24.3748" gradientUnits="userSpaceOnUse">
<stop stop-color="#E58300"/>
<stop offset="1" stop-color="#744400"/>
</linearGradient>
<linearGradient id="paint1_linear_2745_27428" x1="40.2445" y1="42.7531" x2="33.3049" y2="35.8982" gradientUnits="userSpaceOnUse">
<stop stop-color="#E58300"/>
<stop offset="1" stop-color="#744400"/>
</linearGradient>
</defs>
</svg>
