<svg width="100" height="101" viewBox="0 0 100 101" fill="none" xmlns="http://www.w3.org/2000/svg">
<path fill-rule="evenodd" clip-rule="evenodd" d="M87.4511 83.0894C87.8346 83.3631 88.2932 83.5 88.7444 83.5C89.1053 83.5 89.4586 83.4164 89.7895 83.2415C90.5338 82.846 91 82.0704 91 81.2188V23.1916C91 19.5036 88.0301 16.5 84.3835 16.5H14.6165C10.9699 16.5 8 19.5036 8 23.1916V69.0597C8 72.7477 10.9699 75.7514 14.6165 75.7514H77.0902L87.4511 83.0894ZM12.5113 23.1916C12.5113 22.0206 13.4586 21.0625 14.6165 21.0625H84.3835C85.5414 21.0625 86.4887 22.0206 86.4887 23.1916V76.8388L79.0902 71.5995C78.7143 71.3334 78.2632 71.1889 77.797 71.1889H14.6165C13.4586 71.1889 12.5113 70.2308 12.5113 69.0597V23.1916ZM38.0147 45.2437C38.0147 47.9964 35.8568 50.232 33.2027 50.232C30.541 50.232 28.3906 47.9964 28.3906 45.2437C28.3906 42.491 30.541 40.2554 33.2027 40.2554C35.8643 40.2554 38.0147 42.491 38.0147 45.2437ZM50.062 50.232C52.7162 50.232 54.8741 47.9964 54.8741 45.2437C54.8741 42.491 52.7237 40.2554 50.062 40.2554C47.4004 40.2554 45.25 42.491 45.25 45.2437C45.25 47.9964 47.4004 50.232 50.062 50.232ZM71.6983 45.2437C71.6983 47.9964 69.5404 50.232 66.8862 50.232C64.2246 50.232 62.0742 47.9964 62.0742 45.2437C62.0742 42.491 64.2246 40.2554 66.8862 40.2554C69.5479 40.2554 71.6983 42.491 71.6983 45.2437Z" fill="url(#paint0_linear_2745_27451)"/>
<defs>
<linearGradient id="paint0_linear_2745_27451" x1="83.2041" y1="68.7846" x2="37.8773" y2="12.6336" gradientUnits="userSpaceOnUse">
<stop stop-color="#F27272"/>
<stop offset="1" stop-color="#C14242"/>
</linearGradient>
</defs>
</svg>
