<svg width="100" height="101" viewBox="0 0 100 101" fill="none" xmlns="http://www.w3.org/2000/svg">
<path d="M58.9127 88.2812C57.8281 88.2812 56.8716 87.4898 56.6908 86.3788C56.4874 85.1385 57.3159 83.959 58.5436 83.7459C75.3097 80.9 87.4812 66.3506 87.4812 49.1455C87.4812 29.8022 71.9053 14.0581 52.7516 14.0581C38.7573 14.0581 26.1941 22.4742 20.7485 35.5017C20.2665 36.6659 18.9408 37.2062 17.7885 36.7192C16.6361 36.2246 16.1013 34.8929 16.5834 33.7287C22.7369 19.0119 36.9346 9.5 52.7516 9.5C74.3908 9.5 92.0004 27.291 92.0004 49.1531C92.0004 68.5954 78.2471 85.0395 59.2893 88.2584C59.1613 88.2812 59.0332 88.2888 58.9127 88.2888V88.2812Z" fill="url(#paint0_linear_2745_27422)"/>
<path d="M40.7981 91.5C37.1225 91.5 33.5072 90.389 29.7412 88.1062C20.2133 82.3229 13.4271 74.1047 9.56324 63.6797C8.08698 59.6999 7.66519 56.0473 8.26021 52.5089C9.02847 47.9813 11.5893 44.9146 15.6566 43.6286C18.6543 42.6851 21.7574 43.8493 23.3768 46.5202C24.8831 49.0162 26.1862 51.2914 27.3461 53.4753C29.0257 56.618 28.0089 60.4761 24.9811 62.4469C24.853 62.5306 24.7174 62.6143 24.5819 62.698C27.1051 66.6778 30.1178 70.2999 33.5674 73.4959C36.2111 70.3989 40.3688 70.0488 43.4794 72.6665C45.2193 74.1275 46.9592 75.5961 48.699 77.0724C51.6139 79.5455 52.2089 83.1143 50.2431 86.3864C48.2321 89.727 44.9708 91.5 40.7981 91.5ZM17.7203 47.8747C17.4868 47.8747 17.2458 47.9128 17.0048 47.9889C14.5644 48.7574 13.1936 50.4391 12.7116 53.2775C12.2521 55.9941 12.6061 58.8705 13.7886 62.0741C17.2834 71.5098 23.4295 78.9519 32.0611 84.1873C35.1039 86.0288 37.9585 86.9267 40.7905 86.9267C43.4041 86.9267 45.1741 85.9983 46.3717 84.0123C47.1851 82.6578 47.0044 81.5924 45.7917 80.5651C44.0594 79.0965 42.3271 77.6355 40.5872 76.1745C39.3444 75.1244 38.0263 75.2461 36.9719 76.4941C36.6706 76.8517 36.3693 77.217 36.053 77.5898L34.0721 79.964L32.3397 78.4878C27.203 74.1047 22.8797 68.9074 19.4903 63.0405L18.353 61.0772L20.2962 59.9206C20.5674 59.7608 20.8234 59.6086 21.0795 59.464C21.5766 59.1748 22.0587 58.9009 22.5181 58.5965C23.5425 57.9269 23.904 56.6561 23.3542 55.6288C22.2319 53.521 20.9665 51.3142 19.5053 48.8868C19.1062 48.2248 18.4434 47.8595 17.7052 47.8595L17.7203 47.8747Z" fill="url(#paint1_linear_2745_27422)"/>
<path d="M70.4512 57.1127H47.6445V29.9163C47.6445 28.6531 48.6538 27.6334 49.9041 27.6334C51.1544 27.6334 52.1637 28.6531 52.1637 29.9163V52.547H70.4512C71.7015 52.547 72.7107 53.5666 72.7107 54.8298C72.7107 56.093 71.7015 57.1127 70.4512 57.1127Z" fill="url(#paint2_linear_2745_27422)"/>
<defs>
<linearGradient id="paint0_linear_2745_27422" x1="84.9001" y1="70.9842" x2="30.4178" y2="18.711" gradientUnits="userSpaceOnUse">
<stop stop-color="#D76255"/>
<stop offset="0.0001" stop-color="#FF7465"/>
<stop offset="1" stop-color="#B03429"/>
</linearGradient>
<linearGradient id="paint1_linear_2745_27422" x1="47.3135" y1="80.9147" x2="14.1413" y2="51.0507" gradientUnits="userSpaceOnUse">
<stop stop-color="#D76255"/>
<stop offset="0.0001" stop-color="#FF7465"/>
<stop offset="1" stop-color="#B03429"/>
</linearGradient>
<linearGradient id="paint2_linear_2745_27422" x1="70.3564" y1="50.6381" x2="50.2194" y2="33.5156" gradientUnits="userSpaceOnUse">
<stop stop-color="#D76255"/>
<stop offset="0.0001" stop-color="#FF7465"/>
<stop offset="1" stop-color="#B03429"/>
</linearGradient>
</defs>
</svg>
