<svg width="100" height="100" viewBox="0 0 100 100" fill="none" xmlns="http://www.w3.org/2000/svg">
<path fill-rule="evenodd" clip-rule="evenodd" d="M31.7709 29.6754C30.523 29.6754 29.5156 28.6731 29.5156 27.4314V23.0857H16.8781C15.7129 23.0857 14.6154 23.5345 13.7884 24.3573C12.9766 25.1652 12.5105 26.2872 12.5105 27.4316V63.6876C12.5105 65.7297 13.3073 67.6521 14.7582 69.0957C16.2091 70.5394 18.141 71.3323 20.1933 71.3323H39.8815C41.1294 71.3323 42.1367 72.3346 42.1367 73.5763C42.1367 74.818 41.1294 75.8203 39.8815 75.8203H20.1933C16.9382 75.8203 13.8711 74.5562 11.5708 72.2673C9.27045 69.9784 8 66.9265 8 63.6876V27.4316C8 25.0679 8.92462 22.8538 10.601 21.1858C12.2774 19.5177 14.5101 18.5977 16.8781 18.5977H29.5156V14.244C29.5156 13.0023 30.523 12 31.7709 12C33.0188 12 34.0261 13.0023 34.0261 14.244V18.5977H56.0352V14.244C56.0352 13.0023 57.0425 12 58.2904 12C59.5383 12 60.5456 13.0023 60.5456 14.244V18.5977H69.8761C72.2517 18.5977 74.4768 19.5177 76.1532 21.1858C77.8296 22.8538 78.7543 25.0754 78.7543 27.4316V35.7495C78.7543 36.9912 77.7469 37.9935 76.499 37.9935C75.2511 37.9935 74.2438 36.9912 74.2438 35.7495V27.4316C74.2438 26.2872 73.7777 25.1652 72.9658 24.3573C72.1389 23.5345 71.0414 23.0857 69.8761 23.0857H60.5456V27.4314C60.5456 28.6731 59.5383 29.6754 58.2904 29.6754C57.0425 29.6754 56.0352 28.6731 56.0352 27.4314V23.0857H34.0261V27.4314C34.0261 28.6731 33.0188 29.6754 31.7709 29.6754ZM25.4623 42.8552H32.1904C33.4383 42.8552 34.4456 41.8529 34.4456 40.6112C34.4456 39.3695 33.4383 38.3672 32.1904 38.3672H25.4623C24.2144 38.3672 23.207 39.3695 23.207 40.6112C23.207 41.8529 24.2144 42.8552 25.4623 42.8552ZM49.4209 42.8552H42.6927C41.4448 42.8552 40.4375 41.8529 40.4375 40.6112C40.4375 39.3695 41.4448 38.3672 42.6927 38.3672H49.4209C50.6688 38.3672 51.6761 39.3695 51.6761 40.6112C51.6761 41.8529 50.6688 42.8552 49.4209 42.8552ZM25.4623 59.3338H32.1904C33.4383 59.3338 34.4456 58.3314 34.4456 57.0897C34.4456 55.848 33.4383 54.8457 32.1904 54.8457H25.4623C24.2144 54.8457 23.207 55.848 23.207 57.0897C23.207 58.3314 24.2144 59.3338 25.4623 59.3338ZM68.2149 89C55.097 89 44.4297 78.3858 44.4297 65.333C44.4297 52.2803 55.097 41.666 68.2149 41.666C81.3329 41.666 92.0001 52.2803 92.0001 65.333C92.0001 78.3858 81.3329 89 68.2149 89ZM68.2149 46.1541C57.5852 46.1541 48.9402 54.7562 48.9402 65.333C48.9402 75.9098 57.5852 84.5119 68.2149 84.5119C78.8446 84.5119 87.4897 75.9098 87.4897 65.333C87.4897 54.7562 78.8446 46.1541 68.2149 46.1541ZM58.4206 66.4776L65.8328 73.3443H65.8479L78.0637 62.0344C78.9733 61.1892 79.0259 59.7679 78.1765 58.8629C77.327 57.9578 75.8987 57.9054 74.9891 58.7507L65.8404 67.2181L61.4952 63.1938C60.5856 62.3486 59.1573 62.4009 58.3078 63.306C57.4584 64.2111 57.511 65.6323 58.4206 66.4776Z" fill="url(#paint0_linear_2745_27457)"/>
<defs>
<linearGradient id="paint0_linear_2745_27457" x1="84.1103" y1="72.0883" x2="31.0205" y2="14.172" gradientUnits="userSpaceOnUse">
<stop stop-color="#21C9F2"/>
<stop offset="1" stop-color="#0184A5"/>
</linearGradient>
</defs>
</svg>
