<svg width="416" height="265" viewBox="0 0 416 265" fill="none" xmlns="http://www.w3.org/2000/svg">
<g clip-path="url(#clip0_2745_27221)">
<line x1="90.1892" y1="75.0179" x2="210.189" y2="98.0179" stroke="url(#paint0_linear_2745_27221)" stroke-width="2" stroke-dasharray="8 8"/>
<line x1="325.289" y1="65.9576" x2="222.289" y2="96.9576" stroke="url(#paint1_linear_2745_27221)" stroke-width="2" stroke-dasharray="8 8"/>
<line x1="262.099" y1="202.432" x2="217.099" y2="108.432" stroke="url(#paint2_linear_2745_27221)" stroke-width="2" stroke-dasharray="8 8"/>
<g filter="url(#filter0_d_2745_27221)">
<circle cx="90.001" cy="76" r="56" fill="url(#paint3_linear_2745_27221)"/>
</g>
<g filter="url(#filter1_d_2745_27221)">
<circle cx="325.001" cy="65" r="56" fill="url(#paint4_linear_2745_27221)"/>
</g>
<g filter="url(#filter2_d_2745_27221)">
<circle cx="263.001" cy="202" r="56" fill="url(#paint5_linear_2745_27221)"/>
</g>
<circle cx="210.001" cy="99" r="39" fill="white" stroke="#005497" stroke-width="2"/>
<g clip-path="url(#clip1_2745_27221)">
<path opacity="0.9" d="M215.254 81H199.406C197.526 81 196.001 82.5459 196.001 84.4528V115.035C196.001 116.781 198.085 117.656 199.302 116.422L208.745 106.848H215.254C222.294 106.848 227.999 101.061 227.999 93.9248C228.001 86.7868 222.294 81 215.254 81Z" fill="#354E98"/>
<path d="M215.247 86.5605H209.437C209.094 86.5605 208.784 86.7722 208.656 87.0954L203.411 95.6073C203.187 96.1686 203.595 96.7828 204.192 96.7828C204.548 96.7828 205.838 96.7507 206.721 96.7507C207.605 96.7507 206.917 97.7107 206.84 97.9281L203.825 103.38C203.523 104.231 204.561 104.913 205.204 104.286L214.592 94.9629C215.139 94.4299 214.766 93.4926 214.007 93.4926H213.901C213.232 93.4926 212.829 92.7385 213.195 92.1697L215.953 87.8853C216.318 87.3165 215.918 86.5624 215.247 86.5624V86.5605Z" fill="#DFCE57"/>
</g>
<circle cx="89.7715" cy="62.7705" r="12.7705" stroke="white" stroke-width="4" stroke-linecap="round"/>
<path d="M113.919 101C113.919 101 113.762 100.599 113.681 100.401C109.625 90.4994 100.7 83.623 90.341 83.623C79.9821 83.623 71.0564 90.4994 67.001 100.401" stroke="white" stroke-width="4" stroke-linecap="round"/>
<path d="M83.001 85L87.1726 89.1716C88.7346 90.7337 91.2673 90.7337 92.8294 89.1716L97.001 85" stroke="white" stroke-width="4" stroke-linecap="round" stroke-linejoin="round"/>
<path d="M86.6676 89L85.001 103M93.3343 89L95.001 103" stroke="white" stroke-width="4" stroke-linecap="round" stroke-linejoin="round"/>
<circle cx="325.459" cy="52.7705" r="12.7705" stroke="white" stroke-width="4" stroke-linecap="round"/>
<path d="M348.919 91.0001C348.919 91.0001 348.762 90.5994 348.681 90.4009C344.625 80.4994 335.7 73.623 325.341 73.623C314.982 73.623 306.056 80.4994 302.001 90.4009" stroke="white" stroke-width="4" stroke-linecap="round"/>
<path d="M285.631 224V185C285.631 182.239 283.392 180 280.631 180H245.001C242.24 180 240.001 182.239 240.001 185V224" stroke="white" stroke-width="4" stroke-linecap="round"/>
<mask id="path-17-inside-1_2745_27221" fill="white">
<rect x="247.333" y="187.333" width="13.037" height="13.037" rx="2"/>
</mask>
<rect x="247.333" y="187.333" width="13.037" height="13.037" rx="2" stroke="white" stroke-width="8" stroke-linecap="round" mask="url(#path-17-inside-1_2745_27221)"/>
<mask id="path-18-inside-2_2745_27221" fill="white">
<rect x="265.259" y="187.333" width="13.037" height="13.037" rx="2"/>
</mask>
<rect x="265.259" y="187.333" width="13.037" height="13.037" rx="2" stroke="white" stroke-width="8" stroke-linecap="round" mask="url(#path-18-inside-2_2745_27221)"/>
<mask id="path-19-inside-3_2745_27221" fill="white">
<rect x="265.259" y="205.259" width="13.037" height="13.037" rx="2"/>
</mask>
<rect x="265.259" y="205.259" width="13.037" height="13.037" rx="2" stroke="white" stroke-width="8" stroke-linecap="round" mask="url(#path-19-inside-3_2745_27221)"/>
</g>
<defs>
<filter id="filter0_d_2745_27221" x="17.001" y="3" width="146" height="146" filterUnits="userSpaceOnUse" color-interpolation-filters="sRGB">
<feFlood flood-opacity="0" result="BackgroundImageFix"/>
<feColorMatrix in="SourceAlpha" type="matrix" values="0 0 0 0 0 0 0 0 0 0 0 0 0 0 0 0 0 0 127 0" result="hardAlpha"/>
<feOffset/>
<feGaussianBlur stdDeviation="8.5"/>
<feComposite in2="hardAlpha" operator="out"/>
<feColorMatrix type="matrix" values="0 0 0 0 0 0 0 0 0 0 0 0 0 0 0 0 0 0 0.25 0"/>
<feBlend mode="normal" in2="BackgroundImageFix" result="effect1_dropShadow_2745_27221"/>
<feBlend mode="normal" in="SourceGraphic" in2="effect1_dropShadow_2745_27221" result="shape"/>
</filter>
<filter id="filter1_d_2745_27221" x="252.001" y="-8" width="146" height="146" filterUnits="userSpaceOnUse" color-interpolation-filters="sRGB">
<feFlood flood-opacity="0" result="BackgroundImageFix"/>
<feColorMatrix in="SourceAlpha" type="matrix" values="0 0 0 0 0 0 0 0 0 0 0 0 0 0 0 0 0 0 127 0" result="hardAlpha"/>
<feOffset/>
<feGaussianBlur stdDeviation="8.5"/>
<feComposite in2="hardAlpha" operator="out"/>
<feColorMatrix type="matrix" values="0 0 0 0 0 0 0 0 0 0 0 0 0 0 0 0 0 0 0.25 0"/>
<feBlend mode="normal" in2="BackgroundImageFix" result="effect1_dropShadow_2745_27221"/>
<feBlend mode="normal" in="SourceGraphic" in2="effect1_dropShadow_2745_27221" result="shape"/>
</filter>
<filter id="filter2_d_2745_27221" x="190.001" y="129" width="146" height="146" filterUnits="userSpaceOnUse" color-interpolation-filters="sRGB">
<feFlood flood-opacity="0" result="BackgroundImageFix"/>
<feColorMatrix in="SourceAlpha" type="matrix" values="0 0 0 0 0 0 0 0 0 0 0 0 0 0 0 0 0 0 127 0" result="hardAlpha"/>
<feOffset/>
<feGaussianBlur stdDeviation="8.5"/>
<feComposite in2="hardAlpha" operator="out"/>
<feColorMatrix type="matrix" values="0 0 0 0 0 0 0 0 0 0 0 0 0 0 0 0 0 0 0.25 0"/>
<feBlend mode="normal" in2="BackgroundImageFix" result="effect1_dropShadow_2745_27221"/>
<feBlend mode="normal" in="SourceGraphic" in2="effect1_dropShadow_2745_27221" result="shape"/>
</filter>
<linearGradient id="paint0_linear_2745_27221" x1="135.78" y1="85.7582" x2="135.986" y2="84.7075" gradientUnits="userSpaceOnUse">
<stop stop-color="#002F65"/>
<stop offset="1" stop-color="#005599"/>
</linearGradient>
<linearGradient id="paint1_linear_2745_27221" x1="285.273" y1="75.9478" x2="285.577" y2="76.9744" gradientUnits="userSpaceOnUse">
<stop stop-color="#002F65"/>
<stop offset="1" stop-color="#005599"/>
</linearGradient>
<linearGradient id="paint2_linear_2745_27221" x1="246.637" y1="165.58" x2="245.669" y2="166.038" gradientUnits="userSpaceOnUse">
<stop stop-color="#002F65"/>
<stop offset="1" stop-color="#005599"/>
</linearGradient>
<linearGradient id="paint3_linear_2745_27221" x1="76.8975" y1="128.23" x2="125.081" y2="32.5977" gradientUnits="userSpaceOnUse">
<stop stop-color="#002F65"/>
<stop offset="1" stop-color="#005599"/>
</linearGradient>
<linearGradient id="paint4_linear_2745_27221" x1="311.898" y1="117.23" x2="360.081" y2="21.5977" gradientUnits="userSpaceOnUse">
<stop stop-color="#002F65"/>
<stop offset="1" stop-color="#005599"/>
</linearGradient>
<linearGradient id="paint5_linear_2745_27221" x1="249.898" y1="254.23" x2="298.081" y2="158.598" gradientUnits="userSpaceOnUse">
<stop stop-color="#002F65"/>
<stop offset="1" stop-color="#005599"/>
</linearGradient>
<clipPath id="clip0_2745_27221">
<rect width="416" height="265" fill="white" transform="translate(0.000976562)"/>
</clipPath>
<clipPath id="clip1_2745_27221">
<rect width="32" height="36" fill="white" transform="translate(196.001 81)"/>
</clipPath>
</defs>
</svg>
