<svg width="29" height="14" viewBox="0 0 29 14" fill="none" xmlns="http://www.w3.org/2000/svg">
<path fill-rule="evenodd" clip-rule="evenodd" d="M19.5122 0.99707H7.47464C6.55874 0.99707 5.84557 0.99707 5.27075 1.03629C4.68747 1.07609 4.20995 1.15793 3.77133 1.33961C2.66871 1.79634 1.79267 2.67237 1.33595 3.77499C1.15427 4.21362 1.07243 4.69113 1.03263 5.27441C0.993408 5.84924 0.993408 6.56218 0.993408 7.47807V7.51584C0.993408 8.43174 0.993408 9.1449 1.03263 9.71973C1.07243 10.303 1.15427 10.7805 1.33595 11.2191C1.79267 12.3218 2.66871 13.1978 3.77133 13.6545C4.20995 13.8362 4.68747 13.9181 5.27075 13.9579C5.84562 13.9971 6.55863 13.9971 7.47463 13.9971H19.5122C20.4282 13.9971 21.1412 13.9971 21.7161 13.9579C22.2994 13.9181 22.7769 13.8362 23.2155 13.6545C24.3181 13.1978 25.1941 12.3218 25.6509 11.2191C25.8325 10.7805 25.9144 10.303 25.9542 9.71973C25.9934 9.14486 25.9934 8.43186 25.9934 7.51588V7.4783C25.9934 6.56231 25.9934 5.84928 25.9542 5.27441C25.9144 4.69113 25.8325 4.21362 25.6509 3.77499C25.1941 2.67237 24.3181 1.79634 23.2155 1.33961C22.7769 1.15793 22.2994 1.07609 21.7161 1.03629C21.1412 0.99707 20.4281 0.99707 19.5122 0.99707ZM4.15402 2.26349C4.45048 2.14069 4.80645 2.07029 5.33882 2.03397C5.87568 1.99734 6.55468 1.99707 7.49341 1.99707H19.4934C20.4321 1.99707 21.1111 1.99734 21.648 2.03397C22.1804 2.07029 22.5363 2.14069 22.8328 2.26349C23.6904 2.61872 24.3718 3.30008 24.727 4.15768C24.8498 4.45414 24.9202 4.81011 24.9565 5.34248C24.9931 5.87934 24.9934 6.55835 24.9934 7.49707C24.9934 8.43579 24.9931 9.1148 24.9565 9.65166C24.9202 10.184 24.8498 10.54 24.727 10.8365C24.3718 11.6941 23.6904 12.3754 22.8328 12.7306C22.5363 12.8534 22.1804 12.9238 21.648 12.9602C21.1111 12.9968 20.4321 12.9971 19.4934 12.9971H7.49341C6.55468 12.9971 5.87568 12.9968 5.33882 12.9602C4.80645 12.9238 4.45048 12.8534 4.15402 12.7306C3.29642 12.3754 2.61506 11.6941 2.25983 10.8365C2.13703 10.54 2.06663 10.184 2.03031 9.65166C1.99368 9.1148 1.99341 8.43579 1.99341 7.49707C1.99341 6.55835 1.99368 5.87934 2.03031 5.34248C2.06663 4.81011 2.13703 4.45414 2.25983 4.15768C2.61506 3.30008 3.29642 2.61872 4.15402 2.26349Z" fill="white" fill-opacity="0.4"/>
<path d="M26.9934 5.49634C27.7764 5.82286 28.3267 6.59563 28.3267 7.49695C28.3267 8.39827 27.7764 9.17104 26.9934 9.49756V5.49634Z" fill="white" fill-opacity="0.4"/>
</svg>
