<svg width="80" height="80" viewBox="0 0 80 80" fill="none" xmlns="http://www.w3.org/2000/svg">
<ellipse cx="33.6461" cy="31.6917" rx="29.6461" ry="29.6917" fill="url(#paint0_linear_2000_33621)"/>
<path d="M36.1063 50.1946H32.0261V45.9669C30.7922 45.826 29.5022 45.4878 28.1562 44.9523C26.8101 44.3886 25.6323 43.6558 24.6228 42.7539L27.3149 38.5685C28.3805 39.3859 29.39 40.0059 30.3435 40.4287C31.325 40.8233 32.3205 41.0205 33.33 41.0205C35.6015 41.0205 36.7372 40.0482 36.7372 38.1035C36.7372 37.2297 36.3586 36.497 35.6015 35.9051C34.8724 35.3132 33.947 34.7636 32.8253 34.2563C31.7316 33.7208 30.6239 33.1289 29.5022 32.4807C28.4086 31.8043 27.4832 30.9728 26.726 29.9864C25.9969 28.9999 25.6323 27.7457 25.6323 26.2237C25.6323 24.1381 26.1932 22.4189 27.3149 21.066C28.4646 19.685 30.035 18.7972 32.0261 18.4026V14.0481H36.1063V18.318C37.4523 18.5153 38.6301 18.924 39.6396 19.5441C40.6492 20.1641 41.5606 20.911 42.3738 21.7847L39.2611 25.3359C38.5039 24.6313 37.7748 24.1099 37.0737 23.7717C36.3727 23.4053 35.5735 23.2221 34.6761 23.2221C32.6009 23.2221 31.5634 24.124 31.5634 25.9278C31.5634 26.717 31.9279 27.3934 32.657 27.9571C33.4142 28.4926 34.3396 29.014 35.4332 29.5213C36.5549 30.0005 37.6626 30.5641 38.7563 31.2124C39.878 31.8606 40.8034 32.7062 41.5325 33.749C42.2897 34.7636 42.6682 36.0742 42.6682 37.6807C42.6682 39.71 42.1074 41.4574 40.9857 42.923C39.892 44.3604 38.2655 45.3187 36.1063 45.7978V50.1946Z" fill="white"/>
<path fill-rule="evenodd" clip-rule="evenodd" d="M58.1242 29.0808C57.5719 29.0808 57.1242 29.5285 57.1242 30.0808V58.0709C57.1242 58.0816 57.1244 58.0921 57.1247 58.1027H49.5097C48.6779 58.1027 48.2097 59.0591 48.7199 59.716L60.9901 75.5163L73.2603 59.716C73.7704 59.0591 73.3022 58.1027 72.4704 58.1027H63.8853C63.8856 58.0921 63.8858 58.0816 63.8858 58.0709V30.0808C63.8858 29.5285 63.4381 29.0808 62.8858 29.0808H58.1242Z" fill="url(#paint1_linear_2000_33621)"/>
<g opacity="0.8">
<mask id="path-4-outside-1_2000_33621" maskUnits="userSpaceOnUse" x="43.8284" y="26.1514" width="34" height="54" fill="black">
<rect fill="white" x="43.8284" y="26.1514" width="34" height="54"/>
<path fill-rule="evenodd" clip-rule="evenodd" d="M56.1948 27.1514C55.6426 27.1514 55.1948 27.5991 55.1948 28.1514V56.1754H48.834C46.3266 56.1754 44.9256 59.0687 46.4804 61.0357L59.4223 77.4086C60.2231 78.4216 61.7596 78.4216 62.5604 77.4086L75.5023 61.0357C77.0571 59.0687 75.6561 56.1754 73.1488 56.1754H65.8201V28.1514C65.8201 27.5991 65.3724 27.1514 64.8201 27.1514H56.1948Z"/>
</mask>
<path d="M55.1948 56.1754V57.1754H56.1948V56.1754H55.1948ZM46.4804 61.0357L47.2649 60.4156H47.2649L46.4804 61.0357ZM59.4223 77.4086L58.6378 78.0287H58.6378L59.4223 77.4086ZM62.5604 77.4086L63.3449 78.0287L62.5604 77.4086ZM75.5023 61.0357L76.2868 61.6558L75.5023 61.0357ZM65.8201 56.1754H64.8201V57.1754H65.8201V56.1754ZM56.1948 28.1514V28.1514V26.1514C55.0903 26.1514 54.1948 27.0468 54.1948 28.1514H56.1948ZM56.1948 56.1754V28.1514H54.1948V56.1754H56.1948ZM48.834 57.1754H55.1948V55.1754H48.834V57.1754ZM47.2649 60.4156C46.2284 59.1042 47.1624 57.1754 48.834 57.1754V55.1754C45.4908 55.1754 43.6228 59.0331 45.6959 61.6558L47.2649 60.4156ZM60.2069 76.7884L47.2649 60.4156L45.6959 61.6558L58.6378 78.0287L60.2069 76.7884ZM61.7759 76.7884C61.3755 77.295 60.6072 77.295 60.2069 76.7884L58.6378 78.0287C59.839 79.5482 62.1438 79.5482 63.3449 78.0287L61.7759 76.7884ZM74.7178 60.4156L61.7759 76.7884L63.3449 78.0287L76.2868 61.6558L74.7178 60.4156ZM73.1488 57.1754C74.8203 57.1754 75.7543 59.1042 74.7178 60.4156L76.2868 61.6558C78.3599 59.0331 76.4919 55.1754 73.1488 55.1754V57.1754ZM65.8201 57.1754H73.1488V55.1754H65.8201V57.1754ZM64.8201 28.1514V56.1754H66.8201V28.1514H64.8201ZM64.8201 28.1514H64.8201H66.8201C66.8201 27.0468 65.9247 26.1514 64.8201 26.1514V28.1514ZM56.1948 28.1514H64.8201V26.1514H56.1948V28.1514Z" fill="url(#paint2_linear_2000_33621)" mask="url(#path-4-outside-1_2000_33621)"/>
</g>
<defs>
<linearGradient id="paint0_linear_2000_33621" x1="9.15584" y1="5.44252" x2="62.9669" y2="38.201" gradientUnits="userSpaceOnUse">
<stop stop-color="white" stop-opacity="0.8"/>
<stop offset="1" stop-color="white" stop-opacity="0"/>
</linearGradient>
<linearGradient id="paint1_linear_2000_33621" x1="74.8037" y1="78.4934" x2="44.5063" y2="48.9183" gradientUnits="userSpaceOnUse">
<stop stop-color="white"/>
<stop offset="1" stop-color="white" stop-opacity="0"/>
</linearGradient>
<linearGradient id="paint2_linear_2000_33621" x1="58.6615" y1="33.0251" x2="76.9159" y2="77.4513" gradientUnits="userSpaceOnUse">
<stop stop-color="white" stop-opacity="0"/>
<stop offset="0.7055" stop-color="white"/>
<stop offset="1" stop-color="white"/>
</linearGradient>
</defs>
</svg>
