<svg width="80" height="80" viewBox="0 0 80 80" fill="none" xmlns="http://www.w3.org/2000/svg">
<g clip-path="url(#clip0_2000_33629)">
<path opacity="0.4" d="M47.7391 4.00535C47.1947 4.0324 46.6608 4.16674 46.169 4.40053L24.7485 14.5853C23.6255 15.1191 22.8093 16.1285 22.5323 17.3279L17.2468 40.2054C17.0005 41.2706 17.2012 42.388 17.8026 43.3049C17.8745 43.4157 17.9526 43.523 18.0358 43.6268L32.862 61.9706C33.6397 62.932 34.8179 63.492 36.0645 63.492L59.8415 63.4868C61.0872 63.4877 62.2664 62.9285 63.044 61.968L77.8649 43.6216C78.6425 42.6593 78.9345 41.4005 78.6566 40.2002L73.3632 17.3227C73.0853 16.1232 72.27 15.1139 71.147 14.58L49.7248 4.40053C49.1067 4.10655 48.4238 3.97046 47.7382 4.00535H47.7391Z" fill="url(#paint0_linear_2000_33629)"/>
<path opacity="0.5" d="M34.2589 13.0384C33.7145 13.0655 33.1806 13.1998 32.6888 13.4336L11.2683 23.6183C10.1452 24.1522 9.32907 25.1615 9.05204 26.361L3.76661 49.2385C3.52027 50.3036 3.72102 51.4211 4.32242 52.338C4.3943 52.4488 4.47233 52.5561 4.55561 52.6599L19.3818 71.0037C20.1594 71.9651 21.3377 72.5251 22.5843 72.5251L46.3613 72.5199C47.607 72.5207 48.7861 71.9616 49.5638 71.0011L64.3847 52.6546C65.1623 51.6924 65.4542 50.4336 65.1763 49.2333L59.883 26.3558C59.6051 25.1563 58.7898 24.147 57.6668 23.6131L36.2445 13.4336C35.6265 13.1396 34.9436 13.0035 34.258 13.0384H34.2589Z" fill="url(#paint1_linear_2000_33629)"/>
<path opacity="0.8" d="M34.179 10.1111C33.5231 10.1438 32.8798 10.3053 32.287 10.5864L32.287 10.5864L9.039 21.6105C7.6844 22.2528 6.69646 23.4688 6.36081 24.9182C6.36081 24.9182 6.36081 24.9182 6.36081 24.9182L0.624485 49.6811L34.179 10.1111ZM34.179 10.1111L34.179 10.1111C35.0054 10.0691 35.8289 10.2327 36.5744 10.5863C36.5745 10.5864 36.5746 10.5864 36.5746 10.5864L59.8243 21.6048L59.8244 21.6049C61.1792 22.2472 62.1659 23.4633 62.5025 24.9122L62.5026 24.9124L68.2475 49.6753C68.2475 49.6754 68.2475 49.6754 68.2475 49.6754C68.5842 51.126 68.2299 52.6462 67.2898 53.8065C67.2898 53.8065 67.2897 53.8065 67.2897 53.8065L51.2044 73.6651L51.204 73.6655C50.264 74.8235 48.8409 75.4953 47.3398 75.4943M34.179 10.1111L0.624459 49.6812C0.326156 50.9677 0.569441 52.3168 1.29636 53.4227M47.3398 75.4943L47.3402 74.9943L47.3403 75.4943H47.3398ZM47.3398 75.4943L21.5347 75.5C20.0326 75.5 18.6105 74.827 17.6706 73.6681L17.6705 73.668L1.57942 53.8122L1.57828 53.8108C1.47829 53.6865 1.38389 53.5572 1.29636 53.4227M1.29636 53.4227C1.29658 53.4231 1.29681 53.4234 1.29704 53.4238L1.71479 53.149L1.29568 53.4217C1.2959 53.422 1.29613 53.4224 1.29636 53.4227Z" stroke="url(#paint2_linear_2000_33629)"/>
<path d="M34.4681 20.8212C33.7598 20.8212 33.1856 21.4562 33.1864 22.2387C33.1864 22.251 33.1891 22.2623 33.1891 22.2745C33.1882 22.3809 33.1829 22.5092 33.1864 22.6016C33.2031 23.0535 33.3021 23.399 33.3618 23.8151C33.4696 24.7058 33.5599 25.4438 33.5038 26.1294C33.4494 26.3885 33.2583 26.6249 33.0874 26.7889L33.0576 27.3289C32.2878 27.3926 31.5137 27.5086 30.7396 27.6831C27.4109 28.4351 24.5442 30.1414 22.3622 32.4453C22.2202 32.3493 21.973 32.1722 21.8993 32.1181C21.6705 32.1487 21.4391 32.2193 21.1375 32.0449C20.5642 31.6602 20.0408 31.1298 19.4087 30.4912C19.1194 30.1859 18.909 29.8945 18.5654 29.5997C18.4873 29.5325 18.3681 29.4426 18.2804 29.3737C18.0113 29.16 17.6939 29.0492 17.3871 29.0387C16.9926 29.0257 16.6139 29.1783 16.3649 29.4889C15.9231 30.0402 16.0651 30.882 16.6796 31.3697C16.6858 31.3749 16.6928 31.3784 16.6989 31.3836C16.7831 31.4517 16.8865 31.5389 16.9646 31.5965C17.3301 31.8652 17.6633 32.0021 18.0271 32.215C18.7942 32.6861 19.4298 33.0769 19.9338 33.5479C20.1311 33.7564 20.1653 34.1246 20.1916 34.2842L20.6027 34.6497C18.4032 37.9437 17.3845 42.0133 17.9868 46.1596L17.4502 46.3148C17.3091 46.4963 17.1083 46.7824 16.8997 46.8679C16.2396 47.0747 15.4979 47.1505 14.6011 47.2439C14.1803 47.2788 13.8173 47.2578 13.3711 47.3416C13.2729 47.3599 13.1362 47.3957 13.0283 47.421C13.0248 47.421 13.0213 47.4227 13.0178 47.4236C13.0117 47.4253 13.0047 47.428 12.9985 47.4288C12.2428 47.6103 11.7572 48.3021 11.9132 48.9825C12.0692 49.6638 12.8074 50.0782 13.5683 49.915C13.5736 49.9142 13.5815 49.9133 13.5876 49.9124C13.5964 49.9107 13.6034 49.9063 13.6122 49.9046C13.7183 49.881 13.8506 49.8557 13.9436 49.8313C14.3819 49.7144 14.7001 49.5425 15.0938 49.3925C15.9424 49.0898 16.6446 48.8368 17.3293 48.7382C17.615 48.7155 17.9166 48.9136 18.0665 48.9973L18.6258 48.9022C19.9119 52.8697 22.6068 56.0765 26.0197 58.089L25.7865 58.6456C25.8706 58.8619 25.9627 59.1533 25.9004 59.367C25.6515 60.009 25.2254 60.6869 24.7397 61.4423C24.5048 61.7913 24.2646 62.0626 24.0524 62.4621C24.0016 62.5581 23.9367 62.7046 23.8876 62.8058C23.558 63.5072 23.7999 64.3159 24.4329 64.6186C25.0702 64.9239 25.8601 64.602 26.2029 63.8989C26.2029 63.898 26.2055 63.8971 26.2055 63.8963C26.2055 63.8963 26.2055 63.8945 26.2055 63.8936C26.2546 63.7942 26.323 63.6633 26.3642 63.5691C26.5457 63.1548 26.6062 62.7997 26.7342 62.3993C27.0734 61.5514 27.2602 60.6616 27.7265 60.1076C27.8545 59.9558 28.0632 59.8974 28.2788 59.8398L28.569 59.3164C31.5444 60.4531 34.8749 60.7575 38.2018 60.0064C38.961 59.8346 39.6931 59.613 40.4014 59.3469C40.4829 59.4909 40.6346 59.7683 40.6749 59.8372C40.895 59.9087 41.1343 59.9454 41.3298 60.2324C41.6796 60.8264 41.918 61.5287 42.2091 62.3775C42.3371 62.7779 42.4002 63.1329 42.5817 63.5473C42.6229 63.6415 42.6921 63.7741 42.7404 63.8744C43.0814 64.5793 43.8748 64.9029 44.513 64.5968C45.1459 64.2932 45.3879 63.4854 45.0583 62.784C45.0092 62.6828 44.9417 62.5363 44.8908 62.4403C44.6787 62.0408 44.4385 61.7729 44.2035 61.4231C43.7178 60.6677 43.3155 60.0396 43.0665 59.3975C42.9622 59.066 43.084 58.8602 43.1647 58.6456C43.1164 58.5906 43.0121 58.2774 42.9508 58.13C46.4978 56.0459 49.1137 52.7197 50.3419 48.8778C50.5076 48.904 50.7961 48.9546 50.8899 48.9729C51.0827 48.8464 51.2598 48.6815 51.6079 48.7086C52.2925 48.8071 52.9947 49.0601 53.8434 49.3628C54.2379 49.5129 54.5552 49.6874 54.9935 49.8042C55.0865 49.8287 55.2189 49.8522 55.3249 49.8749C55.3337 49.8767 55.3407 49.881 55.3495 49.8828C55.3556 49.8836 55.3635 49.8845 55.3688 49.8854C56.1288 50.0485 56.867 49.6341 57.0239 48.9528C57.18 48.2715 56.6952 47.5806 55.9386 47.3992C55.829 47.3739 55.673 47.332 55.566 47.3119C55.1198 47.2282 54.7568 47.2483 54.336 47.2142C53.4401 47.1209 52.6976 47.045 52.0374 46.8382C51.7683 46.7344 51.5772 46.416 51.4842 46.2852L50.9661 46.1351C51.2344 44.2029 51.1625 42.1912 50.6979 40.1787C50.2289 38.1479 49.4004 36.2897 48.2949 34.6532C48.4282 34.5328 48.6789 34.3121 48.7499 34.2467C48.771 34.0181 48.7526 33.7774 48.991 33.5244C49.4951 33.0533 50.1307 32.6625 50.8978 32.1914C51.2616 31.9786 51.5982 31.8407 51.9638 31.5729C52.0462 31.5119 52.1593 31.4159 52.2461 31.347C52.8615 30.8585 53.0026 30.0166 52.5608 29.4662C52.119 28.9157 51.2633 28.8634 50.6488 29.3519C50.5611 29.4208 50.4428 29.5107 50.3639 29.5779C50.0193 29.8727 49.8072 30.1632 49.517 30.4694C48.8849 31.1088 48.3624 31.6418 47.7882 32.0257C47.5392 32.1696 47.1754 32.1199 47.0097 32.1103L46.5223 32.4566C43.7415 29.5552 39.9561 27.6997 35.8787 27.3394C35.8673 27.1693 35.8524 26.8622 35.8489 26.7697C35.6823 26.611 35.4807 26.4749 35.4298 26.1321C35.3737 25.4464 35.4675 24.7084 35.5754 23.8177C35.635 23.4016 35.734 23.0561 35.7507 22.6043C35.7542 22.5013 35.7481 22.353 35.7481 22.2414C35.7481 21.4589 35.1738 20.8238 34.4664 20.8238L34.4681 20.8212ZM32.8629 30.7171L32.4825 37.4098L32.4553 37.4238C32.4299 38.0222 31.9345 38.5003 31.3261 38.5003C31.0772 38.5003 30.8475 38.4209 30.6607 38.2848L30.6502 38.2901L25.1351 34.4002C26.8297 32.7419 28.9977 31.5162 31.4962 30.9518C31.953 30.8489 32.4088 30.7721 32.8629 30.7171ZM36.0768 30.7171C38.9935 31.0739 41.6919 32.3886 43.7582 34.4028L38.279 38.2682L38.2597 38.2604C37.7732 38.6137 37.0885 38.5265 36.7089 38.0528C36.5537 37.8591 36.4722 37.6314 36.4625 37.4011L36.4573 37.3985L36.0768 30.7171ZM23.1354 36.9004L28.171 41.3825L28.1657 41.4096C28.6199 41.803 28.6874 42.4852 28.3078 42.958C28.1526 43.1517 27.9448 43.2817 27.7213 43.3427L27.716 43.3645L21.262 45.2183C20.9332 42.2287 21.6416 39.3238 23.1363 36.9013L23.1354 36.9004ZM45.7675 36.903C46.5153 38.1095 47.0825 39.4573 47.4191 40.9185C47.7523 42.3622 47.8364 43.8033 47.6988 45.1956L41.2114 43.3366L41.2062 43.3096C40.625 43.1517 40.2682 42.5637 40.4032 41.974C40.4584 41.7324 40.5873 41.5282 40.7617 41.3773L40.7591 41.3634L45.7666 36.9039L45.7675 36.903ZM33.4363 41.728H35.4991L36.7808 43.3227L36.3205 45.3125L34.469 46.1988L32.6113 45.3099L32.1511 43.32L33.4363 41.728ZM40.0499 47.1854C40.1375 47.1811 40.2252 47.1889 40.3102 47.2046L40.3208 47.1907L46.9975 48.3143C46.02 51.0456 44.1509 53.4123 41.6524 54.9956L39.061 48.7661L39.0689 48.7557C38.8304 48.2052 39.0689 47.5597 39.6168 47.2971C39.7571 47.2299 39.9035 47.1924 40.0499 47.1854ZM28.8364 47.2125C29.3457 47.2195 29.8025 47.5719 29.9217 48.0875C29.9769 48.3291 29.9498 48.5681 29.8586 48.7801L29.8779 48.8045L27.3136 54.9712C24.9159 53.4402 23.0066 51.1485 21.9852 48.3361L28.6041 47.2186L28.6146 47.2325C28.6882 47.2186 28.7636 47.2125 28.8364 47.2134V47.2125ZM34.4278 49.9142C34.6049 49.9081 34.7855 49.9438 34.9564 50.0258C35.1809 50.1331 35.3544 50.3024 35.4631 50.5056H35.4877L38.7506 56.3722C38.3272 56.5135 37.8915 56.6339 37.4462 56.7351C34.9512 57.2986 32.4632 57.1277 30.211 56.3643L33.4652 50.5091H33.4705C33.666 50.1462 34.0359 49.929 34.4269 49.915L34.4278 49.9142Z" fill="white"/>
</g>
<defs>
<linearGradient id="paint0_linear_2000_33629" x1="83.9625" y1="-2.44796" x2="25.9165" y2="59.8078" gradientUnits="userSpaceOnUse">
<stop stop-color="white"/>
<stop offset="1" stop-color="white" stop-opacity="0"/>
</linearGradient>
<linearGradient id="paint1_linear_2000_33629" x1="70.4823" y1="6.58512" x2="12.4363" y2="68.8409" gradientUnits="userSpaceOnUse">
<stop stop-color="white"/>
<stop offset="1" stop-color="white" stop-opacity="0"/>
</linearGradient>
<linearGradient id="paint2_linear_2000_33629" x1="64.9094" y1="14.8412" x2="4.53948" y2="74.7281" gradientUnits="userSpaceOnUse">
<stop stop-color="white"/>
<stop offset="1" stop-color="white" stop-opacity="0"/>
</linearGradient>
<clipPath id="clip0_2000_33629">
<rect width="80" height="80" fill="white"/>
</clipPath>
</defs>
</svg>
