<svg width="18" height="13" viewBox="0 0 18 13" fill="none" xmlns="http://www.w3.org/2000/svg">
<path fill-rule="evenodd" clip-rule="evenodd" d="M9.16379 2.89149C11.6304 2.8916 14.0026 3.84925 15.7902 5.56651C15.9248 5.69909 16.14 5.69742 16.2726 5.56276L17.5593 4.25056C17.6265 4.18226 17.6639 4.08975 17.6633 3.99349C17.6628 3.89724 17.6243 3.80518 17.5564 3.73768C12.8644 -0.805788 5.46241 -0.805788 0.770493 3.73768C0.702527 3.80512 0.663965 3.89716 0.663338 3.99342C0.662711 4.08967 0.700072 4.18221 0.767154 4.25056L2.05429 5.56276C2.18679 5.69762 2.40211 5.6993 2.53664 5.56651C4.32449 3.84914 6.697 2.89149 9.16379 2.89149ZM9.16382 7.16057C10.519 7.16049 11.8259 7.66947 12.8304 8.58863C12.9663 8.71907 13.1803 8.71625 13.3128 8.58225L14.5981 7.27005C14.6658 7.20122 14.7033 7.10785 14.7023 7.01082C14.7014 6.9138 14.6619 6.82121 14.5929 6.75379C11.5338 3.87851 6.79643 3.87851 3.73736 6.75379C3.66826 6.82121 3.62883 6.91384 3.62793 7.0109C3.62702 7.10796 3.66471 7.20132 3.73253 7.27005L5.01745 8.58225C5.14989 8.71625 5.36393 8.71907 5.4998 8.58863C6.50369 7.67008 7.8095 7.16114 9.16382 7.16057ZM11.7384 10.0328C11.7404 10.1301 11.7026 10.2239 11.6338 10.2921L9.41054 12.5592C9.34536 12.6259 9.25651 12.6634 9.1638 12.6634C9.07108 12.6634 8.98223 12.6259 8.91706 12.5592L6.69341 10.2921C6.62472 10.2239 6.58693 10.1301 6.58897 10.0328C6.591 9.93546 6.63268 9.84332 6.70417 9.7781C8.12404 8.56463 10.2036 8.56463 11.6234 9.7781C11.6949 9.84338 11.7365 9.93554 11.7384 10.0328Z" fill="white"/>
</svg>
