<svg width="596" height="167" viewBox="0 0 596 167" fill="none" xmlns="http://www.w3.org/2000/svg">
<g clip-path="url(#clip0_2381_33625)">
<path d="M553.821 96.7912C552.181 98.0689 523.229 114.452 523.229 150.88C523.229 193.015 560.069 207.921 561.172 208.29C561.002 209.198 555.319 228.704 541.748 248.579C529.647 266.069 517.009 283.531 497.783 283.531C478.558 283.531 473.61 272.316 451.415 272.316C429.221 272.316 422.096 283.9 404.51 283.9C386.924 283.9 374.654 267.716 360.545 247.841C344.204 224.502 331 188.245 331 153.832C331 98.6367 366.737 69.3637 401.909 69.3637C420.598 69.3637 436.176 81.6862 447.909 81.6862C459.643 81.6862 476.494 68.6255 497.755 68.6255C505.813 68.6255 534.765 69.3637 553.821 96.7912ZM487.661 45.2582C496.454 34.7812 502.675 20.2441 502.675 5.70696C502.675 3.69107 502.505 1.64678 502.137 0C487.831 0.539464 470.811 9.56839 460.548 21.5218C452.49 30.7211 444.969 45.2582 444.969 59.9941C444.969 62.2087 445.337 64.4233 445.506 65.1332C446.411 65.3035 447.881 65.5023 449.351 65.5023C462.187 65.5023 478.331 56.8709 487.661 45.2582Z" fill="black"/>
<path d="M181.82 69.4083L201.112 34.7466C202.145 32.8781 201.474 30.5157 199.597 29.488C198.994 29.1677 198.351 29.0075 197.72 29.0075C196.353 29.0075 195.026 29.7282 194.315 30.9962L174.809 66.0315C158.828 58.9711 140.917 55.0204 122.013 55.0204C103.11 55.0204 85.1855 58.9711 69.2182 66.0315L49.6848 30.9962C48.6391 29.1276 46.2796 28.447 44.4026 29.488C42.5257 30.5291 41.842 32.8781 42.8877 34.7466L62.1798 69.4083C25.0971 88.6143 0.0536264 125.118 0 167H244C243.946 125.118 218.889 88.6143 181.82 69.4083ZM65.6923 122.555C60.0749 122.555 55.5033 118.004 55.5033 112.412C55.5033 106.819 60.0749 102.268 65.6923 102.268C71.3097 102.268 75.8813 106.819 75.8813 112.412C75.8813 118.004 71.3097 122.555 65.6923 122.555ZM178.308 122.555C172.69 122.555 168.119 118.004 168.119 112.412C168.119 106.819 172.69 102.268 178.308 102.268C183.925 102.268 188.497 106.819 188.497 112.412C188.497 118.004 183.925 122.555 178.308 122.555Z" fill="#79C257"/>
</g>
<defs>
<clipPath id="clip0_2381_33625">
<rect width="596" height="167" fill="white"/>
</clipPath>
</defs>
</svg>
