<svg width="334" height="137" viewBox="0 0 334 137" fill="none" xmlns="http://www.w3.org/2000/svg">
<rect width="334" height="137" rx="20" fill="white" fill-opacity="0.1"/>
<rect x="0.75" y="0.75" width="332.5" height="135.5" rx="19.25" stroke="#EAEAEA" stroke-opacity="0.1" stroke-width="1.5"/>
<g clip-path="url(#clip0_2381_33708)">
<path opacity="0.2" d="M203.462 64.805L211.101 55.9629H267.545L277.306 64.805L264.15 70.6997L267.545 74.0682L280.277 74.9103L283.672 73.226V95.2356L267.545 95.9629L262.452 92.1734H217.467L212.799 95.9629H196.672V74.0682H211.95L215.769 70.6997L203.462 64.805Z" fill="#0BD55A"/>
<path fill-rule="evenodd" clip-rule="evenodd" d="M222.914 41.0897C219.46 41.0897 216.285 43.0002 214.675 46.0582L210.281 54.3926H240.422V56.5136H208.523C208.152 56.5136 207.807 56.319 207.615 56.0009C207.423 55.6827 207.412 55.2872 207.585 54.9585L212.798 45.0703C214.776 41.3131 218.675 38.9688 222.914 38.9688H240.416V41.0897H222.914Z" fill="#0BD55A"/>
<path fill-rule="evenodd" clip-rule="evenodd" d="M196.475 64.9259L207.81 54.666L209.234 56.2385L197.898 66.4984C197.898 66.4984 197.898 66.4984 197.898 66.4984C195.578 68.5978 194.258 71.5775 194.258 74.7043V90.9445C194.258 93.3026 196.17 95.215 198.528 95.215H240.805V97.3359H198.528C194.999 97.3359 192.137 94.4739 192.137 90.9445V74.7043C192.137 70.9788 193.71 67.4277 196.474 64.9259L196.475 64.9259Z" fill="#0BD55A"/>
<path fill-rule="evenodd" clip-rule="evenodd" d="M192.137 101.408V90.9443H194.258V101.408C194.258 102.171 194.877 102.791 195.64 102.791H209.029C209.792 102.791 210.412 102.171 210.412 101.408V96.2691H212.533V101.408C212.533 103.342 210.963 104.912 209.029 104.912H195.64C193.706 104.912 192.137 103.342 192.137 101.408Z" fill="#0BD55A"/>
<path fill-rule="evenodd" clip-rule="evenodd" d="M199.295 64.4325L200.087 62.4651L212.635 67.5175C214.043 68.0836 215.338 68.8927 216.463 69.9103L220.142 73.2296H240.421V75.3505H219.735C219.472 75.3505 219.219 75.2532 219.024 75.0774L215.042 71.4843L215.041 71.4835C214.101 70.6336 213.02 69.958 211.843 69.4852L199.295 64.4325Z" fill="#0BD55A"/>
<path fill-rule="evenodd" clip-rule="evenodd" d="M194.658 72.6571L193.225 70.977L194.838 69.6006L196.275 71.2847C197.32 72.5167 198.86 73.2234 200.482 73.2234H211.274C211.904 73.2234 212.504 72.9746 212.938 72.5358L212.943 72.5311L215.287 70.1935L216.784 71.6952L214.445 74.0282C214.444 74.0291 214.443 74.0299 214.443 74.0307C213.604 74.8767 212.46 75.3444 211.274 75.3444H200.482C198.245 75.3444 196.111 74.3693 194.659 72.6581C194.658 72.6578 194.658 72.6575 194.658 72.6571Z" fill="#0BD55A"/>
<path fill-rule="evenodd" clip-rule="evenodd" d="M196.732 52.9416C196.732 52.0149 197.486 51.2812 198.393 51.2812H204.664C205.59 51.2812 206.324 52.0353 206.324 52.9416V58.2787C206.324 58.8644 205.849 59.3392 205.264 59.3392H205.257C205.2 59.3392 205.144 59.3346 205.087 59.3255L198.129 58.1946C197.306 58.0676 196.732 57.3548 196.732 56.5595V52.9416ZM198.853 53.4022V56.1635L204.203 57.033V53.4022H198.853ZM198.45 56.0981C198.452 56.0984 198.454 56.0988 198.457 56.0991L198.45 56.0981Z" fill="#0BD55A"/>
<path fill-rule="evenodd" clip-rule="evenodd" d="M193.327 82.7901C193.327 82.7901 193.327 82.7901 193.198 81.7376C193.068 80.6851 193.068 80.6851 193.068 80.685L193.071 80.6847L193.079 80.6837L193.108 80.6803C193.133 80.6773 193.169 80.6732 193.216 80.6679C193.309 80.6575 193.444 80.6428 193.617 80.6255C193.962 80.591 194.455 80.5462 195.053 80.5041C196.248 80.4201 197.875 80.3463 199.589 80.3899C201.294 80.4333 203.13 80.5939 204.725 80.9964C206.275 81.3874 207.827 82.0622 208.68 83.3096L206.93 84.5071C206.531 83.9239 205.63 83.4121 204.207 83.0528C202.828 82.7051 201.169 82.5518 199.535 82.5102C197.91 82.4688 196.355 82.5388 195.202 82.6198C194.627 82.6602 194.155 82.7032 193.828 82.7359C193.665 82.7523 193.538 82.766 193.452 82.7756C193.41 82.7804 193.378 82.7841 193.356 82.7866L193.333 82.7894L193.327 82.7901Z" fill="#0BD55A"/>
<path fill-rule="evenodd" clip-rule="evenodd" d="M199.242 81.4453V84.42C199.242 86.741 201.123 88.6225 203.444 88.6225H207.031V90.7434H203.444C199.952 90.7434 197.121 87.9123 197.121 84.42V81.4453H199.242Z" fill="#0BD55A"/>
<path fill-rule="evenodd" clip-rule="evenodd" d="M217.876 93.7737C217.876 93.7738 217.875 93.774 217.875 93.7742L213.374 96.9395L212.154 95.2047L216.658 92.0372C218.653 90.6391 221.03 89.8848 223.463 89.8848H240.421V92.0057H223.463C221.469 92.0057 219.517 92.6241 217.876 93.7737Z" fill="#0BD55A"/>
<path fill-rule="evenodd" clip-rule="evenodd" d="M240.166 38.9688H257.668C261.907 38.9688 265.806 41.3129 267.784 45.0697M267.784 45.0703L272.997 54.9585C273.171 55.2872 273.159 55.6827 272.967 56.0009C272.775 56.319 272.431 56.5136 272.059 56.5136H240.16V54.3926H270.301L265.908 46.0588L265.907 46.0582C264.298 43.0002 261.122 41.0897 257.668 41.0897H240.166V38.9688" fill="#0BD55A"/>
<path fill-rule="evenodd" clip-rule="evenodd" d="M271.348 56.2381L272.772 54.666L284.107 64.9319C284.107 64.9318 284.108 64.932 284.107 64.9319C286.871 67.4337 288.445 70.9848 288.445 74.7102V90.9505C288.445 94.4799 285.583 97.3419 282.054 97.3419H239.777V95.2209H282.054C284.412 95.2209 286.324 93.3085 286.324 90.9505V74.7102C286.324 71.5834 285.003 68.6036 282.684 66.5042L271.348 56.2381Z" fill="#0BD55A"/>
<path fill-rule="evenodd" clip-rule="evenodd" d="M286.324 101.408V90.9443H288.445V101.408C288.445 103.342 286.875 104.912 284.941 104.912H271.552C269.618 104.912 268.049 103.342 268.049 101.408V96.2691H270.17V101.408C270.17 102.171 270.79 102.791 271.552 102.791H284.941C285.704 102.791 286.324 102.171 286.324 101.408Z" fill="#0BD55A"/>
<path fill-rule="evenodd" clip-rule="evenodd" d="M267.947 67.5175L280.494 62.4651L281.287 64.4325L268.739 69.4852C267.562 69.958 266.481 70.6336 265.541 71.4835L265.54 71.4843L261.557 75.0774C261.362 75.2532 261.109 75.3505 260.847 75.3505H240.16V73.2296H260.439L264.118 69.9103C264.118 69.9104 264.119 69.9103 264.118 69.9103C265.244 68.8927 266.539 68.0836 267.947 67.5175Z" fill="#0BD55A"/>
<path fill-rule="evenodd" clip-rule="evenodd" d="M285.743 69.6006L287.357 70.977L285.924 72.6571C285.924 72.6574 285.923 72.6576 285.923 72.6579C284.47 74.3692 282.337 75.3444 280.1 75.3444H269.302C268.115 75.3444 266.972 74.8767 266.133 74.0307L263.791 71.6952L265.289 70.1935L267.637 72.5358C268.072 72.9746 268.671 73.2234 269.302 73.2234H280.1C281.721 73.2234 283.261 72.5167 284.307 71.2847L285.743 69.6006Z" fill="#0BD55A"/>
<path fill-rule="evenodd" clip-rule="evenodd" d="M276.381 53.4022V57.033L281.731 56.1635V53.4022H276.381ZM274.26 52.9416C274.26 52.0353 274.993 51.2812 275.92 51.2812H282.191C283.097 51.2812 283.851 52.0149 283.851 52.9416V56.5595C283.851 57.3548 283.278 58.0676 282.455 58.1946L275.497 59.3255C275.44 59.3346 275.383 59.3392 275.326 59.3392H275.32C274.735 59.3392 274.26 58.8644 274.26 58.2787V52.9416Z" fill="#0BD55A"/>
<path fill-rule="evenodd" clip-rule="evenodd" d="M287.514 80.685C287.515 80.6851 287.515 80.6851 287.385 81.7376C287.256 82.7901 287.256 82.7901 287.256 82.7901L287.255 82.79L287.249 82.7894L287.226 82.7866C287.205 82.7841 287.173 82.7804 287.13 82.7756C287.045 82.766 286.918 82.7523 286.755 82.7359C286.428 82.7032 285.956 82.6602 285.381 82.6198C284.228 82.5388 282.673 82.4688 281.048 82.5102C279.414 82.5518 277.754 82.7051 276.376 83.0528C274.952 83.4121 274.052 83.9239 273.653 84.5071L271.902 83.3096C272.756 82.0622 274.307 81.3874 275.857 80.9964C277.453 80.5939 279.288 80.4333 280.994 80.3899C282.707 80.3463 284.334 80.4201 285.529 80.5041C286.128 80.5462 286.621 80.591 286.966 80.6255C287.138 80.6428 287.274 80.6575 287.367 80.6679C287.414 80.6732 287.45 80.6773 287.474 80.6803L287.503 80.6837L287.511 80.6847L287.514 80.685Z" fill="#0BD55A"/>
<path fill-rule="evenodd" clip-rule="evenodd" d="M283.461 81.4453V84.42C283.461 87.9123 280.63 90.7434 277.138 90.7434H273.551V88.6225H277.138C279.459 88.6225 281.34 86.741 281.34 84.42V81.4453H283.461Z" fill="#0BD55A"/>
<path fill-rule="evenodd" clip-rule="evenodd" d="M240.16 89.8848H257.118C259.551 89.8848 261.928 90.6391 263.923 92.0372L263.925 92.0383L268.427 95.2047L267.207 96.9395L262.706 93.7742C262.706 93.774 262.705 93.7738 262.705 93.7736C261.064 92.6241 259.112 92.0057 257.118 92.0057H240.16V89.8848Z" fill="#0BD55A"/>
<path d="M217.672 79.9629H262.672V92.9629H217.672V79.9629Z" fill="white"/>
<path fill-rule="evenodd" clip-rule="evenodd" d="M216.672 80.0607C216.672 79.4544 217.138 78.9629 217.713 78.9629H262.631C263.206 78.9629 263.672 79.4544 263.672 80.0607V92.8651C263.672 93.4714 263.206 93.9629 262.631 93.9629H217.713C217.138 93.9629 216.672 93.4714 216.672 92.8651V80.0607ZM218.754 81.1585V91.7673H261.59V81.1585H218.754Z" fill="#0BD55A"/>
<path d="M220.672 88.864H221.647V85.4671L223.058 88.864H223.936L225.347 85.4671V88.864H226.322V84.0618H225.016L223.493 87.6846L221.977 84.0618H220.672V88.864Z" fill="#0BD55A"/>
<path d="M228.801 88.864H229.776V86.8584L231.69 84.0829V84.0618H230.549L229.289 85.9544L228.028 84.0618H226.888V84.0829L228.801 86.8584V88.864Z" fill="#0BD55A"/>
<path d="M233.642 88.864H234.617V86.8372H237.146V88.864H238.122V84.0618H237.146V86.0392H234.617V84.0618H233.642V88.864Z" fill="#0BD55A"/>
<path d="M240.599 88.864H241.574V86.8584L243.487 84.0829V84.0618H242.347L241.086 85.9544L239.826 84.0618H238.685V84.0829L240.599 86.8584V88.864Z" fill="#0BD55A"/>
<path d="M246.167 88.864H247.12V84.0618H246.407L244.884 84.8668L245.237 85.566L246.167 85.0858V88.864Z" fill="#0BD55A"/>
<path d="M247.939 88.864H251.54V88.0589H249.199C249.672 87.4304 251.443 86.929 251.443 85.5166C251.443 84.6479 250.797 83.9629 249.649 83.9629C248.636 83.9629 248.141 84.5632 247.961 85.0575L248.696 85.4389C248.839 85.0363 249.139 84.7962 249.604 84.7962C250.25 84.7962 250.49 85.1635 250.49 85.5731C250.49 86.5194 248.569 87.042 247.939 88.179V88.864Z" fill="#0BD55A"/>
<path d="M253.782 88.9629C254.937 88.9629 255.845 88.3979 255.845 87.494C255.845 86.929 255.515 86.4841 254.922 86.3005C255.328 86.0745 255.575 85.7002 255.575 85.3118C255.575 84.4643 254.915 83.9629 253.819 83.9629C253.091 83.9629 252.514 84.316 252.184 84.7185L252.754 85.2835C252.949 85.0222 253.272 84.7962 253.819 84.7962C254.247 84.7962 254.6 84.994 254.6 85.3753C254.6 85.6931 254.352 85.9756 253.797 85.9756H253.294V86.7666H253.797C254.517 86.7666 254.87 86.9996 254.87 87.4163C254.87 87.8753 254.412 88.1296 253.782 88.1296C253.151 88.1296 252.746 87.8188 252.491 87.5363L251.936 88.1578C252.266 88.5109 252.874 88.9629 253.782 88.9629Z" fill="#0BD55A"/>
<path d="M256.245 87.6635H258.879V88.864H259.824V87.6635H260.672V86.8654H259.824V84.0618H258.586L256.245 87.0067V87.6635ZM257.43 86.8654L258.879 85.001V86.8654H257.43Z" fill="#0BD55A"/>
<g clip-path="url(#clip1_2381_33708)">
<path fill-rule="evenodd" clip-rule="evenodd" d="M244.96 69.8914C244.96 71.1261 243.157 72.1387 240.944 72.1387C238.73 72.1387 236.926 71.1298 236.926 69.8914C236.926 68.653 238.72 67.6328 240.944 67.6328C243.167 67.6328 244.96 68.6417 244.96 69.8914ZM240.752 69.5774C241.077 69.5035 241.394 69.3984 241.699 69.2634C242.555 68.9292 242.96 68.5849 243.038 68.5068C243.147 68.3958 243.066 68.3542 242.965 68.3138C242.308 68.1058 241.623 68.0033 240.934 68.0099C240.524 68.02 240.297 68.5143 240.205 68.7287C239.777 69.7313 240.543 69.6304 240.752 69.58V69.5774ZM238.129 70.9949C238.147 70.9546 238.821 69.2029 239.613 68.2508C239.713 68.1499 239.604 68.1246 239.477 68.16C238.164 68.4437 237.254 69.1121 237.254 69.8814C237.254 70.3064 237.527 70.7011 237.983 71.0164C238.005 71.0324 238.033 71.0392 238.06 71.0355C238.087 71.0317 238.112 71.0176 238.129 70.9962V70.9949ZM241.124 70.1941C240.799 70.2675 240.482 70.3726 240.177 70.5081C239.321 70.8423 238.916 71.1967 238.838 71.2774C238.728 71.3783 238.81 71.4287 238.911 71.459C239.568 71.6659 240.253 71.7717 240.942 71.773C241.352 71.7528 241.579 71.2572 241.68 71.0441C242.099 70.0415 241.333 70.1538 241.124 70.1941ZM244.624 69.8914C244.624 69.4665 244.359 69.0818 243.895 68.7678C243.884 68.7578 243.872 68.7503 243.859 68.7458C243.845 68.7413 243.831 68.74 243.817 68.742C243.802 68.7439 243.789 68.7491 243.777 68.7571C243.765 68.765 243.755 68.7756 243.748 68.788C243.731 68.8182 243.056 70.5699 242.264 71.5221C242.173 71.633 242.273 71.6482 242.4 71.6229C243.712 71.3291 244.624 70.6607 244.624 69.8914Z" fill="#0BD55A"/>
</g>
<path fill-rule="evenodd" clip-rule="evenodd" d="M316.627 71.5547C316.778 72.008 316.534 72.498 316.082 72.6491L314.627 73.1358C314.176 73.2869 313.688 73.0419 313.537 72.5886C313.386 72.1353 313.631 71.6453 314.082 71.4942L315.537 71.0075C315.989 70.8564 316.477 71.1014 316.627 71.5547ZM292.149 80.389C291.723 80.1753 291.55 79.6556 291.763 79.2282L295.233 72.2635C295.446 71.8361 295.964 71.6628 296.389 71.8765C296.815 72.0902 296.988 72.6099 296.775 73.0373L294.163 78.2809C294.454 78.3413 294.706 78.5514 294.807 78.8549C294.907 79.1583 294.831 79.4782 294.635 79.7019L299.859 82.3236C300.285 82.5373 300.457 83.057 300.245 83.4844C300.032 83.9118 299.514 84.0851 299.088 83.8714L292.149 80.389ZM312.263 73.0148C312.414 73.4681 312.17 73.958 311.718 74.1092L308.809 75.0825C308.357 75.2336 307.869 74.9886 307.718 74.5353C307.568 74.082 307.812 73.592 308.263 73.4409L311.173 72.4676C311.624 72.3164 312.113 72.5614 312.263 73.0148ZM306.444 74.9615C306.595 75.4148 306.351 75.9048 305.899 76.0559L302.99 77.0292C302.538 77.1803 302.05 76.9353 301.899 76.482C301.749 76.0287 301.993 75.5387 302.445 75.3876L305.354 74.4143C305.806 74.2631 306.294 74.5081 306.444 74.9615ZM300.626 76.9082C300.776 77.3615 300.532 77.8515 300.08 78.0026L297.171 78.9759C296.719 79.127 296.231 78.882 296.08 78.4287C295.93 77.9754 296.174 77.4854 296.626 77.3343L299.535 76.361C299.987 76.2098 300.475 76.4548 300.626 76.9082Z" fill="#0BD55A"/>
<path opacity="0.2" d="M47.4621 64.805L55.1011 55.9629H111.545L121.306 64.805L108.15 70.6997L111.545 74.0682L124.277 74.9103L127.672 73.226V95.2356L111.545 95.9629L106.452 92.1734H61.467L56.7987 95.9629H40.6719V74.0682H55.9499L59.7694 70.6997L47.4621 64.805Z" fill="#0BD55A"/>
<path fill-rule="evenodd" clip-rule="evenodd" d="M66.4496 41.0897C62.9953 41.0897 59.8198 43.0002 58.2104 46.0582L53.8164 54.3926H83.9576V56.5136H52.0585C51.6869 56.5136 51.3424 56.319 51.1505 56.0009C50.9585 55.6827 50.9471 55.2872 51.1204 54.9585L56.3335 45.0703C58.311 41.3131 62.2105 38.9688 66.4496 38.9688H83.9514V41.0897H66.4496Z" fill="#0BD55A"/>
<path fill-rule="evenodd" clip-rule="evenodd" d="M40.0097 64.9259L51.3456 54.666L52.7689 56.2385L41.4329 66.4984C41.4329 66.4984 41.4329 66.4984 41.4329 66.4984C39.1134 68.5978 37.7928 71.5775 37.7928 74.7043V90.9445C37.7928 93.3026 39.7052 95.215 42.0633 95.215H84.3398V97.3359H42.0633C38.5338 97.3359 35.6719 94.4739 35.6719 90.9445V74.7043C35.6719 70.9788 37.2456 67.4277 40.0096 64.9259L40.0097 64.9259Z" fill="#0BD55A"/>
<path fill-rule="evenodd" clip-rule="evenodd" d="M35.6719 101.408V90.9443H37.7928V101.408C37.7928 102.171 38.4127 102.791 39.1752 102.791H52.5644C53.3269 102.791 53.9467 102.171 53.9467 101.408V96.2691H56.0677V101.408C56.0677 103.342 54.4983 104.912 52.5644 104.912H39.1752C37.2413 104.912 35.6719 103.342 35.6719 101.408Z" fill="#0BD55A"/>
<path fill-rule="evenodd" clip-rule="evenodd" d="M42.8301 64.4325L43.6223 62.4651L56.1698 67.5175C57.5781 68.0836 58.8728 68.8927 59.9983 69.9103L63.6775 73.2296H83.9566V75.3505H63.2698C63.0074 75.3505 62.7543 75.2532 62.5594 75.0774L58.5767 71.4843L58.5758 71.4835C57.6359 70.6336 56.5547 69.958 55.3782 69.4852L42.8301 64.4325Z" fill="#0BD55A"/>
<path fill-rule="evenodd" clip-rule="evenodd" d="M38.1929 72.6571L36.7598 70.977L38.3734 69.6006L39.8099 71.2847C40.8555 72.5167 42.3954 73.2234 44.0169 73.2234H54.8087C55.4394 73.2234 56.0387 72.9746 56.4733 72.5358L56.4779 72.5311L58.8218 70.1935L60.3195 71.6952L57.9803 74.0282C57.9794 74.0291 57.9786 74.0299 57.9778 74.0307C57.1387 74.8767 55.9951 75.3444 54.8087 75.3444H44.0169C41.7798 75.3444 39.6466 74.3693 38.1937 72.6581C38.1934 72.6578 38.1932 72.6575 38.1929 72.6571Z" fill="#0BD55A"/>
<path fill-rule="evenodd" clip-rule="evenodd" d="M40.2676 52.9416C40.2676 52.0149 41.0216 51.2812 41.9279 51.2812H48.1989C49.1256 51.2812 49.8593 52.0353 49.8593 52.9416V58.2787C49.8593 58.8644 49.3845 59.3392 48.7988 59.3392H48.7926C48.7356 59.3392 48.6787 59.3346 48.6225 59.3255L41.6641 58.1946C40.8409 58.0676 40.2676 57.3548 40.2676 56.5595V52.9416ZM42.3885 53.4022V56.1635L47.7383 57.033V53.4022H42.3885ZM41.9852 56.0981C41.9874 56.0984 41.9897 56.0988 41.9919 56.0991L41.9852 56.0981Z" fill="#0BD55A"/>
<path fill-rule="evenodd" clip-rule="evenodd" d="M36.8621 82.7901C36.8622 82.7901 36.8623 82.7901 36.7327 81.7376C36.6031 80.6851 36.6033 80.6851 36.6035 80.685L36.6066 80.6847L36.6145 80.6837L36.6433 80.6803C36.6682 80.6773 36.7043 80.6732 36.7509 80.6679C36.8441 80.6575 36.9796 80.6428 37.152 80.6255C37.4968 80.591 37.9898 80.5462 38.5885 80.5041C39.7836 80.4201 41.4105 80.3463 43.1242 80.3899C44.8294 80.4333 46.6651 80.5939 48.2605 80.9964C49.8104 81.3874 51.3621 82.0622 52.2155 83.3096L50.465 84.5071C50.066 83.9239 49.1656 83.4121 47.7417 83.0528C46.3634 82.7051 44.7038 82.5518 43.0702 82.5102C41.4451 82.4688 39.8898 82.5388 38.7373 82.6198C38.1622 82.6602 37.6901 82.7032 37.3632 82.7359C37.1998 82.7523 37.0728 82.766 36.9875 82.7756C36.9449 82.7804 36.9127 82.7841 36.8916 82.7866L36.8684 82.7894L36.8621 82.7901Z" fill="#0BD55A"/>
<path fill-rule="evenodd" clip-rule="evenodd" d="M42.7772 81.4453V84.42C42.7772 86.741 44.6586 88.6225 46.9796 88.6225H50.5666V90.7434H46.9796C43.4873 90.7434 40.6562 87.9123 40.6562 84.42V81.4453H42.7772Z" fill="#0BD55A"/>
<path fill-rule="evenodd" clip-rule="evenodd" d="M61.411 93.7737C61.4108 93.7738 61.4105 93.774 61.4103 93.7742L56.9096 96.9395L55.6895 95.2047L60.1932 92.0372C62.1885 90.6391 64.5653 89.8848 66.9985 89.8848H83.9561V92.0057H66.9985C65.004 92.0057 63.052 92.6241 61.411 93.7737Z" fill="#0BD55A"/>
<path fill-rule="evenodd" clip-rule="evenodd" d="M83.7015 38.9688H101.203C105.442 38.9688 109.341 41.3129 111.319 45.0697M111.319 45.0703L116.532 54.9585C116.706 55.2872 116.694 55.6827 116.502 56.0009C116.31 56.319 115.966 56.5136 115.594 56.5136H83.6953V54.3926H113.837L109.443 46.0588L109.443 46.0582C107.833 43.0002 104.658 41.0897 101.203 41.0897H83.7015V38.9688" fill="#0BD55A"/>
<path fill-rule="evenodd" clip-rule="evenodd" d="M114.883 56.2381L116.307 54.666L127.643 64.9319C127.643 64.9318 127.643 64.932 127.643 64.9319C130.407 67.4337 131.98 70.9848 131.98 74.7102V90.9505C131.98 94.4799 129.118 97.3419 125.589 97.3419H83.3125V95.2209H125.589C127.947 95.2209 129.859 93.3085 129.859 90.9505V74.7102C129.859 71.5834 128.539 68.6036 126.219 66.5042L114.883 56.2381Z" fill="#0BD55A"/>
<path fill-rule="evenodd" clip-rule="evenodd" d="M129.859 101.408V90.9443H131.98V101.408C131.98 103.342 130.41 104.912 128.476 104.912H115.087C113.153 104.912 111.584 103.342 111.584 101.408V96.2691H113.705V101.408C113.705 102.171 114.325 102.791 115.087 102.791H128.476C129.239 102.791 129.859 102.171 129.859 101.408Z" fill="#0BD55A"/>
<path fill-rule="evenodd" clip-rule="evenodd" d="M111.482 67.5175L124.03 62.4651L124.822 64.4325L112.274 69.4852C111.097 69.958 110.016 70.6336 109.076 71.4835L109.075 71.4843L105.092 75.0774C104.898 75.2532 104.645 75.3505 104.382 75.3505H83.6953V73.2296H103.974L107.654 69.9103C107.654 69.9104 107.654 69.9103 107.654 69.9103C108.779 68.8927 110.074 68.0836 111.482 67.5175Z" fill="#0BD55A"/>
<path fill-rule="evenodd" clip-rule="evenodd" d="M129.278 69.6006L130.892 70.977L129.459 72.6571C129.459 72.6574 129.459 72.6576 129.458 72.6579C128.006 74.3692 125.872 75.3444 123.635 75.3444H112.837C111.651 75.3444 110.507 74.8767 109.668 74.0307L107.326 71.6952L108.824 70.1935L111.172 72.5358C111.607 72.9746 112.206 73.2234 112.837 73.2234H123.635C125.256 73.2234 126.796 72.5167 127.842 71.2847L129.278 69.6006Z" fill="#0BD55A"/>
<path fill-rule="evenodd" clip-rule="evenodd" d="M119.916 53.4022V57.033L125.266 56.1635V53.4022H119.916ZM117.795 52.9416C117.795 52.0353 118.529 51.2812 119.455 51.2812H125.726C126.633 51.2812 127.387 52.0149 127.387 52.9416V56.5595C127.387 57.3548 126.813 58.0676 125.99 58.1946L119.032 59.3255C118.975 59.3346 118.919 59.3392 118.862 59.3392H118.855C118.27 59.3392 117.795 58.8644 117.795 58.2787V52.9416Z" fill="#0BD55A"/>
<path fill-rule="evenodd" clip-rule="evenodd" d="M131.049 80.685C131.05 80.6851 131.05 80.6851 130.92 81.7376C130.791 82.7901 130.791 82.7901 130.791 82.7901L130.79 82.79L130.785 82.7894L130.761 82.7866C130.74 82.7841 130.708 82.7804 130.665 82.7756C130.58 82.766 130.453 82.7523 130.29 82.7359C129.963 82.7032 129.491 82.6602 128.916 82.6198C127.763 82.5388 126.208 82.4688 124.583 82.5102C122.949 82.5518 121.29 82.7051 119.911 83.0528C118.487 83.4121 117.587 83.9239 117.188 84.5071L115.438 83.3096C116.291 82.0622 117.843 81.3874 119.392 80.9964C120.988 80.5939 122.824 80.4333 124.529 80.3899C126.243 80.3463 127.869 80.4201 129.064 80.5041C129.663 80.5462 130.156 80.591 130.501 80.6255C130.673 80.6428 130.809 80.6575 130.902 80.6679C130.949 80.6732 130.985 80.6773 131.01 80.6803L131.038 80.6837L131.046 80.6847L131.049 80.685Z" fill="#0BD55A"/>
<path fill-rule="evenodd" clip-rule="evenodd" d="M126.996 81.4453V84.42C126.996 87.9123 124.165 90.7434 120.673 90.7434H117.086V88.6225H120.673C122.994 88.6225 124.875 86.741 124.875 84.42V81.4453H126.996Z" fill="#0BD55A"/>
<path fill-rule="evenodd" clip-rule="evenodd" d="M83.6953 89.8848H100.653C103.086 89.8848 105.463 90.6391 107.458 92.0372L107.46 92.0383L111.962 95.2047L110.742 96.9395L106.241 93.7742C106.241 93.774 106.241 93.7738 106.24 93.7736C104.599 92.6241 102.647 92.0057 100.653 92.0057H83.6953V89.8848Z" fill="#0BD55A"/>
<path d="M60.6719 79.9629H106.672V92.9629H60.6719V79.9629Z" fill="white"/>
<path fill-rule="evenodd" clip-rule="evenodd" d="M59.6719 80.0607C59.6719 79.4544 60.1478 78.9629 60.7349 78.9629H106.609C107.196 78.9629 107.672 79.4544 107.672 80.0607V92.8651C107.672 93.4714 107.196 93.9629 106.609 93.9629H60.7349C60.1478 93.9629 59.6719 93.4714 59.6719 92.8651V80.0607ZM61.7979 81.1585V91.7673H105.546V81.1585H61.7979Z" fill="#0BD55A"/>
<path d="M63.6719 88.864H64.6473V85.4671L66.058 88.864H66.9359L68.3466 85.4671V88.864H69.3221V84.0618H68.0164L66.4932 87.6846L64.9775 84.0618H63.6719V88.864Z" fill="#0BD55A"/>
<path d="M71.801 88.864H72.7764V86.8584L74.6899 84.0829V84.0618H73.5493L72.2887 85.9544L71.0281 84.0618H69.8876V84.0829L71.801 86.8584V88.864Z" fill="#0BD55A"/>
<path d="M76.6419 88.864H77.6174V86.8372H80.1461V88.864H81.1215V84.0618H80.1461V86.0392H77.6174V84.0618H76.6419V88.864Z" fill="#0BD55A"/>
<path d="M83.5986 88.864H84.574V86.8584L86.4874 84.0829V84.0618H85.3469L84.0863 85.9544L82.8257 84.0618H81.6852V84.0829L83.5986 86.8584V88.864Z" fill="#0BD55A"/>
<path d="M89.1673 88.864H90.1203V84.0618H89.4074L87.8842 84.8668L88.2369 85.566L89.1673 85.0858V88.864Z" fill="#0BD55A"/>
<path d="M90.9385 88.864H94.5402V88.0589H92.1991C92.6718 87.4304 94.4427 86.929 94.4427 85.5166C94.4427 84.6479 93.7974 83.9629 92.6493 83.9629C91.6363 83.9629 91.1411 84.5632 90.961 85.0575L91.6964 85.4389C91.8389 85.0363 92.1391 84.7962 92.6043 84.7962C93.2496 84.7962 93.4897 85.1635 93.4897 85.5731C93.4897 86.5194 91.5688 87.042 90.9385 88.179V88.864Z" fill="#0BD55A"/>
<path d="M96.7818 88.9629C97.9373 88.9629 98.8453 88.3979 98.8453 87.494C98.8453 86.929 98.5151 86.4841 97.9223 86.3005C98.3275 86.0745 98.5751 85.7002 98.5751 85.3118C98.5751 84.4643 97.9148 83.9629 96.8193 83.9629C96.0915 83.9629 95.5137 84.316 95.1835 84.7185L95.7538 85.2835C95.9489 85.0222 96.2715 84.7962 96.8193 84.7962C97.247 84.7962 97.5997 84.994 97.5997 85.3753C97.5997 85.6931 97.3521 85.9756 96.7968 85.9756H96.2941V86.7666H96.7968C97.5171 86.7666 97.8698 86.9996 97.8698 87.4163C97.8698 87.8753 97.4121 88.1296 96.7818 88.1296C96.1515 88.1296 95.7463 87.8188 95.4912 87.5363L94.9359 88.1578C95.2661 88.5109 95.8739 88.9629 96.7818 88.9629Z" fill="#0BD55A"/>
<path d="M99.2448 87.6635H101.879V88.864H102.824V87.6635H103.672V86.8654H102.824V84.0618H101.586L99.2448 87.0067V87.6635ZM100.43 86.8654L101.879 85.001V86.8654H100.43Z" fill="#0BD55A"/>
<g clip-path="url(#clip2_2381_33708)">
<path fill-rule="evenodd" clip-rule="evenodd" d="M88.4935 69.8914C88.4935 71.1261 86.6901 72.1387 84.4769 72.1387C82.2636 72.1387 80.459 71.1298 80.459 69.8914C80.459 68.653 82.2535 67.6328 84.4769 67.6328C86.7002 67.6328 88.4935 68.6417 88.4935 69.8914ZM84.2852 69.5774C84.6102 69.5035 84.9274 69.3984 85.2323 69.2634C86.0885 68.9292 86.4934 68.5849 86.5715 68.5068C86.68 68.3958 86.5993 68.3542 86.4984 68.3138C85.8415 68.1058 85.1558 68.0033 84.4668 68.0099C84.0569 68.02 83.8299 68.5143 83.7378 68.7287C83.3103 69.7313 84.0758 69.6304 84.2852 69.58V69.5774ZM81.6621 70.9949C81.6797 70.9546 82.3544 69.2029 83.1464 68.2508C83.246 68.1499 83.1376 68.1246 83.0102 68.16C81.6974 68.4437 80.7869 69.1121 80.7869 69.8814C80.7869 70.3064 81.0605 70.7011 81.5158 71.0164C81.5381 71.0324 81.5657 71.0392 81.593 71.0355C81.6202 71.0317 81.6449 71.0176 81.6621 70.9962V70.9949ZM84.6572 70.1941C84.332 70.2675 84.0147 70.3726 83.7101 70.5081C82.8538 70.8423 82.449 71.1967 82.3708 71.2774C82.2611 71.3783 82.3431 71.4287 82.444 71.459C83.1014 71.6659 83.7864 71.7717 84.4756 71.773C84.8855 71.7528 85.1125 71.2572 85.2133 71.0441C85.632 70.0415 84.8665 70.1538 84.6572 70.1941ZM88.1568 69.8914C88.1568 69.4665 87.8919 69.0818 87.4278 68.7678C87.4177 68.7578 87.4053 68.7503 87.3918 68.7458C87.3782 68.7413 87.3639 68.74 87.3497 68.742C87.3356 68.7439 87.3221 68.7491 87.3103 68.7571C87.2985 68.765 87.2886 68.7756 87.2815 68.788C87.2639 68.8182 86.5892 70.5699 85.7972 71.5221C85.7064 71.633 85.8061 71.6482 85.9334 71.6229C87.245 71.3291 88.1568 70.6607 88.1568 69.8914Z" fill="#0BD55A"/>
</g>
<g clip-path="url(#clip3_2381_33708)">
<path fill-rule="evenodd" clip-rule="evenodd" d="M129.817 39.054C131.15 37.9494 132.786 37.2763 134.51 37.1244C136.234 36.9726 137.962 37.3486 139.467 38.2027C140.881 38.9986 142.03 40.1915 142.774 41.6337C143.431 42.91 143.745 44.332 143.69 45.7603L156.159 52.9598C156.403 53.0919 156.615 53.2759 156.78 53.4988C156.948 53.7263 157.063 53.9887 157.117 54.2666C157.17 54.5446 157.161 54.8309 157.089 55.1048C157.025 55.3505 156.912 55.5805 156.757 55.7814L154.906 58.9886C154.779 59.2186 154.607 59.4209 154.4 59.5835C154.19 59.7486 153.949 59.8693 153.691 59.9384C153.433 60.0075 153.164 60.0235 152.9 59.9854C152.64 59.9479 152.39 59.8587 152.165 59.7231L139.691 52.5216C138.482 53.284 137.094 53.7231 135.66 53.7916C134.041 53.8689 132.436 53.471 131.041 52.6471C129.527 51.7921 128.318 50.4847 127.584 48.908C126.849 47.3285 126.627 45.5582 126.95 43.8461L127.169 42.6848L133.695 46.3534L135.315 43.5481L128.879 39.8322L129.817 39.054ZM131.948 39.6447L137.633 42.9271L134.326 48.6544L128.502 45.3806C128.501 46.3468 128.71 47.307 129.122 48.1919C129.708 49.4498 130.673 50.4924 131.882 51.1732L131.89 51.1778L131.898 51.1825C133.009 51.8405 134.289 52.1584 135.579 52.0968C136.868 52.0352 138.112 51.5968 139.155 50.8358L139.601 50.5105L153.03 58.2633L153.038 58.2687C153.07 58.288 153.105 58.3007 153.142 58.306C153.179 58.3113 153.216 58.3091 153.252 58.2994C153.288 58.2898 153.322 58.273 153.351 58.2501C153.38 58.2271 153.404 58.1985 153.422 58.1659L153.427 58.1568L155.358 54.8113L155.407 54.7534C155.426 54.7308 155.44 54.7042 155.448 54.6756C155.455 54.6469 155.456 54.617 155.451 54.5879C155.445 54.5588 155.433 54.5314 155.415 54.5076C155.398 54.4838 155.375 54.4642 155.349 54.4503L155.335 54.4432L141.903 46.688L141.962 46.1391C142.099 44.8551 141.857 43.5589 141.265 42.411C140.674 41.2631 139.759 40.3138 138.633 39.6806L138.63 39.6789C137.425 38.9944 136.04 38.6929 134.659 38.8146C133.703 38.8989 132.779 39.1836 131.948 39.6447Z" fill="#0BD55A"/>
</g>
</g>
<defs>
<clipPath id="clip0_2381_33708">
<rect width="290.903" height="95" fill="white" transform="translate(15.6719 21)"/>
</clipPath>
<clipPath id="clip1_2381_33708">
<rect width="8.03448" height="4.50592" fill="white" transform="translate(236.926 67.6309)"/>
</clipPath>
<clipPath id="clip2_2381_33708">
<rect width="8.03448" height="4.50592" fill="white" transform="translate(80.459 67.6309)"/>
</clipPath>
<clipPath id="clip3_2381_33708">
<rect width="27.8675" height="27.8675" fill="white" transform="translate(124.576 39.2129) rotate(-15)"/>
</clipPath>
</defs>
</svg>
