<svg width="25" height="24" viewBox="0 0 25 24" fill="none" xmlns="http://www.w3.org/2000/svg">
<g clip-path="url(#clip0_2738_23836)">
<path d="M6.88683 10C5.78355 10 4.88086 10.9 4.88086 12C4.88086 13.1 5.78355 14 6.88683 14C7.99012 14 8.8928 13.1 8.8928 12C8.8928 10.9 7.99012 10 6.88683 10ZM18.9227 10C17.8194 10 16.9167 10.9 16.9167 12C16.9167 13.1 17.8194 14 18.9227 14C20.0259 14 20.9286 13.1 20.9286 12C20.9286 10.9 20.0259 10 18.9227 10ZM12.9047 10C11.8015 10 10.8988 10.9 10.8988 12C10.8988 13.1 11.8015 14 12.9047 14C14.008 14 14.9107 13.1 14.9107 12C14.9107 10.9 14.008 10 12.9047 10Z" fill="white"/>
</g>
<defs>
<clipPath id="clip0_2738_23836">
<rect width="24.0717" height="24" fill="white" transform="translate(0.869141)"/>
</clipPath>
</defs>
</svg>
