<svg width="937" height="457" viewBox="0 0 937 457" fill="none" xmlns="http://www.w3.org/2000/svg">
<mask id="mask0_2381_33591" style="mask-type:alpha" maskUnits="userSpaceOnUse" x="-1" y="0" width="938" height="457">
<rect y="1" width="936" height="455" rx="60" fill="#002C5F" stroke="#EAEAEA" stroke-opacity="0.1" stroke-width="1.5"/>
</mask>
<g mask="url(#mask0_2381_33591)">
<path d="M534.06 257.658L753.224 145.453L972.388 257.658V481.868L753.224 594.073L534.06 481.868V257.658Z" fill="#1975FF" stroke="#002C5F" stroke-width="2"/>
<path d="M726.037 197.373V209.428C726.037 217.085 740.341 223.292 757.985 223.292C775.629 223.292 789.933 217.085 789.933 209.428V197.373" stroke="#002C5F" stroke-width="2"/>
<path d="M788.931 197.373C788.931 199.044 788.171 200.712 786.643 202.314C785.111 203.92 782.845 205.413 779.969 206.688C774.22 209.237 766.207 210.839 757.303 210.839C748.4 210.839 740.387 209.237 734.638 206.688C731.762 205.413 729.496 203.92 727.963 202.314C726.435 200.712 725.676 199.044 725.676 197.373C725.676 195.702 726.435 194.034 727.963 192.432C729.496 190.826 731.762 189.333 734.638 188.058C740.387 185.509 748.4 183.907 757.303 183.907C766.207 183.907 774.22 185.509 779.969 188.058C782.845 189.333 785.111 190.826 786.643 192.432C788.171 194.034 788.931 195.702 788.931 197.373Z" fill="#1975FF" stroke="#002C5F" stroke-width="2"/>
<path d="M828.674 252.827V264.882C828.674 272.539 842.977 278.745 860.622 278.745C878.266 278.745 892.57 272.539 892.57 264.882V252.827" stroke="#002C5F" stroke-width="2"/>
<path d="M892.251 252.827C892.251 254.498 891.492 256.166 889.964 257.767C888.431 259.374 886.166 260.867 883.29 262.142C877.54 264.691 869.527 266.293 860.624 266.293C851.72 266.293 843.707 264.691 837.958 262.142C835.082 260.867 832.816 259.374 831.284 257.767C829.756 256.166 828.996 254.498 828.996 252.827C828.996 251.155 829.756 249.488 831.284 247.886C832.816 246.279 835.082 244.787 837.958 243.512C843.707 240.962 851.72 239.36 860.624 239.36C869.527 239.36 877.54 240.962 883.29 243.512C886.166 244.787 888.431 246.279 889.964 247.886C891.492 249.488 892.251 251.155 892.251 252.827Z" fill="#1975FF" stroke="#002C5F" stroke-width="2"/>
<path d="M734.865 301.048V313.103C734.865 320.759 749.169 326.966 766.813 326.966C784.457 326.966 798.761 320.759 798.761 313.103V301.048" stroke="#002C5F" stroke-width="2"/>
<path d="M798.443 301.048C798.443 302.719 797.683 304.387 796.155 305.988C794.622 307.595 792.357 309.088 789.481 310.363C783.732 312.912 775.719 314.514 766.815 314.514C757.911 314.514 749.899 312.912 744.149 310.363C741.273 309.088 739.008 307.595 737.475 305.988C735.947 304.387 735.188 302.719 735.188 301.048C735.188 299.376 735.947 297.709 737.475 296.107C739.008 294.5 741.273 293.008 744.149 291.733C749.899 289.183 757.911 287.581 766.815 287.581C775.719 287.581 783.732 289.183 789.481 291.733C792.357 293.008 794.622 294.5 796.155 296.107C797.683 297.709 798.443 299.376 798.443 301.048Z" fill="#1975FF" stroke="#002C5F" stroke-width="2"/>
<path d="M622.031 241.978V254.033C622.031 261.69 636.335 267.897 653.979 267.897C671.623 267.897 685.927 261.69 685.927 254.033V241.978" stroke="#002C5F" stroke-width="2"/>
<path d="M685.609 241.978C685.609 243.649 684.849 245.317 683.321 246.919C681.788 248.525 679.523 250.018 676.647 251.293C670.898 253.842 662.885 255.444 653.981 255.444C645.077 255.444 637.065 253.842 631.315 251.293C628.439 250.018 626.174 248.525 624.641 246.919C623.113 245.317 622.354 243.649 622.354 241.978C622.354 240.307 623.113 238.639 624.641 237.037C626.174 235.431 628.439 233.938 631.315 232.663C637.065 230.114 645.077 228.512 653.981 228.512C662.885 228.512 670.898 230.114 676.647 232.663C679.523 233.938 681.788 235.431 683.321 237.037C684.849 238.639 685.609 240.307 685.609 241.978Z" fill="#1975FF" stroke="#002C5F" stroke-width="2"/>
<path d="M973.389 257.649L753.225 370.366L533.061 257.649" stroke="#002C5F" stroke-width="2"/>
<path d="M534.06 -119.672L753.224 -231.877L972.388 -119.672V104.539L753.224 216.743L534.06 104.539V-119.672Z" fill="#1975FF" stroke="#002C5F" stroke-width="2"/>
<line x1="754.223" y1="369.763" x2="754.223" y2="463.794" stroke="#002C5F" stroke-width="2"/>
</g>
</svg>
