<svg width="16" height="16" viewBox="0 0 16 16" fill="none" xmlns="http://www.w3.org/2000/svg">
<g clip-path="url(#clip0_2738_21721)">
<path d="M12.6133 4.00659C12.48 3.61325 12.1067 3.33325 11.6667 3.33325H4.33333C3.89333 3.33325 3.52667 3.61325 3.38667 4.00659L2 7.99992V13.3333C2 13.6999 2.3 13.9999 2.66667 13.9999H3.33333C3.7 13.9999 4 13.6999 4 13.3333V12.6666H12V13.3333C12 13.6999 12.3 13.9999 12.6667 13.9999H13.3333C13.7 13.9999 14 13.6999 14 13.3333V7.99992L12.6133 4.00659ZM4.33333 10.6666C3.78 10.6666 3.33333 10.2199 3.33333 9.66659C3.33333 9.11325 3.78 8.66659 4.33333 8.66659C4.88667 8.66659 5.33333 9.11325 5.33333 9.66659C5.33333 10.2199 4.88667 10.6666 4.33333 10.6666ZM11.6667 10.6666C11.1133 10.6666 10.6667 10.2199 10.6667 9.66659C10.6667 9.11325 11.1133 8.66659 11.6667 8.66659C12.22 8.66659 12.6667 9.11325 12.6667 9.66659C12.6667 10.2199 12.22 10.6666 11.6667 10.6666ZM3.33333 7.33325L4.33333 4.33325H11.6667L12.6667 7.33325H3.33333Z" fill="#CCCCCC"/>
</g>
<defs>
<clipPath id="clip0_2738_21721">
<rect width="16" height="16" fill="white"/>
</clipPath>
</defs>
</svg>
