<svg width="29" height="14" viewBox="0 0 29 14" fill="none" xmlns="http://www.w3.org/2000/svg">
<path fill-rule="evenodd" clip-rule="evenodd" d="M19.5119 0.99707H7.47439C6.5585 0.99707 5.84533 0.99707 5.27051 1.03629C4.68722 1.07609 4.20971 1.15793 3.77109 1.33961C2.66846 1.79634 1.79243 2.67237 1.33571 3.77499C1.15402 4.21362 1.07218 4.69113 1.03238 5.27441C0.993164 5.84924 0.993164 6.56218 0.993164 7.47807V7.51584C0.993164 8.43174 0.993164 9.1449 1.03238 9.71973C1.07218 10.303 1.15402 10.7805 1.33571 11.2191C1.79243 12.3218 2.66846 13.1978 3.77109 13.6545C4.20971 13.8362 4.68722 13.9181 5.27051 13.9579C5.84538 13.9971 6.55839 13.9971 7.47439 13.9971H19.5119C20.4279 13.9971 21.1409 13.9971 21.7158 13.9579C22.2991 13.9181 22.7766 13.8362 23.2152 13.6545C24.3179 13.1978 25.1939 12.3218 25.6506 11.2191C25.8323 10.7805 25.9141 10.303 25.9539 9.71973C25.9932 9.14486 25.9932 8.43186 25.9932 7.51588V7.4783C25.9932 6.56231 25.9932 5.84928 25.9539 5.27441C25.9141 4.69113 25.8323 4.21362 25.6506 3.77499C25.1939 2.67237 24.3179 1.79634 23.2152 1.33961C22.7766 1.15793 22.2991 1.07609 21.7158 1.03629C21.141 0.99707 20.4278 0.99707 19.5119 0.99707ZM4.15377 2.26349C4.45024 2.14069 4.80621 2.07029 5.33858 2.03397C5.87544 1.99734 6.55444 1.99707 7.49316 1.99707H19.4932C20.4319 1.99707 21.1109 1.99734 21.6478 2.03397C22.1801 2.07029 22.5361 2.14069 22.8326 2.26349C23.6902 2.61872 24.3715 3.30008 24.7267 4.15768C24.8495 4.45414 24.9199 4.81011 24.9563 5.34248C24.9929 5.87934 24.9932 6.55835 24.9932 7.49707C24.9932 8.43579 24.9929 9.1148 24.9563 9.65166C24.9199 10.184 24.8495 10.54 24.7267 10.8365C24.3715 11.6941 23.6902 12.3754 22.8326 12.7306C22.5361 12.8534 22.1801 12.9238 21.6478 12.9602C21.1109 12.9968 20.4319 12.9971 19.4932 12.9971H7.49316C6.55444 12.9971 5.87544 12.9968 5.33858 12.9602C4.80621 12.9238 4.45024 12.8534 4.15377 12.7306C3.29617 12.3754 2.61481 11.6941 2.25959 10.8365C2.13679 10.54 2.06639 10.184 2.03006 9.65166C1.99343 9.1148 1.99316 8.43579 1.99316 7.49707C1.99316 6.55835 1.99343 5.87934 2.03006 5.34248C2.06639 4.81011 2.13679 4.45414 2.25959 4.15768C2.61481 3.30008 3.29617 2.61872 4.15377 2.26349Z" fill="white" fill-opacity="0.4"/>
<path d="M26.9932 5.49634C27.7761 5.82286 28.3265 6.59563 28.3265 7.49695C28.3265 8.39827 27.7761 9.17104 26.9932 9.49756V5.49634Z" fill="white" fill-opacity="0.4"/>
</svg>
