<svg width="345" height="223" viewBox="0 0 345 223" fill="none" xmlns="http://www.w3.org/2000/svg">
<g clip-path="url(#clip0_2381_33823)">
<path d="M275.07 21.085C276.153 22.4755 290.044 47.0239 320.932 47.0239C356.659 47.0239 369.298 15.787 369.611 14.8521C370.381 14.9959 386.92 19.8145 403.773 31.3215C418.602 41.582 433.408 52.2979 433.408 68.5996C433.408 84.9013 423.899 89.0966 423.899 107.915C423.899 126.734 433.721 132.775 433.721 147.687C433.721 162.598 419.999 173.002 403.147 184.965C383.357 198.821 352.614 210.017 323.436 210.017C276.635 210.017 251.814 179.715 251.814 149.892C251.814 134.046 262.262 120.837 262.262 110.888C262.262 100.939 251.188 86.6513 251.188 68.6236C251.188 61.7913 251.814 37.2429 275.07 21.085ZM231.375 77.182C222.491 69.7263 210.165 64.4523 197.839 64.4523C196.13 64.4523 194.396 64.5961 193 64.9078C193.457 77.0381 201.113 91.4699 211.249 100.172C219.049 107.004 231.375 113.381 243.869 113.381C245.747 113.381 247.625 113.07 248.227 112.926C248.371 112.159 248.54 110.912 248.54 109.665C248.54 98.7817 241.221 85.0931 231.375 77.182Z" fill="black"/>
</g>
<path d="M86.9527 164.925L117.833 182.154C119.498 183.076 121.603 182.477 122.518 180.801C122.804 180.262 122.946 179.688 122.946 179.125C122.946 177.904 122.304 176.718 121.175 176.084L89.961 158.663C96.2513 144.391 99.771 128.394 99.771 111.512C99.771 94.63 96.2513 78.6218 89.9611 64.3617L121.175 46.9167C122.839 45.9828 123.446 43.8755 122.518 42.1992C121.591 40.523 119.498 39.9124 117.833 40.8463L86.9527 58.0757C69.8416 24.9578 37.32 2.59183 0.00636292 2.54394L0.00635339 220.457C37.32 220.409 69.8416 198.031 86.9527 164.925ZM39.6031 61.2127C39.6031 56.1959 43.6579 52.1131 48.6402 52.1131C53.6224 52.1131 57.6772 56.1959 57.6772 61.2127C57.6772 66.2295 53.6224 70.3124 48.6402 70.3124C43.6579 70.3124 39.6031 66.2295 39.6031 61.2127ZM39.6031 161.788C39.6031 156.771 43.6579 152.688 48.6402 152.688C53.6224 152.688 57.6772 156.771 57.6772 161.788C57.6772 166.805 53.6224 170.887 48.6402 170.887C43.6579 170.887 39.6031 166.805 39.6031 161.788Z" fill="#79C257"/>
<defs>
<clipPath id="clip0_2381_33823">
<rect width="223" height="155" fill="white" transform="translate(190 223) rotate(-90)"/>
</clipPath>
</defs>
</svg>
