<svg width="345" height="620" viewBox="0 0 345 620" fill="none" xmlns="http://www.w3.org/2000/svg">
<mask id="mask0_2381_33844" style="mask-type:alpha" maskUnits="userSpaceOnUse" x="0" y="0" width="345" height="620">
<rect width="345" height="620" rx="30" fill="#1975FF"/>
<rect x="0.75" y="0.75" width="343.5" height="618.5" rx="29.25" stroke="#EAEAEA" stroke-opacity="0.1" stroke-width="1.5"/>
</mask>
<g mask="url(#mask0_2381_33844)">
<path d="M104.374 164.524L248 90.9921L391.626 164.524V311.389L248 384.92L104.374 311.389V164.524Z" fill="#1975FF" stroke="#002C5F" stroke-width="2"/>
<path d="M230.143 124.713V132.632C230.143 137.662 239.539 141.739 251.129 141.739C262.72 141.739 272.116 137.662 272.116 132.632V124.713" stroke="#002C5F" stroke-width="2"/>
<path d="M271.114 124.713C271.114 125.699 270.668 126.714 269.706 127.722C268.74 128.735 267.294 129.692 265.431 130.518C261.708 132.169 256.494 133.216 250.681 133.216C244.869 133.216 239.655 132.169 235.931 130.518C234.068 129.692 232.622 128.735 231.656 127.722C230.695 126.714 230.248 125.699 230.248 124.713C230.248 123.727 230.695 122.712 231.656 121.704C232.622 120.691 234.068 119.734 235.931 118.907C239.655 117.257 244.869 116.21 250.681 116.21C256.494 116.21 261.708 117.257 265.431 118.907C267.294 119.734 268.74 120.691 269.706 121.704C270.668 122.712 271.114 123.727 271.114 124.713Z" fill="#1975FF" stroke="#002C5F" stroke-width="2"/>
<path d="M297.562 161.14V169.06C297.562 174.089 306.959 178.166 318.549 178.166C330.14 178.166 339.536 174.089 339.536 169.06V161.14" stroke="#002C5F" stroke-width="2"/>
<path d="M338.983 161.14C338.983 162.126 338.537 163.141 337.576 164.149C336.609 165.162 335.164 166.12 333.301 166.946C329.577 168.597 324.363 169.643 318.55 169.643C312.738 169.643 307.524 168.597 303.8 166.946C301.937 166.12 300.491 165.162 299.525 164.149C298.564 163.141 298.117 162.126 298.117 161.14C298.117 160.155 298.564 159.14 299.525 158.132C300.491 157.119 301.937 156.161 303.8 155.335C307.524 153.684 312.738 152.637 318.55 152.637C324.363 152.637 329.577 153.684 333.301 155.335C335.164 156.161 336.609 157.119 337.576 158.132C338.537 159.14 338.983 160.155 338.983 161.14Z" fill="#1975FF" stroke="#002C5F" stroke-width="2"/>
<path d="M235.939 192.817V200.737C235.939 205.766 245.335 209.843 256.926 209.843C268.517 209.843 277.913 205.766 277.913 200.737V192.817" stroke="#002C5F" stroke-width="2"/>
<path d="M277.36 192.817C277.36 193.803 276.914 194.818 275.953 195.826C274.986 196.839 273.541 197.797 271.678 198.623C267.954 200.274 262.74 201.32 256.927 201.32C251.115 201.32 245.901 200.274 242.177 198.623C240.314 197.797 238.868 196.839 237.902 195.826C236.941 194.818 236.494 193.803 236.494 192.817C236.494 191.832 236.941 190.817 237.902 189.809C238.868 188.796 240.314 187.838 242.177 187.012C245.901 185.361 251.115 184.314 256.927 184.314C262.74 184.314 267.954 185.361 271.678 187.012C273.541 187.838 274.986 188.796 275.953 189.809C276.914 190.817 277.36 191.832 277.36 192.817Z" fill="#1975FF" stroke="#002C5F" stroke-width="2"/>
<path d="M161.818 154.014V161.933C161.818 166.962 171.214 171.04 182.805 171.04C194.396 171.04 203.792 166.962 203.792 161.933V154.014" stroke="#002C5F" stroke-width="2"/>
<path d="M203.239 154.014C203.239 155 202.793 156.015 201.831 157.022C200.865 158.035 199.419 158.993 197.556 159.819C193.833 161.47 188.619 162.517 182.806 162.517C176.994 162.517 171.78 161.47 168.056 159.819C166.193 158.993 164.747 158.035 163.781 157.022C162.82 156.015 162.373 155 162.373 154.014C162.373 153.028 162.82 152.013 163.781 151.005C164.747 149.992 166.193 149.034 168.056 148.208C171.78 146.557 176.994 145.511 182.806 145.511C188.619 145.511 193.833 146.557 197.556 148.208C199.419 149.034 200.865 149.992 201.831 151.005C202.793 152.013 203.239 153.028 203.239 154.014Z" fill="#1975FF" stroke="#002C5F" stroke-width="2"/>
<path d="M392.628 164.309L248.001 238.352L103.375 164.309" stroke="#002C5F" stroke-width="2"/>
<path d="M104.374 -83.3447L248 -156.877L391.626 -83.3447V63.5199L248 137.052L104.374 63.5199V-83.3447Z" fill="#1975FF" stroke="#002C5F" stroke-width="2"/>
<line x1="249" y1="238" x2="249" y2="386" stroke="#002C5F" stroke-width="2"/>
</g>
</svg>
