<svg width="18" height="13" viewBox="0 0 18 13" fill="none" xmlns="http://www.w3.org/2000/svg">
<path fill-rule="evenodd" clip-rule="evenodd" d="M9.16355 2.89149C11.6301 2.8916 14.0023 3.84925 15.79 5.56651C15.9246 5.69909 16.1397 5.69742 16.2723 5.56276L17.5591 4.25056C17.6262 4.18226 17.6636 4.08975 17.6631 3.99349C17.6625 3.89724 17.624 3.80518 17.5561 3.73768C12.8642 -0.805788 5.46216 -0.805788 0.770249 3.73768C0.702283 3.80512 0.66372 3.89716 0.663094 3.99342C0.662467 4.08967 0.699828 4.18221 0.766909 4.25056L2.05405 5.56276C2.18654 5.69762 2.40187 5.6993 2.5364 5.56651C4.32424 3.84914 6.69675 2.89149 9.16355 2.89149ZM9.16358 7.16057C10.5188 7.16049 11.8256 7.66947 12.8302 8.58863C12.9661 8.71907 13.1801 8.71625 13.3125 8.58225L14.5978 7.27005C14.6655 7.20122 14.7031 7.10785 14.7021 7.01082C14.7011 6.9138 14.6617 6.82121 14.5926 6.75379C11.5336 3.87851 6.79619 3.87851 3.73711 6.75379C3.66801 6.82121 3.62859 6.91384 3.62768 7.0109C3.62677 7.10796 3.66446 7.20132 3.73229 7.27005L5.0172 8.58225C5.14965 8.71625 5.36368 8.71907 5.49955 8.58863C6.50345 7.67008 7.80926 7.16114 9.16358 7.16057ZM11.7382 10.0328C11.7402 10.1301 11.7023 10.2239 11.6336 10.2921L9.41029 12.5592C9.34512 12.6259 9.25626 12.6634 9.16355 12.6634C9.07084 12.6634 8.98198 12.6259 8.91681 12.5592L6.69317 10.2921C6.62447 10.2239 6.58669 10.1301 6.58872 10.0328C6.59076 9.93546 6.63244 9.84332 6.70393 9.7781C8.12379 8.56463 10.2033 8.56463 11.6232 9.7781C11.6946 9.84338 11.7362 9.93554 11.7382 10.0328Z" fill="white"/>
</svg>
