<svg width="260" height="36" viewBox="0 0 260 36" fill="none" xmlns="http://www.w3.org/2000/svg">
<g clip-path="url(#clip0_1939_35813)">
<path d="M100.342 5.08594V14.8533H89.2899V5.08594H83.2031V30.7204H89.2899V20.4206H100.342V30.7204H106.442V5.08594H106.127H100.342Z" fill="black"/>
<path d="M128.777 5.08594L122.401 15.2411L116.039 5.08594H108.844L119.371 21.8469V30.7204H125.451V21.8469L135.965 5.08594H135.401H128.777Z" fill="black"/>
<path d="M155.558 5.08594V23.8846C155.558 24.5944 155.02 25.1663 154.266 25.1663H144.5V5.08594H138.406V30.7204H156.411C158.005 30.7204 159.297 30.2472 160.235 29.3204C161.166 28.3804 161.638 27.0856 161.638 25.4883V5.08594H155.558Z" fill="black"/>
<path d="M185.285 5.08594H167.273V30.7204H173.36V10.6335H183.127C183.914 10.6335 184.419 11.2514 184.419 11.9152V30.7204H190.499V10.3377C190.499 8.72735 190.033 7.43905 189.102 6.49912C188.157 5.56576 186.872 5.08594 185.278 5.08594H185.285Z" fill="black"/>
<path d="M214.153 5.08594H196.148V30.7204H214.153C215.753 30.7204 217.032 30.2472 217.977 29.3204C218.908 28.3804 219.381 27.0921 219.381 25.4883V10.3377C219.381 8.72735 218.908 7.43905 217.97 6.49912C217.026 5.56576 215.747 5.08594 214.153 5.08594ZM213.3 11.9612V23.8451C213.3 24.5418 212.789 25.1663 211.995 25.1663H202.235V10.6335H211.962C212.749 10.6335 213.3 11.1988 213.3 11.9612Z" fill="black"/>
<path d="M229.987 5.08594C228.386 5.08594 227.107 5.56576 226.169 6.49912C225.231 7.43905 224.766 8.72735 224.766 10.3377V30.727H230.833V22.8H241.898V30.727H247.978V5.08594H229.98H229.987ZM241.898 10.6335V17.2393H230.833V11.9349C230.833 11.3105 231.331 10.6335 232.138 10.6335H241.898Z" fill="black"/>
<path d="M260.001 5.08594H253.914V30.7204H260.001V5.08594Z" fill="black"/>
<path d="M35.1302 36C54.5383 36 70.2669 27.9416 70.2669 18.0033C70.2669 8.065 54.5383 0 35.1302 0C15.722 0 0 8.05843 0 18.0033C0 27.9481 15.7351 36 35.1302 36ZM41.7417 27.1791C41.171 28.5266 40.1478 31.4318 37.8391 32.5952C37.1438 32.937 36.2714 33.1079 35.4844 33.1211C35.3138 33.1342 35.1958 33.1211 35.1367 33.1211C28.781 33.1211 22.8385 32.26 17.8471 30.7811C17.4798 30.6759 16.6665 30.4722 16.6665 29.9726C16.6665 29.7491 16.7846 29.5717 16.9551 29.4073C17.0272 29.335 17.1322 29.2496 17.2699 29.1313C18.4309 28.1519 21.9596 25.6016 28.5711 23.0776C30.893 22.1903 33.7921 21.0794 36.829 20.4418C38.6261 20.0606 45.2376 19.0615 41.7351 27.1857M59.4904 9.04437C59.615 8.81431 59.7856 8.63684 60.0807 8.6237C60.2447 8.59741 60.4611 8.64999 60.8022 8.85375C64.9344 11.4041 67.3809 14.5656 67.3809 18.0033C67.3809 24.2147 59.4117 29.5454 47.999 31.8853C47.2644 32.0299 46.7856 32.0299 46.615 31.8328C46.5101 31.7144 46.4773 31.5173 46.615 31.2806C46.6872 31.1426 46.7659 31.0374 46.9167 30.8665C53.1282 23.5311 57.8638 12.7318 59.2018 9.59649C59.2936 9.39273 59.4051 9.1824 59.4904 9.05094M28.6236 8.80774C29.2008 7.46029 30.2175 4.54848 32.5328 3.39164C33.2281 3.04327 34.107 2.88552 34.8744 2.85923H35.2351C41.6039 2.85923 47.5333 3.72686 52.5378 5.23206C52.8986 5.3438 53.6988 5.48841 53.6988 6.00767C53.6988 6.23772 53.5676 6.42176 53.4036 6.57951C53.3315 6.65839 53.2331 6.75041 53.0822 6.86215C51.9213 7.84152 48.4057 10.3852 41.7941 12.9093C39.4722 13.8163 36.5535 14.9074 33.5298 15.5582C31.7392 15.9328 25.1276 16.9385 28.6236 8.81431M22.2679 4.14753C23.0091 3.99635 23.5666 3.99635 23.7371 4.19354C23.8421 4.30528 23.8814 4.50246 23.7371 4.74566C23.6519 4.87712 23.5797 4.98886 23.4354 5.16633C17.2175 12.4952 12.495 23.3011 11.1504 26.4167C11.0454 26.6401 10.947 26.857 10.8683 26.9951C10.724 27.2186 10.5666 27.3829 10.2649 27.4092C10.114 27.4092 9.88446 27.3763 9.53683 27.166C5.42432 24.6288 2.87286 21.4541 2.87286 18.023C2.87286 11.8181 10.8618 6.46777 22.2614 4.14753" fill="black"/>
</g>
<defs>
<clipPath id="clip0_1939_35813">
<rect width="260" height="36" fill="white"/>
</clipPath>
</defs>
</svg>
