<svg width="25" height="24" viewBox="0 0 25 24" fill="none" xmlns="http://www.w3.org/2000/svg">
<g opacity="0.4">
<path d="M17.2524 22.5962C17.2591 23.2586 16.7239 23.7992 16.0614 23.7992H8.89448C8.23972 23.7992 7.7077 23.2708 7.70333 22.6161L7.6875 20.2495C7.6875 18.9392 8.74765 17.8672 10.0699 17.8672H14.8465C16.1568 17.8672 17.2169 18.9273 17.2289 20.2376L17.2524 22.5962Z" fill="white"/>
<path d="M20.2192 9.52816V12.113C20.2192 12.7444 20.4694 13.3519 20.922 13.8045L21.8988 14.7813C22.3514 15.2339 22.6016 15.8414 22.6016 16.4727V17.8664C22.6016 20.6074 21.5189 22.6235 19.1539 23.4246C18.7952 23.5462 18.443 23.2628 18.4417 22.884L18.4324 20.2249C18.4086 18.2714 16.8005 16.6752 14.8589 16.6752H10.0823C8.10494 16.6752 6.50877 18.2833 6.50877 20.2488V22.8981C6.50877 23.2763 6.15891 23.5607 5.7999 23.442C3.40694 22.6501 2.35156 20.6216 2.35156 17.8664V5.95463C2.35156 3.08861 3.48531 0.991927 6.09809 0.280473C6.45611 0.182975 6.78977 0.470716 6.78444 0.84172L6.747 3.45316C6.73509 4.01301 6.93759 4.54904 7.31877 4.95404C7.71186 5.35904 8.22406 5.58535 8.83156 5.59728C9.44403 5.59728 9.98942 5.34384 10.3616 4.93134C10.4953 4.78318 10.7513 4.77721 10.8923 4.91831C11.2735 5.32331 11.7976 5.56153 12.4051 5.57344C13.0177 5.57344 13.5766 5.30418 13.9579 4.87074C14.0832 4.72831 14.3398 4.71695 14.4658 4.85875C14.847 5.26374 15.3711 5.50198 15.9786 5.5139C17.1221 5.5139 18.0394 4.6205 18.0632 3.46506L18.1105 0.816657C18.1169 0.454182 18.4451 0.179056 18.7954 0.272182C21.4207 0.969938 22.6016 3.08054 22.6016 5.95463V7.14581C22.6016 7.80095 22.0655 8.33698 21.4104 8.33698C20.7552 8.33698 20.2192 8.87301 20.2192 9.52816Z" fill="white"/>
<path d="M9.17446 0.00391891C9.50882 0.00176288 9.77944 0.275233 9.7738 0.609561L9.72453 3.52587C9.71262 4.01425 9.31953 4.40734 8.83115 4.40734H8.81925C8.31895 4.39543 7.92585 3.99043 7.93776 3.49013V0.603652C7.93776 0.276222 8.20209 0.0101964 8.52952 0.00807608L9.17446 0.00391891Z" fill="white"/>
<path d="M12.7564 0C13.0893 0 13.3576 0.272851 13.352 0.605678L13.3027 3.51397C13.2907 3.99044 12.8977 4.38353 12.4093 4.38353H12.3974C11.8971 4.37162 11.504 3.96662 11.5159 3.47824V0.595588C11.5159 0.266657 11.7825 0 12.1115 0H12.7564Z" fill="white"/>
<path d="M16.3303 0.00798039C16.6618 0.010065 16.9278 0.282439 16.922 0.613896L16.873 3.44237C16.8611 3.93075 16.468 4.32384 15.9796 4.32384H15.9677C15.4674 4.31193 15.0743 3.90693 15.0862 3.41854V0.599495C15.0862 0.269098 15.3552 0.0018338 15.6855 0.00391836L16.3303 0.00798039Z" fill="white"/>
</g>
</svg>
