<svg width="100" height="100" viewBox="0 0 100 100" fill="none" xmlns="http://www.w3.org/2000/svg">
<circle cx="46.5253" cy="45.0371" r="24.5488" fill="url(#paint0_linear_1939_35867)"/>
<circle cx="74.0446" cy="59.1696" r="19.3415" fill="url(#paint1_linear_1939_35867)"/>
<circle cx="21.2313" cy="62.8876" r="15.622" fill="url(#paint2_linear_1939_35867)"/>
<path d="M1.5 62.7683C1.5 73.1051 9.73401 81.5 19.9098 81.5H75.1967C87.5228 81.5 97.5 71.3306 97.5 58.8049C97.5 46.2791 87.5228 36.1098 75.1967 36.1098C74.5035 36.1098 73.8171 36.142 73.1392 36.2052C69.8988 24.2723 59.155 15.5 46.3852 15.5C31.0487 15.5 18.6311 28.1537 18.6311 43.7439C18.6311 43.8564 18.6318 43.9687 18.6331 44.0809C9.05364 44.7486 1.5 52.8674 1.5 62.7683Z" stroke="url(#paint3_linear_1939_35867)"/>
<defs>
<linearGradient id="paint0_linear_1939_35867" x1="21.9766" y1="20.4883" x2="60.6595" y2="52.4761" gradientUnits="userSpaceOnUse">
<stop stop-color="white"/>
<stop offset="1" stop-color="white" stop-opacity="0"/>
</linearGradient>
<linearGradient id="paint1_linear_1939_35867" x1="103.801" y1="25.694" x2="58.9961" y2="67.498" gradientUnits="userSpaceOnUse">
<stop stop-color="white"/>
<stop offset="1" stop-color="white" stop-opacity="0"/>
</linearGradient>
<linearGradient id="paint2_linear_1939_35867" x1="-12.2443" y1="63.6315" x2="37" y2="62.998" gradientUnits="userSpaceOnUse">
<stop stop-color="white"/>
<stop offset="1" stop-color="white" stop-opacity="0"/>
</linearGradient>
<linearGradient id="paint3_linear_1939_35867" x1="25.3607" y1="3.31707" x2="69.4641" y2="97.8439" gradientUnits="userSpaceOnUse">
<stop stop-color="white"/>
<stop offset="1" stop-color="white" stop-opacity="0"/>
</linearGradient>
</defs>
</svg>
