<svg width="200" height="22" viewBox="0 0 200 22" fill="none" xmlns="http://www.w3.org/2000/svg">
<g clip-path="url(#clip0_1993_1372)">
<path d="M35.6718 4.71094C30.8235 4.71094 26.8906 8.58059 26.8906 13.3564C26.8906 18.1321 30.8235 21.9991 35.6718 21.9991C40.5202 21.9991 44.453 18.1295 44.453 13.3564C44.453 8.58326 40.523 4.71094 35.6718 4.71094ZM35.6718 18.6278C32.7131 18.6278 30.3155 16.2666 30.3155 13.3564C30.3155 10.4461 32.7131 8.08223 35.6718 8.08223C38.6305 8.08223 41.0282 10.4435 41.0282 13.3564C41.0282 16.2693 38.6305 18.6278 35.6718 18.6278Z" fill="white"/>
<path d="M157.32 4.71094C152.469 4.71094 148.539 8.58059 148.539 13.3564C148.539 18.1321 152.472 21.9991 157.32 21.9991C162.169 21.9991 166.101 18.1295 166.101 13.3564C166.101 8.58326 162.169 4.71094 157.32 4.71094ZM157.32 18.6278C154.362 18.6278 151.964 16.2666 151.964 13.3564C151.964 10.4461 154.362 8.08223 157.32 8.08223C160.279 8.08223 162.677 10.4435 162.677 13.3564C162.677 16.2693 160.279 18.6278 157.32 18.6278Z" fill="white"/>
<path d="M83.8866 0H81.6508C81.207 0 80.8469 0.346457 80.8469 0.767535V6.66796C79.3313 5.4447 77.3942 4.70915 75.2812 4.70915C70.43 4.70915 66.5 8.5788 66.5 13.3546C66.5 18.1303 70.4328 21.9973 75.2812 21.9973C77.3942 21.9973 79.3313 21.2618 80.8469 20.0385V20.7448C80.8469 21.1685 81.2098 21.5123 81.6508 21.5123H83.8866C84.3304 21.5123 84.6904 21.1658 84.6904 20.7448V0.767535C84.6904 0.346457 84.3276 0 83.8866 0ZM75.2812 18.6287C72.3225 18.6287 69.9248 16.2675 69.9248 13.3572C69.9248 10.447 72.3225 8.0831 75.2812 8.0831C78.2399 8.0831 80.6376 10.4443 80.6376 13.3572C80.6376 16.2701 78.2399 18.6287 75.2812 18.6287Z" fill="white"/>
<path d="M191.219 4.7136C186.368 4.7136 182.438 8.58326 182.438 13.359C182.438 18.1348 186.37 22.0018 191.219 22.0018C194.708 22.0018 197.722 19.9977 199.137 17.0954C199.257 16.8476 199.302 16.3119 198.783 16.3119H196.29C195.626 16.3119 195.302 16.7676 195.107 16.9728C194.133 17.9936 192.751 18.6305 191.216 18.6305C188.681 18.6305 186.563 16.8956 186.005 14.5663H198.9C199.86 14.5663 199.983 13.9667 199.997 13.3564C199.997 8.58326 196.064 4.71094 191.216 4.71094L191.219 4.7136ZM186.22 11.4748C186.99 9.4947 188.935 8.08489 191.219 8.08489C193.502 8.08489 195.447 9.4947 196.218 11.4748H186.22Z" fill="white"/>
<path d="M96.3281 4.7136C91.4769 4.7136 87.5469 8.58326 87.5469 13.359C87.5469 18.1348 91.4797 22.0018 96.3281 22.0018C99.8171 22.0018 102.832 19.9977 104.247 17.0954C104.367 16.8476 104.411 16.3119 103.892 16.3119H101.4C100.735 16.3119 100.412 16.7676 100.216 16.9728C99.2421 17.9936 97.8605 18.6305 96.3253 18.6305C93.7909 18.6305 91.6723 16.8956 91.1141 14.5663H104.01C104.97 14.5663 105.093 13.9667 105.107 13.3564C105.107 8.58326 101.174 4.71094 96.3253 4.71094L96.3281 4.7136ZM91.329 11.4748C92.0994 9.4947 94.0449 8.08489 96.3281 8.08489C98.6113 8.08489 100.557 9.4947 101.327 11.4748H91.329Z" fill="white"/>
<path d="M63.6128 9.99088C63.4453 9.12474 63.1494 8.39718 62.7224 7.81353C62.1697 7.05932 60.3861 5.10584 56.7966 4.75406C55.4428 4.6208 54.1784 4.92462 53.0117 5.42032C52.3948 5.68149 51.63 6.25981 51.0466 6.96605V5.70281C51.0466 5.27907 50.6838 4.93528 50.2428 4.93528H48.007C47.566 4.93528 47.2031 5.28174 47.2031 5.70281V20.747C47.2031 21.1708 47.566 21.5146 48.007 21.5146H50.2428C50.6866 21.5146 51.0466 21.1681 51.0466 20.747V12.3041L51.0578 12.512C51.0578 10.2227 53.4387 8.3652 55.8392 8.3652C58.2396 8.3652 59.9451 10.2227 59.9451 12.512V20.747C59.9451 21.1708 60.3079 21.5146 60.749 21.5146H62.9847C63.4285 21.5146 63.7886 21.1681 63.7886 20.747V12.5147C63.7886 12.5147 63.7886 12.5094 63.7886 12.5067C63.783 11.2088 63.7244 10.5879 63.6128 9.99355V9.99088Z" fill="white"/>
<path d="M116.722 4.75781C115.681 4.80845 114.698 5.02965 113.775 5.42141C113.158 5.68259 112.393 6.2609 111.812 6.96447V5.70391C111.812 5.28016 111.449 4.93637 111.008 4.93637H108.773C108.332 4.93637 107.969 5.28283 107.969 5.70391V20.7481C107.969 21.1719 108.332 21.5157 108.773 21.5157H111.008C111.452 21.5157 111.812 21.1692 111.812 20.7481V12.3372L111.821 12.5131C111.821 10.2238 114.204 8.36629 116.602 8.36629C116.943 8.36629 117.562 8.50487 117.562 7.97186V5.37344C117.562 4.74982 116.811 4.75515 116.719 4.76048L116.722 4.75781Z" fill="white"/>
<path d="M135.44 12.144C135.44 9.79075 137.053 8.36228 139.083 8.36228C141.112 8.36228 142.376 10.0599 142.376 12.3519V20.5869C142.376 21.0106 142.739 21.3544 143.18 21.3544H145.539C145.913 21.3544 146.22 21.0079 146.22 20.5869V12.1067C146.22 12.1067 146.22 12.0934 146.22 12.088C146.211 10.9634 146.161 10.3851 146.072 9.83072C145.93 8.96458 145.678 8.23702 145.318 7.65338C144.849 6.89917 143.68 4.5939 139.024 4.5939C136.459 4.5939 134.907 5.74787 133.983 7.13103C133.274 6.23291 131.814 4.88172 129.338 4.5939C128.194 4.46065 127.122 4.76446 126.134 5.26016C125.802 5.42539 125.422 5.71855 125.062 6.08899V5.54266C125.062 5.11891 124.699 4.77512 124.258 4.77512H121.9C121.526 4.77512 121.219 5.12158 121.219 5.54266V20.5869C121.219 21.0106 121.526 21.3544 121.9 21.3544H124.258C124.702 21.3544 125.062 21.0079 125.062 20.5869V11.3285C125.062 9.22043 127.161 8.20504 128.526 8.20504C130.555 8.20504 132.001 10.0626 132.001 12.3519V20.5869C132.001 21.0106 132.308 21.3544 132.682 21.3544H134.759C135.133 21.3544 135.44 21.0079 135.44 20.5869V12.144Z" fill="white"/>
<path d="M25.7836 4.91406H23.4389C22.9951 4.91406 22.5151 5.24186 22.3727 5.64162L18.6101 16.0886L15.1099 5.64695C15.0122 5.3538 14.7331 5.09795 14.4177 4.98335C14.3284 4.94071 14.2251 4.91673 14.1051 4.91673H12.2517C12.1289 4.91673 12.02 4.94338 11.9307 4.98868C11.6209 5.10595 11.3529 5.36179 11.2636 5.65495L8.03136 16.0913L4.00082 5.63629C3.8473 5.2392 3.36163 4.91406 2.91782 4.91406H0.573191C0.129386 4.91406 -0.105077 5.2392 0.045649 5.63629L5.6951 20.2807C5.84862 20.6778 6.33429 21.0003 6.7781 21.0003H9.12273C9.56653 21.0003 10.0299 20.6698 10.1555 20.2648L13.2454 10.2841L16.5949 20.2701C16.7288 20.6725 17.2033 21.003 17.6444 21.003H19.989C20.43 21.003 20.9101 20.6752 21.0552 20.2754L26.3251 5.64162C26.4702 5.24186 26.2246 4.91406 25.7808 4.91406H25.7836Z" fill="white"/>
<path d="M181.43 4.91406H179.085C178.642 4.91406 178.156 5.2392 178.002 5.63629L174.338 15.1345L170.673 5.63629C170.519 5.2392 170.034 4.91406 169.59 4.91406H167.245C166.801 4.91406 166.567 5.2392 166.718 5.63629L172.367 20.2807C172.52 20.6778 173.006 21.0003 173.45 21.0003H175.22C175.663 21.0003 176.149 20.6752 176.303 20.2807L181.952 5.63629C182.106 5.2392 181.868 4.91406 181.425 4.91406H181.43Z" fill="white"/>
</g>
<defs>
<clipPath id="clip0_1993_1372">
<rect width="200" height="22" fill="white"/>
</clipPath>
</defs>
</svg>
