<svg width="393" height="84" viewBox="0 0 393 84" fill="none" xmlns="http://www.w3.org/2000/svg">
<rect width="393" height="84" fill="url(#paint0_linear_2381_33783)" fill-opacity="0.3"/>
<g clip-path="url(#clip0_2381_33783)">
<path d="M47.1883 37.998C44.0368 37.998 41.4805 40.4606 41.4805 43.4997C41.4805 46.5388 44.0368 48.9996 47.1883 48.9996C50.3397 48.9996 52.896 46.5371 52.896 43.4997C52.896 40.4622 50.3415 37.998 47.1883 37.998ZM47.1883 46.8543C45.2651 46.8543 43.7066 45.3516 43.7066 43.4997C43.7066 41.6477 45.2651 40.1434 47.1883 40.1434C49.1114 40.1434 50.6699 41.646 50.6699 43.4997C50.6699 45.3533 49.1114 46.8543 47.1883 46.8543Z" fill="white"/>
<path d="M126.259 37.998C123.105 37.998 120.551 40.4606 120.551 43.4997C120.551 46.5388 123.107 48.9996 126.259 48.9996C129.41 48.9996 131.966 46.5371 131.966 43.4997C131.966 40.4622 129.41 37.998 126.259 37.998ZM126.259 46.8543C124.335 46.8543 122.777 45.3516 122.777 43.4997C122.777 41.6477 124.335 40.1434 126.259 40.1434C128.182 40.1434 129.74 41.646 129.74 43.4997C129.74 45.3533 128.182 46.8543 126.259 46.8543Z" fill="white"/>
<path d="M78.5278 35H77.0746C76.7861 35 76.5521 35.2205 76.5521 35.4884V39.2432C75.5669 38.4648 74.3078 37.9967 72.9343 37.9967C69.7811 37.9967 67.2266 40.4592 67.2266 43.4984C67.2266 46.5375 69.7829 48.9983 72.9343 48.9983C74.3078 48.9983 75.5669 48.5302 76.5521 47.7518V48.2012C76.5521 48.4709 76.7879 48.6896 77.0746 48.6896H78.5278C78.8163 48.6896 79.0504 48.4692 79.0504 48.2012V35.4884C79.0504 35.2205 78.8145 35 78.5278 35ZM72.9343 46.8546C71.0112 46.8546 69.4527 45.352 69.4527 43.5001C69.4527 41.6481 71.0112 40.1438 72.9343 40.1438C74.8575 40.1438 76.416 41.6464 76.416 43.5001C76.416 45.3537 74.8575 46.8546 72.9343 46.8546Z" fill="white"/>
<path d="M148.29 37.9978C145.137 37.9978 142.582 40.4603 142.582 43.4994C142.582 46.5386 145.138 48.9994 148.29 48.9994C150.558 48.9994 152.517 47.724 153.437 45.8771C153.515 45.7194 153.544 45.3785 153.207 45.3785H151.586C151.155 45.3785 150.944 45.6685 150.817 45.7991C150.184 46.4487 149.286 46.854 148.288 46.854C146.641 46.854 145.264 45.7499 144.901 44.2677H153.283C153.907 44.2677 153.987 43.8861 153.996 43.4977C153.996 40.4603 151.439 37.9961 148.288 37.9961L148.29 37.9978ZM145.04 42.3004C145.541 41.0403 146.806 40.1432 148.29 40.1432C149.774 40.1432 151.038 41.0403 151.539 42.3004H145.04Z" fill="white"/>
<path d="M86.614 37.9978C83.4608 37.9978 80.9062 40.4603 80.9062 43.4994C80.9062 46.5386 83.4626 48.9994 86.614 48.9994C88.8819 48.9994 90.8414 47.724 91.7612 45.8771C91.8392 45.7194 91.8682 45.3785 91.5308 45.3785H89.9106C89.4788 45.3785 89.2684 45.6685 89.1414 45.7991C88.5082 46.4487 87.6101 46.854 86.6122 46.854C84.9648 46.854 83.5878 45.7499 83.2249 44.2677H91.607C92.2311 44.2677 92.3109 43.8861 92.32 43.4977C92.32 40.4603 89.7637 37.9961 86.6122 37.9961L86.614 37.9978ZM83.3646 42.3004C83.8654 41.0403 85.1299 40.1432 86.614 40.1432C88.0981 40.1432 89.3627 41.0403 89.8634 42.3004H83.3646Z" fill="white"/>
<path d="M65.3499 41.3584C65.241 40.8072 65.0487 40.3442 64.7711 39.9728C64.4119 39.4928 63.2525 38.2497 60.9193 38.0258C60.0394 37.941 59.2175 38.1344 58.4592 38.4498C58.0582 38.616 57.5611 38.984 57.1819 39.4335V38.6296C57.1819 38.3599 56.946 38.1412 56.6594 38.1412H55.2061C54.9195 38.1412 54.6836 38.3616 54.6836 38.6296V48.2032C54.6836 48.4728 54.9195 48.6916 55.2061 48.6916H56.6594C56.9478 48.6916 57.1819 48.4711 57.1819 48.2032V42.8304L57.1891 42.9627C57.1891 41.5059 58.7367 40.3238 60.297 40.3238C61.8573 40.3238 62.9659 41.5059 62.9659 42.9627V48.2032C62.9659 48.4728 63.2017 48.6916 63.4884 48.6916H64.9416C65.2301 48.6916 65.4642 48.4711 65.4642 48.2032V42.9644C65.4642 42.9644 65.4642 42.961 65.4642 42.9593C65.4605 42.1334 65.4224 41.7383 65.3499 41.3601V41.3584Z" fill="white"/>
<path d="M99.8654 38.0273C99.1887 38.0596 98.5501 38.2003 97.9495 38.4496C97.5486 38.6158 97.0514 38.9839 96.6741 39.4316V38.6294C96.6741 38.3597 96.4382 38.141 96.1516 38.141H94.6983C94.4116 38.141 94.1758 38.3614 94.1758 38.6294V48.203C94.1758 48.4726 94.4116 48.6914 94.6983 48.6914H96.1516C96.44 48.6914 96.6741 48.471 96.6741 48.203V42.8506L96.6795 42.9625C96.6795 41.5057 98.2289 40.3236 99.7874 40.3236C100.009 40.3236 100.412 40.4118 100.412 40.0726V38.4191C100.412 38.0223 99.9235 38.0256 99.8636 38.029L99.8654 38.0273Z" fill="white"/>
<path d="M112.037 42.7289C112.037 41.2314 113.085 40.3223 114.404 40.3223C115.723 40.3223 116.545 41.4027 116.545 42.8612V48.1016C116.545 48.3713 116.781 48.5901 117.068 48.5901H118.601C118.844 48.5901 119.044 48.3696 119.044 48.1016V42.7051C119.044 42.7051 119.044 42.6967 119.044 42.6933C119.038 41.9776 119.006 41.6096 118.947 41.2568C118.855 40.7056 118.692 40.2426 118.458 39.8712C118.153 39.3913 117.393 37.9243 114.366 37.9243C112.699 37.9243 111.69 38.6586 111.09 39.5388C110.629 38.9673 109.68 38.1074 108.071 37.9243C107.327 37.8395 106.63 38.0328 105.988 38.3483C105.772 38.4534 105.525 38.64 105.291 38.8757V38.528C105.291 38.2584 105.055 38.0396 104.769 38.0396H103.236C102.993 38.0396 102.793 38.2601 102.793 38.528V48.1016C102.793 48.3713 102.993 48.5901 103.236 48.5901H104.769C105.057 48.5901 105.291 48.3696 105.291 48.1016V42.2099C105.291 40.8684 106.656 40.2223 107.543 40.2223C108.862 40.2223 109.802 41.4044 109.802 42.8612V48.1016C109.802 48.3713 110.001 48.5901 110.244 48.5901H111.594C111.837 48.5901 112.037 48.3696 112.037 48.1016V42.7289Z" fill="white"/>
<path d="M40.7593 38.127H39.2353C38.9468 38.127 38.6348 38.3356 38.5423 38.5899L36.0966 45.238L33.8214 38.5933C33.7579 38.4068 33.5765 38.244 33.3715 38.171C33.3134 38.1439 33.2463 38.1286 33.1683 38.1286H31.9636C31.8838 38.1286 31.813 38.1456 31.755 38.1744C31.5536 38.2491 31.3794 38.4119 31.3213 38.5984L29.2204 45.2397L26.6005 38.5866C26.5007 38.3339 26.1851 38.127 25.8966 38.127H24.3726C24.0841 38.127 23.9317 38.3339 24.0297 38.5866L27.7018 47.9058C27.8016 48.1584 28.1173 48.3637 28.4058 48.3637H29.9298C30.2182 48.3637 30.5194 48.1534 30.6011 47.8956L32.6095 41.5443L34.7867 47.899C34.8737 48.1551 35.1822 48.3654 35.4688 48.3654H36.9928C37.2795 48.3654 37.5916 48.1568 37.6859 47.9024L41.1113 38.5899C41.2056 38.3356 41.046 38.127 40.7575 38.127H40.7593Z" fill="white"/>
<path d="M141.933 38.127H140.409C140.12 38.127 139.805 38.3339 139.705 38.5866L137.323 44.6309L134.94 38.5866C134.841 38.3339 134.525 38.127 134.236 38.127H132.712C132.424 38.127 132.272 38.3339 132.37 38.5866L136.042 47.9058C136.141 48.1584 136.457 48.3637 136.746 48.3637H137.896C138.184 48.3637 138.5 48.1568 138.6 47.9058L142.272 38.5866C142.372 38.3339 142.218 38.127 141.929 38.127H141.933Z" fill="white"/>
</g>
<path d="M345 34H369" stroke="white" stroke-linecap="round"/>
<path d="M345 42H369" stroke="white" stroke-linecap="round"/>
<path d="M345 50H369" stroke="white" stroke-linecap="round"/>
<defs>
<linearGradient id="paint0_linear_2381_33783" x1="196.5" y1="0" x2="196.5" y2="84" gradientUnits="userSpaceOnUse">
<stop offset="0.574502"/>
<stop offset="1" stop-opacity="0"/>
</linearGradient>
<clipPath id="clip0_2381_33783">
<rect width="130" height="14" fill="white" transform="translate(24 35)"/>
</clipPath>
</defs>
</svg>
