<svg width="346" height="95" viewBox="0 0 346 95" fill="none" xmlns="http://www.w3.org/2000/svg">
<path d="M62.1058 85.1449C56.6681 94.7499 42.6503 94.7499 37.2127 85.145L1.82792 22.6422C-3.47464 13.2759 3.39391 1.7425 14.2745 1.7425L85.044 1.74249C95.9245 1.74249 102.793 13.2759 97.4905 22.6422L62.1058 85.1449Z" fill="#1975FF"/>
<path d="M218.779 84.1244C213.312 93.5412 199.644 93.5412 194.177 84.1244L159.324 24.092C153.857 14.6752 160.691 2.90411 171.625 2.90411L241.331 2.90411C252.266 2.90411 259.1 14.6752 253.632 24.092L218.779 84.1244Z" fill="#0BD55A"/>
<path d="M282.896 8.94638C288.334 -0.658548 302.352 -0.658563 307.789 8.94636L343.174 71.4491C348.477 80.8154 341.608 92.3488 330.728 92.3488L259.958 92.3488C249.077 92.3488 242.209 80.8154 247.511 71.4491L282.896 8.94638Z" fill="white"/>
<path d="M112.096 16.508C112.096 7.39087 119.507 0 128.649 0C137.791 0 145.202 7.39088 145.202 16.508V77.583C145.202 86.7001 137.791 94.091 128.649 94.091C119.507 94.091 112.096 86.7001 112.096 77.583V16.508Z" fill="white"/>
</svg>
