<svg width="195" height="20" viewBox="0 0 195 20" fill="none" xmlns="http://www.w3.org/2000/svg">
<g clip-path="url(#clip0_2381_33879)">
<path d="M34.7804 4.28131C30.0533 4.28131 26.2188 7.79918 26.2188 12.1408C26.2188 16.4824 30.0533 19.9978 34.7804 19.9978C39.5076 19.9978 43.3421 16.48 43.3421 12.1408C43.3421 7.8016 39.5103 4.28131 34.7804 4.28131ZM34.7804 16.933C31.8957 16.933 29.558 14.7865 29.558 12.1408C29.558 9.49512 31.8957 7.34612 34.7804 7.34612C37.6652 7.34612 40.0029 9.4927 40.0029 12.1408C40.0029 14.7889 37.6652 16.933 34.7804 16.933Z" fill="white"/>
<path d="M153.39 4.28131C148.66 4.28131 144.828 7.79918 144.828 12.1408C144.828 16.4824 148.663 19.9978 153.39 19.9978C158.117 19.9978 161.951 16.48 161.951 12.1408C161.951 7.8016 158.117 4.28131 153.39 4.28131ZM153.39 16.933C150.505 16.933 148.167 14.7865 148.167 12.1408C148.167 9.49512 150.505 7.34612 153.39 7.34612C156.275 7.34612 158.612 9.4927 158.612 12.1408C158.612 14.7889 156.275 16.933 153.39 16.933Z" fill="white"/>
<path d="M81.7918 6.10352e-05H79.6119C79.1792 6.10352e-05 78.8281 0.315022 78.8281 0.69782V6.06184C77.3503 4.94979 75.4617 4.2811 73.4015 4.2811C68.6716 4.2811 64.8398 7.79897 64.8398 12.1406C64.8398 16.4822 68.6744 19.9976 73.4015 19.9976C75.4617 19.9976 77.3503 19.329 78.8281 18.2169V18.8589C78.8281 19.2442 79.1819 19.5567 79.6119 19.5567H81.7918C82.2245 19.5567 82.5755 19.2417 82.5755 18.8589V0.69782C82.5755 0.315022 82.2217 6.10352e-05 81.7918 6.10352e-05ZM73.4015 16.9353C70.5168 16.9353 68.1791 14.7887 68.1791 12.143C68.1791 9.49734 70.5168 7.34833 73.4015 7.34833C76.2863 7.34833 78.624 9.49491 78.624 12.143C78.624 14.7911 76.2863 16.9353 73.4015 16.9353Z" fill="white"/>
<path d="M186.437 4.28373C181.707 4.28373 177.875 7.8016 177.875 12.1432C177.875 16.4848 181.71 20.0003 186.437 20.0003C189.838 20.0003 192.778 18.1783 194.157 15.5399C194.274 15.3146 194.318 14.8276 193.812 14.8276H191.382C190.734 14.8276 190.418 15.2419 190.228 15.4285C189.278 16.3564 187.931 16.9355 186.434 16.9355C183.963 16.9355 181.897 15.3582 181.353 13.2407H193.926C194.862 13.2407 194.982 12.6956 194.996 12.1408C194.996 7.8016 191.161 4.28131 186.434 4.28131L186.437 4.28373ZM181.563 10.4303C182.314 8.63019 184.211 7.34854 186.437 7.34854C188.663 7.34854 190.56 8.63019 191.311 10.4303H181.563Z" fill="white"/>
<path d="M93.9211 4.28373C89.1912 4.28373 85.3594 7.8016 85.3594 12.1432C85.3594 16.4848 89.1939 20.0003 93.9211 20.0003C97.3229 20.0003 100.262 18.1783 101.642 15.5399C101.759 15.3146 101.802 14.8276 101.296 14.8276H98.8659C98.2182 14.8276 97.9025 15.2419 97.712 15.4285C96.7623 16.3564 95.4151 16.9355 93.9183 16.9355C91.4473 16.9355 89.3817 15.3582 88.8374 13.2407H101.41C102.347 13.2407 102.466 12.6956 102.48 12.1408C102.48 7.8016 98.6455 4.28131 93.9183 4.28131L93.9211 4.28373ZM89.0469 10.4303C89.7981 8.63019 91.6949 7.34854 93.9211 7.34854C96.1472 7.34854 98.044 8.63019 98.7952 10.4303H89.0469Z" fill="white"/>
<path d="M62.0228 9.08623C61.8596 8.29883 61.5711 7.63741 61.1547 7.10682C60.6158 6.42118 58.8768 4.64529 55.3771 4.32548C54.0572 4.20434 52.8243 4.48054 51.6868 4.93117C51.0853 5.16861 50.3397 5.69435 49.7709 6.33638V5.18799C49.7709 4.80277 49.4171 4.49023 48.9871 4.49023H46.8072C46.3772 4.49023 46.0234 4.80519 46.0234 5.18799V18.8645C46.0234 19.2498 46.3772 19.5623 46.8072 19.5623H48.9871C49.4198 19.5623 49.7709 19.2473 49.7709 18.8645V11.1892L49.7818 11.3782C49.7818 9.29701 52.1032 7.60834 54.4436 7.60834C56.784 7.60834 58.4469 9.29701 58.4469 11.3782V18.8645C58.4469 19.2498 58.8006 19.5623 59.2306 19.5623H61.4105C61.8432 19.5623 62.1943 19.2473 62.1943 18.8645V11.3806C62.1943 11.3806 62.1943 11.3758 62.1943 11.3733C62.1888 10.1934 62.1317 9.62893 62.0228 9.08865V9.08623Z" fill="white"/>
<path d="M113.8 4.32428C112.785 4.37031 111.827 4.5714 110.926 4.92755C110.325 5.16498 109.579 5.69072 109.013 6.33034V5.18436C109.013 4.79914 108.659 4.48661 108.229 4.48661H106.049C105.619 4.48661 105.266 4.80157 105.266 5.18436V18.8609C105.266 19.2461 105.619 19.5587 106.049 19.5587H108.229C108.662 19.5587 109.013 19.2437 109.013 18.8609V11.2146L109.021 11.3746C109.021 9.29339 111.345 7.60472 113.683 7.60472C114.015 7.60472 114.619 7.7307 114.619 7.24615V4.88394C114.619 4.31701 113.887 4.32186 113.797 4.3267L113.8 4.32428Z" fill="white"/>
<path d="M132.053 11.0408C132.053 8.90145 133.626 7.60284 135.605 7.60284C137.583 7.60284 138.816 9.14615 138.816 11.2297V18.7161C138.816 19.1013 139.17 19.4139 139.6 19.4139H141.899C142.264 19.4139 142.564 19.0989 142.564 18.7161V11.0068C142.564 11.0068 142.564 10.9947 142.564 10.9899C142.555 9.96747 142.506 9.44173 142.419 8.93779C142.281 8.15039 142.036 7.48897 141.684 6.95839C141.227 6.27274 140.087 4.17704 135.548 4.17704C133.047 4.17704 131.533 5.2261 130.633 6.48352C129.941 5.66705 128.518 4.4387 126.104 4.17704C124.988 4.0559 123.943 4.3321 122.98 4.78274C122.656 4.93295 122.286 5.19945 121.935 5.53622V5.03955C121.935 4.65433 121.581 4.34179 121.151 4.34179H118.852C118.487 4.34179 118.188 4.65675 118.188 5.03955V18.7161C118.188 19.1013 118.487 19.4139 118.852 19.4139H121.151C121.584 19.4139 121.935 19.0989 121.935 18.7161V10.2994C121.935 8.38298 123.981 7.4599 125.312 7.4599C127.291 7.4599 128.7 9.14857 128.7 11.2297V18.7161C128.7 19.1013 129 19.4139 129.364 19.4139H131.389C131.754 19.4139 132.053 19.0989 132.053 18.7161V11.0408Z" fill="white"/>
<path d="M25.139 4.46881H22.853C22.4203 4.46881 21.9522 4.76681 21.8134 5.13023L18.1449 14.6275L14.7322 5.13507C14.6369 4.86857 14.3648 4.63598 14.0573 4.5318C13.9702 4.49304 13.8695 4.47123 13.7524 4.47123H11.9454C11.8257 4.47123 11.7195 4.49546 11.6324 4.53665C11.3304 4.64325 11.0691 4.87584 10.982 5.14234L7.83057 14.6299L3.9008 5.12538C3.75112 4.76439 3.27759 4.46881 2.84488 4.46881H0.558862C0.126151 4.46881 -0.102451 4.76439 0.0445078 5.12538L5.55272 18.4385C5.7024 18.7995 6.17593 19.0927 6.60864 19.0927H8.89466C9.32737 19.0927 9.77913 18.7922 9.9016 18.424L12.9142 9.3507L16.18 18.4288C16.3106 18.7947 16.7733 19.0951 17.2032 19.0951H19.4893C19.9193 19.0951 20.3873 18.7971 20.5289 18.4337L25.667 5.13023C25.8085 4.76681 25.569 4.46881 25.1363 4.46881H25.139Z" fill="white"/>
<path d="M176.897 4.46881H174.611C174.178 4.46881 173.705 4.76439 173.555 5.12538L169.982 13.7601L166.409 5.12538C166.259 4.76439 165.785 4.46881 165.353 4.46881H163.067C162.634 4.46881 162.405 4.76439 162.552 5.12538L168.061 18.4385C168.21 18.7995 168.684 19.0927 169.116 19.0927H170.842C171.275 19.0927 171.748 18.7971 171.898 18.4385L177.406 5.12538C177.556 4.76439 177.324 4.46881 176.892 4.46881H176.897Z" fill="white"/>
</g>
<defs>
<clipPath id="clip0_2381_33879">
<rect width="195" height="20" fill="white"/>
</clipPath>
</defs>
</svg>
