<svg width="345" height="540" viewBox="0 0 345 540" fill="none" xmlns="http://www.w3.org/2000/svg">
<path d="M345 510C345 526.569 331.569 540 315 540L30 540C13.4315 540 1.17422e-06 526.569 2.62268e-06 510L4.45198e-05 30.7525C4.62076e-05 11.4469 17.9702 -2.83304 36.7767 1.52793L321.777 67.6149C335.374 70.7678 345 82.8817 345 96.8395L345 510Z" fill="#0BD55A"/>
<path d="M344.25 510C344.25 526.154 331.154 539.25 315 539.25L30 539.25C13.8457 539.25 0.750001 526.154 0.750003 510L0.750045 30.7525C0.750046 11.9295 18.2709 -1.99338 36.6073 2.25852L321.607 68.3455C334.864 71.4196 344.25 83.2306 344.25 96.8395L344.25 510Z" stroke="#EAEAEA" stroke-opacity="0.1" stroke-width="1.5"/>
</svg>
