<svg width="126" height="17" viewBox="0 0 126 17" fill="none" xmlns="http://www.w3.org/2000/svg">
<g clip-path="url(#clip0_2000_33661)">
<path d="M48.6299 2.40234V7.01472H43.274V2.40234H40.3242V14.5075H43.274V9.64372H48.6299V14.5075H51.586V2.40234H51.4335H48.6299Z" fill="black"/>
<path d="M62.4059 2.40234L59.3163 7.19785L56.233 2.40234H52.7461L57.8478 10.3173V14.5075H60.7943V10.3173L65.8896 2.40234H65.6163H62.4059Z" fill="black"/>
<path d="M75.3863 2.40234V11.2795C75.3863 11.6147 75.1256 11.8847 74.7601 11.8847H70.0271V2.40234H67.0742V14.5075H75.7995C76.5719 14.5075 77.1981 14.284 77.6526 13.8464C78.104 13.4025 78.3328 12.7911 78.3328 12.0368V2.40234H75.3863Z" fill="black"/>
<path d="M89.791 2.4021H81.0625V14.5073H84.0122V5.02178H88.7452C89.1266 5.02178 89.3714 5.31355 89.3714 5.62704V14.5073H92.318V4.88211C92.318 4.12165 92.0923 3.51329 91.6409 3.06944C91.1832 2.62868 90.5602 2.4021 89.7878 2.4021H89.791Z" fill="black"/>
<path d="M103.784 2.40234H95.0586V14.5075H103.784C104.559 14.5075 105.179 14.284 105.637 13.8464C106.088 13.4025 106.317 12.7942 106.317 12.0368V4.88235C106.317 4.1219 106.088 3.51354 105.634 3.06968C105.176 2.62893 104.556 2.40234 103.784 2.40234ZM103.371 5.64901V11.2608C103.371 11.5899 103.123 11.8847 102.738 11.8847H98.0083V5.02203H102.722C103.104 5.02203 103.371 5.28896 103.371 5.64901Z" fill="black"/>
<path d="M111.456 2.40234C110.68 2.40234 110.061 2.62893 109.606 3.06968C109.151 3.51354 108.926 4.1219 108.926 4.88235V14.5106H111.866V10.7673H117.228V14.5106H120.175V2.40234H111.453H111.456ZM117.228 5.02203V8.14143H111.866V5.6366C111.866 5.34173 112.108 5.02203 112.499 5.02203H117.228Z" fill="black"/>
<path d="M126.001 2.40234H123.051V14.5075H126.001V2.40234Z" fill="black"/>
<path d="M17.0246 17C26.4301 17 34.0524 13.1946 34.0524 8.50155C34.0524 3.80847 26.4301 0 17.0246 0C7.61912 0 0 3.80537 0 8.50155C0 13.1977 7.62548 17 17.0246 17ZM20.2287 12.8346C19.9521 13.4709 19.4563 14.8428 18.3374 15.3922C18.0005 15.5536 17.5777 15.6343 17.1963 15.6405C17.1136 15.6467 17.0564 15.6405 17.0278 15.6405C13.9477 15.6405 11.0679 15.2339 8.64899 14.5355C8.47099 14.4859 8.07684 14.3896 8.07684 14.1537C8.07684 14.0482 8.13406 13.9644 8.2167 13.8868C8.25167 13.8527 8.30252 13.8123 8.36927 13.7564C8.93189 13.294 10.642 12.0896 13.846 10.8978C14.9712 10.4787 16.3762 9.95417 17.8479 9.65309C18.7188 9.47307 21.9229 9.00128 20.2255 12.8377M28.83 4.27095C28.8904 4.16231 28.973 4.07851 29.116 4.0723C29.1955 4.05989 29.3004 4.08472 29.4657 4.18094C31.4682 5.38525 32.6538 6.87822 32.6538 8.50155C32.6538 11.4347 28.7918 13.952 23.2611 15.057C22.905 15.1252 22.673 15.1253 22.5904 15.0321C22.5395 14.9763 22.5236 14.8831 22.5904 14.7714C22.6253 14.7062 22.6635 14.6566 22.7366 14.5759C25.7467 11.1119 28.0417 6.01223 28.6901 4.53168C28.7346 4.43546 28.7887 4.33613 28.83 4.27406M13.8714 4.15921C14.1512 3.52291 14.6438 2.14789 15.7659 1.60161C16.1028 1.4371 16.5288 1.36261 16.9007 1.35019H17.0755C20.1619 1.35019 23.0354 1.75991 25.4606 2.4707C25.6355 2.52346 26.0233 2.59175 26.0233 2.83695C26.0233 2.94559 25.9597 3.0325 25.8802 3.10699C25.8453 3.14424 25.7976 3.18769 25.7245 3.24046C25.1619 3.70294 23.4581 4.90414 20.2541 6.09604C19.1289 6.52437 17.7144 7.03962 16.249 7.34691C15.3813 7.52383 12.1772 7.99872 13.8714 4.16231M10.7914 1.95855C11.1506 1.88716 11.4207 1.88716 11.5034 1.98028C11.5542 2.03305 11.5733 2.12616 11.5034 2.24101C11.4621 2.30309 11.4271 2.35585 11.3572 2.43966C8.34385 5.90049 6.05525 11.0033 5.40363 12.4745C5.35278 12.5801 5.3051 12.6825 5.26695 12.7477C5.19702 12.8532 5.12074 12.9308 4.97452 12.9432C4.90141 12.9432 4.79016 12.9277 4.6217 12.8284C2.62871 11.6303 1.39223 10.1311 1.39223 8.51086C1.39223 5.58079 5.26377 3.05423 10.7882 1.95855" fill="black"/>
</g>
<defs>
<clipPath id="clip0_2000_33661">
<rect width="126" height="17" fill="white"/>
</clipPath>
</defs>
</svg>
