<svg width="24" height="24" viewBox="0 0 24 24" fill="none" xmlns="http://www.w3.org/2000/svg">
<g opacity="0.4">
<path d="M16.5024 22.5981C16.5091 23.2605 15.9739 23.8012 15.3114 23.8012H8.14448C7.48972 23.8012 6.9577 23.2728 6.95333 22.618L6.9375 20.2515C6.9375 18.9412 7.99765 17.8691 9.31985 17.8691H14.0965C15.4068 17.8691 16.4669 18.9293 16.4789 20.2396L16.5024 22.5981Z" fill="white"/>
<path d="M19.4692 9.52816V12.113C19.4692 12.7444 19.7194 13.3519 20.172 13.8045L21.1488 14.7813C21.6014 15.2339 21.8516 15.8414 21.8516 16.4727V17.8664C21.8516 20.6074 20.7689 22.6235 18.4039 23.4246C18.0452 23.5462 17.693 23.2628 17.6917 22.884L17.6824 20.2249C17.6586 18.2714 16.0505 16.6752 14.1089 16.6752H9.3323C7.35494 16.6752 5.75877 18.2833 5.75877 20.2488V22.8981C5.75877 23.2763 5.40891 23.5607 5.0499 23.442C2.65694 22.6501 1.60156 20.6216 1.60156 17.8664V5.95463C1.60156 3.08861 2.73531 0.991927 5.34809 0.280473C5.70611 0.182975 6.03977 0.470716 6.03444 0.84172L5.997 3.45316C5.98509 4.01301 6.18759 4.54904 6.56877 4.95404C6.96186 5.35904 7.47406 5.58535 8.08156 5.59728C8.69403 5.59728 9.23942 5.34384 9.61163 4.93134C9.74528 4.78318 10.0013 4.77721 10.1423 4.91831C10.5235 5.32331 11.0476 5.56153 11.6551 5.57344C12.2677 5.57344 12.8266 5.30418 13.2079 4.87074C13.3332 4.72831 13.5898 4.71695 13.7158 4.85875C14.097 5.26374 14.6211 5.50198 15.2286 5.5139C16.3721 5.5139 17.2894 4.6205 17.3132 3.46506L17.3605 0.816657C17.3669 0.454182 17.6951 0.179056 18.0454 0.272182C20.6707 0.969938 21.8516 3.08054 21.8516 5.95463V7.14581C21.8516 7.80095 21.3155 8.33698 20.6604 8.33698C20.0052 8.33698 19.4692 8.87301 19.4692 9.52816Z" fill="white"/>
<path d="M8.42446 0.00391891C8.75882 0.00176288 9.02944 0.275233 9.0238 0.609561L8.97453 3.52587C8.96262 4.01425 8.56953 4.40734 8.08115 4.40734H8.06925C7.56895 4.39543 7.17585 3.99043 7.18776 3.49013V0.603652C7.18776 0.276222 7.45209 0.0101964 7.77952 0.00807608L8.42446 0.00391891Z" fill="white"/>
<path d="M12.0064 0C12.3393 0 12.6076 0.272851 12.602 0.605678L12.5527 3.51397C12.5407 3.99044 12.1477 4.38353 11.6593 4.38353H11.6474C11.1471 4.37162 10.754 3.96662 10.7659 3.47824V0.595588C10.7659 0.266657 11.0325 0 11.3615 0H12.0064Z" fill="white"/>
<path d="M15.5803 0.00798039C15.9118 0.010065 16.1778 0.282439 16.172 0.613896L16.123 3.44237C16.1111 3.93075 15.718 4.32384 15.2296 4.32384H15.2177C14.7174 4.31193 14.3243 3.90693 14.3362 3.41854V0.599495C14.3362 0.269098 14.6052 0.0018338 14.9355 0.00391836L15.5803 0.00798039Z" fill="white"/>
</g>
</svg>
