<svg width="20" height="13" viewBox="0 0 20 13" fill="none" xmlns="http://www.w3.org/2000/svg">
<path d="M17 0.330078C16.4477 0.330078 16 0.777793 16 1.33008V11.6634C16 12.2157 16.4477 12.6634 17 12.6634H18.3333C18.8856 12.6634 19.3333 12.2157 19.3333 11.6634V1.33008C19.3333 0.777793 18.8856 0.330078 18.3333 0.330078H17Z" fill="white"/>
<path d="M10.6667 3.99675C10.6667 3.44446 11.1144 2.99674 11.6667 2.99674H13C13.5523 2.99674 14 3.44446 14 3.99674V11.6634C14 12.2157 13.5523 12.6634 13 12.6634H11.6667C11.1144 12.6634 10.6667 12.2157 10.6667 11.6634V3.99675Z" fill="white"/>
<path d="M6.33333 5.66341C5.78105 5.66341 5.33333 6.11113 5.33333 6.66341V11.6634C5.33333 12.2157 5.78105 12.6634 6.33333 12.6634H7.66667C8.21895 12.6634 8.66667 12.2157 8.66667 11.6634V6.66341C8.66667 6.11113 8.21895 5.66341 7.66667 5.66341H6.33333Z" fill="white"/>
<path d="M1 7.99674C0.447715 7.99674 0 8.44446 0 8.99674V11.6634C0 12.2157 0.447715 12.6634 0.999999 12.6634H2.33333C2.88562 12.6634 3.33333 12.2157 3.33333 11.6634V8.99675C3.33333 8.44446 2.88562 7.99674 2.33333 7.99674H1Z" fill="white"/>
</svg>
