<svg width="80" height="80" viewBox="0 0 80 80" fill="none" xmlns="http://www.w3.org/2000/svg">
<circle cx="38.0585" cy="37.2111" r="18.778" fill="url(#paint0_linear_2000_33625)"/>
<circle cx="59.1117" cy="48.0216" r="14.7948" fill="url(#paint1_linear_2000_33625)"/>
<circle cx="18.7106" cy="50.8654" r="11.9496" fill="url(#paint2_linear_2000_33625)"/>
<path d="M3.5 50.7743C3.5 58.7441 9.84906 65.2202 17.6997 65.2202H59.9901C69.4855 65.2202 77.168 57.3868 77.168 47.7426C77.168 38.0984 69.4855 30.2649 59.9901 30.2649C59.4896 30.2649 58.9938 30.2868 58.5036 30.3296C55.9806 21.2016 47.741 14.5 37.9514 14.5C26.1532 14.5 16.6041 24.2337 16.6041 36.222C16.6041 36.2716 16.6042 36.3212 16.6046 36.3707C9.26656 36.9401 3.5 43.1785 3.5 50.7743Z" stroke="url(#paint3_linear_2000_33625)"/>
<defs>
<linearGradient id="paint0_linear_2000_33625" x1="19.2805" y1="18.4331" x2="48.8701" y2="42.9014" gradientUnits="userSpaceOnUse">
<stop stop-color="white"/>
<stop offset="1" stop-color="white" stop-opacity="0"/>
</linearGradient>
<linearGradient id="paint1_linear_2000_33625" x1="81.8729" y1="22.4152" x2="47.6007" y2="54.3922" gradientUnits="userSpaceOnUse">
<stop stop-color="white"/>
<stop offset="1" stop-color="white" stop-opacity="0"/>
</linearGradient>
<linearGradient id="paint2_linear_2000_33625" x1="-6.89574" y1="51.4344" x2="30.7725" y2="50.9499" gradientUnits="userSpaceOnUse">
<stop stop-color="white"/>
<stop offset="1" stop-color="white" stop-opacity="0"/>
</linearGradient>
<linearGradient id="paint3_linear_2000_33625" x1="21.8692" y1="5.2985" x2="55.605" y2="77.6045" gradientUnits="userSpaceOnUse">
<stop stop-color="white"/>
<stop offset="1" stop-color="white" stop-opacity="0"/>
</linearGradient>
</defs>
</svg>
