<svg width="393" height="84" viewBox="0 0 393 84" fill="none" xmlns="http://www.w3.org/2000/svg">
<rect width="393" height="84" fill="url(#paint0_linear_2000_33713)" fill-opacity="0.3"/>
<g clip-path="url(#clip0_2000_33713)">
<path d="M43.1883 38C40.0368 38 37.4805 40.4625 37.4805 43.5016C37.4805 46.5408 40.0368 49.0016 43.1883 49.0016C46.3397 49.0016 48.896 46.5391 48.896 43.5016C48.896 40.4642 46.3415 38 43.1883 38ZM43.1883 46.8562C41.2651 46.8562 39.7066 45.3536 39.7066 43.5016C39.7066 41.6497 41.2651 40.1454 43.1883 40.1454C45.1114 40.1454 46.6699 41.648 46.6699 43.5016C46.6699 45.3553 45.1114 46.8562 43.1883 46.8562Z" fill="white"/>
<path d="M122.259 38C119.105 38 116.551 40.4625 116.551 43.5016C116.551 46.5408 119.107 49.0016 122.259 49.0016C125.41 49.0016 127.966 46.5391 127.966 43.5016C127.966 40.4642 125.41 38 122.259 38ZM122.259 46.8562C120.335 46.8562 118.777 45.3536 118.777 43.5016C118.777 41.6497 120.335 40.1454 122.259 40.1454C124.182 40.1454 125.74 41.648 125.74 43.5016C125.74 45.3553 124.182 46.8562 122.259 46.8562Z" fill="white"/>
<path d="M74.5278 35H73.0746C72.7861 35 72.5521 35.2205 72.5521 35.4884V39.2432C71.5669 38.4648 70.3078 37.9967 68.9343 37.9967C65.7811 37.9967 63.2266 40.4592 63.2266 43.4984C63.2266 46.5375 65.7829 48.9983 68.9343 48.9983C70.3078 48.9983 71.5669 48.5302 72.5521 47.7518V48.2012C72.5521 48.4709 72.7879 48.6896 73.0746 48.6896H74.5278C74.8163 48.6896 75.0504 48.4692 75.0504 48.2012V35.4884C75.0504 35.2205 74.8145 35 74.5278 35ZM68.9343 46.8546C67.0112 46.8546 65.4527 45.352 65.4527 43.5001C65.4527 41.6481 67.0112 40.1438 68.9343 40.1438C70.8575 40.1438 72.416 41.6464 72.416 43.5001C72.416 45.3537 70.8575 46.8546 68.9343 46.8546Z" fill="white"/>
<path d="M144.29 37.9978C141.137 37.9978 138.582 40.4603 138.582 43.4994C138.582 46.5386 141.138 48.9994 144.29 48.9994C146.558 48.9994 148.517 47.724 149.437 45.8771C149.515 45.7194 149.544 45.3785 149.207 45.3785H147.586C147.155 45.3785 146.944 45.6685 146.817 45.7991C146.184 46.4487 145.286 46.854 144.288 46.854C142.641 46.854 141.264 45.7499 140.901 44.2677H149.283C149.907 44.2677 149.987 43.8861 149.996 43.4977C149.996 40.4603 147.439 37.9961 144.288 37.9961L144.29 37.9978ZM141.04 42.3004C141.541 41.0403 142.806 40.1432 144.29 40.1432C145.774 40.1432 147.038 41.0403 147.539 42.3004H141.04Z" fill="white"/>
<path d="M82.614 37.9978C79.4608 37.9978 76.9062 40.4603 76.9062 43.4994C76.9062 46.5386 79.4626 48.9994 82.614 48.9994C84.8819 48.9994 86.8414 47.724 87.7612 45.8771C87.8392 45.7194 87.8682 45.3785 87.5308 45.3785H85.9106C85.4788 45.3785 85.2684 45.6685 85.1414 45.7991C84.5082 46.4487 83.6101 46.854 82.6122 46.854C80.9648 46.854 79.5878 45.7499 79.2249 44.2677H87.607C88.2311 44.2677 88.3109 43.8861 88.32 43.4977C88.32 40.4603 85.7637 37.9961 82.6122 37.9961L82.614 37.9978ZM79.3646 42.3004C79.8654 41.0403 81.1299 40.1432 82.614 40.1432C84.0981 40.1432 85.3627 41.0403 85.8634 42.3004H79.3646Z" fill="white"/>
<path d="M61.3499 41.3603C61.241 40.8091 61.0487 40.3461 60.7711 39.9747C60.4119 39.4948 59.2525 38.2517 56.9193 38.0278C56.0394 37.943 55.2175 38.1363 54.4592 38.4518C54.0582 38.618 53.5611 38.986 53.1819 39.4354V38.6315C53.1819 38.3619 52.946 38.1431 52.6594 38.1431H51.2061C50.9195 38.1431 50.6836 38.3636 50.6836 38.6315V48.2051C50.6836 48.4748 50.9195 48.6936 51.2061 48.6936H52.6594C52.9478 48.6936 53.1819 48.4731 53.1819 48.2051V42.8324L53.1891 42.9647C53.1891 41.5079 54.7367 40.3258 56.297 40.3258C57.8573 40.3258 58.9659 41.5079 58.9659 42.9647V48.2051C58.9659 48.4748 59.2017 48.6936 59.4884 48.6936H60.9416C61.2301 48.6936 61.4642 48.4731 61.4642 48.2051V42.9664C61.4642 42.9664 61.4642 42.963 61.4642 42.9613C61.4605 42.1354 61.4224 41.7402 61.3499 41.362V41.3603Z" fill="white"/>
<path d="M95.8654 38.0273C95.1887 38.0596 94.5501 38.2003 93.9495 38.4496C93.5486 38.6158 93.0514 38.9839 92.6741 39.4316V38.6294C92.6741 38.3597 92.4382 38.141 92.1516 38.141H90.6983C90.4116 38.141 90.1758 38.3614 90.1758 38.6294V48.203C90.1758 48.4726 90.4116 48.6914 90.6983 48.6914H92.1516C92.44 48.6914 92.6741 48.471 92.6741 48.203V42.8506L92.6795 42.9625C92.6795 41.5057 94.2289 40.3236 95.7874 40.3236C96.0088 40.3236 96.4115 40.4118 96.4115 40.0726V38.4191C96.4115 38.0223 95.9235 38.0256 95.8636 38.029L95.8654 38.0273Z" fill="white"/>
<path d="M108.037 42.7308C108.037 41.2333 109.085 40.3243 110.404 40.3243C111.723 40.3243 112.545 41.4046 112.545 42.8631V48.1036C112.545 48.3732 112.781 48.592 113.068 48.592H114.601C114.844 48.592 115.044 48.3715 115.044 48.1036V42.7071C115.044 42.7071 115.044 42.6986 115.044 42.6952C115.038 41.9795 115.006 41.6115 114.947 41.2588C114.855 40.7076 114.692 40.2446 114.458 39.8732C114.153 39.3932 113.393 37.9262 110.366 37.9262C108.699 37.9262 107.69 38.6606 107.09 39.5408C106.629 38.9692 105.68 38.1094 104.071 37.9262C103.327 37.8414 102.63 38.0348 101.988 38.3502C101.772 38.4554 101.525 38.6419 101.291 38.8777V38.53C101.291 38.2603 101.055 38.0416 100.769 38.0416H99.2357C98.9925 38.0416 98.793 38.262 98.793 38.53V48.1036C98.793 48.3732 98.9925 48.592 99.2357 48.592H100.769C101.057 48.592 101.291 48.3715 101.291 48.1036V42.2119C101.291 40.8704 102.656 40.2242 103.543 40.2242C104.862 40.2242 105.802 41.4063 105.802 42.8631V48.1036C105.802 48.3732 106.001 48.592 106.244 48.592H107.594C107.837 48.592 108.037 48.3715 108.037 48.1036V42.7308Z" fill="white"/>
<path d="M36.7593 38.1289H35.2353C34.9468 38.1289 34.6348 38.3375 34.5423 38.5919L32.0966 45.24L29.8214 38.5953C29.7579 38.4087 29.5765 38.2459 29.3715 38.173C29.3134 38.1459 29.2463 38.1306 29.1683 38.1306H27.9636C27.8838 38.1306 27.813 38.1476 27.755 38.1764C27.5536 38.251 27.3794 38.4138 27.3213 38.6004L25.2204 45.2417L22.6005 38.5885C22.5007 38.3358 22.1851 38.1289 21.8966 38.1289H20.3726C20.0841 38.1289 19.9317 38.3358 20.0297 38.5885L23.7018 47.9077C23.8016 48.1604 24.1173 48.3656 24.4058 48.3656H25.9298C26.2182 48.3656 26.5194 48.1553 26.6011 47.8975L28.6095 41.5462L30.7867 47.9009C30.8737 48.157 31.1822 48.3673 31.4688 48.3673H32.9928C33.2795 48.3673 33.5916 48.1587 33.6859 47.9043L37.1113 38.5919C37.2056 38.3375 37.046 38.1289 36.7575 38.1289H36.7593Z" fill="white"/>
<path d="M137.933 38.125H136.409C136.12 38.125 135.805 38.3319 135.705 38.5846L133.323 44.6289L130.94 38.5846C130.841 38.3319 130.525 38.125 130.236 38.125H128.712C128.424 38.125 128.272 38.3319 128.37 38.5846L132.042 47.9038C132.141 48.1565 132.457 48.3617 132.746 48.3617H133.896C134.184 48.3617 134.5 48.1548 134.6 47.9038L138.272 38.5846C138.372 38.3319 138.218 38.125 137.929 38.125H137.933Z" fill="white"/>
</g>
<path d="M349 34H373" stroke="white" stroke-linecap="round"/>
<path d="M349 42H373" stroke="white" stroke-linecap="round"/>
<path d="M349 50H373" stroke="white" stroke-linecap="round"/>
<defs>
<linearGradient id="paint0_linear_2000_33713" x1="196.5" y1="0" x2="196.5" y2="84" gradientUnits="userSpaceOnUse">
<stop offset="0.574502"/>
<stop offset="1" stop-opacity="0"/>
</linearGradient>
<clipPath id="clip0_2000_33713">
<rect width="130" height="14" fill="white" transform="translate(20 35)"/>
</clipPath>
</defs>
</svg>
