<svg width="195" height="20" viewBox="0 0 195 20" fill="none" xmlns="http://www.w3.org/2000/svg">
<g clip-path="url(#clip0_2000_33762)">
<path d="M34.7804 4.28125C30.0533 4.28125 26.2188 7.79912 26.2188 12.1407C26.2188 16.4823 30.0533 19.9978 34.7804 19.9978C39.5076 19.9978 43.3421 16.4799 43.3421 12.1407C43.3421 7.80154 39.5103 4.28125 34.7804 4.28125ZM34.7804 16.933C31.8957 16.933 29.558 14.7864 29.558 12.1407C29.558 9.49506 31.8957 7.34606 34.7804 7.34606C37.6652 7.34606 40.0029 9.49264 40.0029 12.1407C40.0029 14.7888 37.6652 16.933 34.7804 16.933Z" fill="white"/>
<path d="M153.39 4.28125C148.66 4.28125 144.828 7.79912 144.828 12.1407C144.828 16.4823 148.663 19.9978 153.39 19.9978C158.117 19.9978 161.951 16.4799 161.951 12.1407C161.951 7.80154 158.117 4.28125 153.39 4.28125ZM153.39 16.933C150.505 16.933 148.167 14.7864 148.167 12.1407C148.167 9.49506 150.505 7.34606 153.39 7.34606C156.275 7.34606 158.612 9.49264 158.612 12.1407C158.612 14.7888 156.275 16.933 153.39 16.933Z" fill="white"/>
<path d="M81.7918 0H79.6119C79.1792 0 78.8281 0.314961 78.8281 0.697759V6.06178C77.3503 4.94973 75.4617 4.28104 73.4015 4.28104C68.6716 4.28104 64.8398 7.79891 64.8398 12.1405C64.8398 16.4821 68.6744 19.9976 73.4015 19.9976C75.4617 19.9976 77.3503 19.3289 78.8281 18.2168V18.8589C78.8281 19.2441 79.1819 19.5566 79.6119 19.5566H81.7918C82.2245 19.5566 82.5755 19.2417 82.5755 18.8589V0.697759C82.5755 0.314961 82.2217 0 81.7918 0ZM73.4015 16.9352C70.5168 16.9352 68.1791 14.7886 68.1791 12.1429C68.1791 9.49727 70.5168 7.34827 73.4015 7.34827C76.2863 7.34827 78.624 9.49485 78.624 12.1429C78.624 14.791 76.2863 16.9352 73.4015 16.9352Z" fill="white"/>
<path d="M186.437 4.28367C181.707 4.28367 177.875 7.80154 177.875 12.1432C177.875 16.4848 181.71 20.0002 186.437 20.0002C189.838 20.0002 192.778 18.1783 194.157 15.5399C194.274 15.3146 194.318 14.8276 193.812 14.8276H191.382C190.734 14.8276 190.418 15.2419 190.228 15.4284C189.278 16.3564 187.931 16.9354 186.434 16.9354C183.963 16.9354 181.897 15.3582 181.353 13.2407H193.926C194.862 13.2407 194.982 12.6955 194.996 12.1407C194.996 7.80154 191.161 4.28125 186.434 4.28125L186.437 4.28367ZM181.563 10.4303C182.314 8.63013 184.211 7.34848 186.437 7.34848C188.663 7.34848 190.56 8.63013 191.311 10.4303H181.563Z" fill="white"/>
<path d="M93.9211 4.28367C89.1912 4.28367 85.3594 7.80154 85.3594 12.1432C85.3594 16.4848 89.1939 20.0002 93.9211 20.0002C97.3229 20.0002 100.262 18.1783 101.642 15.5399C101.759 15.3146 101.802 14.8276 101.296 14.8276H98.8659C98.2182 14.8276 97.9025 15.2419 97.712 15.4284C96.7623 16.3564 95.4151 16.9354 93.9183 16.9354C91.4473 16.9354 89.3817 15.3582 88.8374 13.2407H101.41C102.347 13.2407 102.466 12.6955 102.48 12.1407C102.48 7.80154 98.6455 4.28125 93.9183 4.28125L93.9211 4.28367ZM89.0469 10.4303C89.7981 8.63013 91.6949 7.34848 93.9211 7.34848C96.1472 7.34848 98.044 8.63013 98.7952 10.4303H89.0469Z" fill="white"/>
<path d="M62.0228 9.08617C61.8596 8.29877 61.5711 7.63735 61.1547 7.10676C60.6158 6.42112 58.8768 4.64523 55.3771 4.32542C54.0572 4.20428 52.8243 4.48048 51.6868 4.93111C51.0853 5.16854 50.3397 5.69429 49.7709 6.33632V5.18793C49.7709 4.80271 49.4171 4.49017 48.9871 4.49017H46.8072C46.3772 4.49017 46.0234 4.80513 46.0234 5.18793V18.8645C46.0234 19.2497 46.3772 19.5622 46.8072 19.5622H48.9871C49.4198 19.5622 49.7709 19.2473 49.7709 18.8645V11.1891L49.7818 11.3781C49.7818 9.29695 52.1032 7.60828 54.4436 7.60828C56.784 7.60828 58.4469 9.29695 58.4469 11.3781V18.8645C58.4469 19.2497 58.8006 19.5622 59.2306 19.5622H61.4105C61.8432 19.5622 62.1943 19.2473 62.1943 18.8645V11.3805C62.1943 11.3805 62.1943 11.3757 62.1943 11.3733C62.1888 10.1934 62.1317 9.62887 62.0228 9.08859V9.08617Z" fill="white"/>
<path d="M113.8 4.32422C112.785 4.37025 111.827 4.57134 110.926 4.92749C110.325 5.16492 109.579 5.69066 109.013 6.33028V5.1843C109.013 4.79908 108.659 4.48654 108.229 4.48654H106.049C105.619 4.48654 105.266 4.8015 105.266 5.1843V18.8609C105.266 19.2461 105.619 19.5586 106.049 19.5586H108.229C108.662 19.5586 109.013 19.2437 109.013 18.8609V11.2146L109.021 11.3745C109.021 9.29333 111.345 7.60465 113.683 7.60465C114.015 7.60465 114.619 7.73064 114.619 7.24608V4.88388C114.619 4.31695 113.887 4.3218 113.797 4.32664L113.8 4.32422Z" fill="white"/>
<path d="M132.053 11.0407C132.053 8.90139 133.626 7.60278 135.605 7.60278C137.583 7.60278 138.816 9.14609 138.816 11.2297V18.716C138.816 19.1013 139.17 19.4138 139.6 19.4138H141.899C142.264 19.4138 142.564 19.0988 142.564 18.716V11.0068C142.564 11.0068 142.564 10.9947 142.564 10.9898C142.555 9.96741 142.506 9.44167 142.419 8.93773C142.281 8.15033 142.036 7.48891 141.684 6.95833C141.227 6.27268 140.087 4.17698 135.548 4.17698C133.047 4.17698 131.533 5.22604 130.633 6.48346C129.941 5.66699 128.518 4.43864 126.104 4.17698C124.988 4.05584 123.943 4.33204 122.98 4.78268C122.656 4.93289 122.286 5.19939 121.935 5.53616V5.03949C121.935 4.65427 121.581 4.34173 121.151 4.34173H118.852C118.487 4.34173 118.188 4.65669 118.188 5.03949V18.716C118.188 19.1013 118.487 19.4138 118.852 19.4138H121.151C121.584 19.4138 121.935 19.0988 121.935 18.716V10.2993C121.935 8.38292 123.981 7.45984 125.312 7.45984C127.291 7.45984 128.7 9.14851 128.7 11.2297V18.716C128.7 19.1013 129 19.4138 129.364 19.4138H131.389C131.754 19.4138 132.053 19.0988 132.053 18.716V11.0407Z" fill="white"/>
<path d="M25.139 4.46875H22.853C22.4203 4.46875 21.9522 4.76675 21.8134 5.13017L18.1449 14.6274L14.7322 5.13501C14.6369 4.86851 14.3648 4.63592 14.0573 4.53174C13.9702 4.49298 13.8695 4.47117 13.7524 4.47117H11.9454C11.8257 4.47117 11.7195 4.4954 11.6324 4.53659C11.3304 4.64319 11.0691 4.87578 10.982 5.14228L7.83057 14.6299L3.9008 5.12532C3.75112 4.76433 3.27759 4.46875 2.84488 4.46875H0.558862C0.126151 4.46875 -0.102451 4.76433 0.0445078 5.12532L5.55272 18.4385C5.7024 18.7995 6.17593 19.0926 6.60864 19.0926H8.89466C9.32737 19.0926 9.77913 18.7922 9.9016 18.4239L12.9142 9.35064L16.18 18.4288C16.3106 18.7946 16.7733 19.095 17.2032 19.095H19.4893C19.9193 19.095 20.3873 18.797 20.5289 18.4336L25.667 5.13017C25.8085 4.76675 25.569 4.46875 25.1363 4.46875H25.139Z" fill="white"/>
<path d="M176.897 4.46875H174.611C174.178 4.46875 173.705 4.76433 173.555 5.12532L169.982 13.7601L166.409 5.12532C166.259 4.76433 165.785 4.46875 165.353 4.46875H163.067C162.634 4.46875 162.405 4.76433 162.552 5.12532L168.061 18.4385C168.21 18.7995 168.684 19.0926 169.116 19.0926H170.842C171.275 19.0926 171.748 18.797 171.898 18.4385L177.406 5.12532C177.556 4.76433 177.324 4.46875 176.892 4.46875H176.897Z" fill="white"/>
</g>
<defs>
<clipPath id="clip0_2000_33762">
<rect width="195" height="20" fill="white"/>
</clipPath>
</defs>
</svg>
