<svg width="488" height="134" viewBox="0 0 488 134" fill="none" xmlns="http://www.w3.org/2000/svg">
<path d="M87.8475 120.437C80.156 134.023 60.3279 134.023 52.6364 120.437L2.58497 32.0273C-4.91546 18.7787 4.80004 2.46486 20.1905 2.46485L120.293 2.46485C135.684 2.46484 145.399 18.7787 137.899 32.0273L87.8475 120.437Z" fill="#1975FF"/>
<path d="M309.461 118.993C301.728 132.313 282.395 132.313 274.662 118.993L225.362 34.0781C217.629 20.758 227.296 4.10798 242.762 4.10797L341.361 4.10797C356.827 4.10796 366.494 20.758 358.761 34.0781L309.461 118.993Z" fill="#0BD55A"/>
<path d="M400.153 12.6544C407.844 -0.931667 427.672 -0.931689 435.364 12.6544L485.415 101.064C492.915 114.313 483.2 130.626 467.81 130.626L367.707 130.626C352.316 130.626 342.601 114.313 350.101 101.064L400.153 12.6544Z" fill="white"/>
<path d="M158.559 23.3504C158.559 10.4543 169.041 0 181.973 0C194.904 0 205.387 10.4543 205.387 23.3504V109.741C205.387 122.637 194.904 133.091 181.973 133.091C169.041 133.091 158.559 122.637 158.559 109.741V23.3504Z" fill="white"/>
</svg>
