<svg width="25" height="24" viewBox="0 0 25 24" fill="none" xmlns="http://www.w3.org/2000/svg">
<path d="M16.734 3C14.9999 3 13.3356 3.81 12.2493 5.09C11.163 3.81 9.49866 3 7.76456 3C4.695 3 2.2832 5.42 2.2832 8.5C2.2832 12.28 5.67168 15.36 10.8042 20.04L12.2493 21.35L13.6944 20.03C18.8269 15.36 22.2154 12.28 22.2154 8.5C22.2154 5.42 19.8036 3 16.734 3ZM12.349 18.55L12.2493 18.65L12.1496 18.55C7.40578 14.24 4.27642 11.39 4.27642 8.5C4.27642 6.5 5.77134 5 7.76456 5C9.29934 5 10.7943 5.99 11.3225 7.36H13.1861C13.7044 5.99 15.1993 5 16.734 5C18.7273 5 20.2222 6.5 20.2222 8.5C20.2222 11.39 17.0928 14.24 12.349 18.55Z" fill="white"/>
</svg>
