<svg width="25" height="25" viewBox="0 0 25 25" fill="none" xmlns="http://www.w3.org/2000/svg">
<g opacity="0.9" clip-path="url(#clip0_2381_33658)">
<path fill-rule="evenodd" clip-rule="evenodd" d="M8.31856 3.47754C8.74139 3.47754 9.08416 3.81751 9.08416 4.23688V5.50246H15.7194V4.23688C15.7194 3.81751 16.0622 3.47754 16.485 3.47754C16.9078 3.47754 17.2506 3.81751 17.2506 4.23688V5.50246H19.5474C20.534 5.50246 21.3338 6.29573 21.3338 7.27427V11.3241V18.4113C21.3338 19.3899 20.534 20.1831 19.5474 20.1831H5.25614C4.26953 20.1831 3.46973 19.3899 3.46973 18.4113V11.3241V7.27427C3.46973 6.29573 4.26953 5.50246 5.25614 5.50246H7.55295V4.23688C7.55295 3.81751 7.89572 3.47754 8.31856 3.47754ZM15.7194 7.02115V8.28673C15.7194 8.7061 16.0622 9.04607 16.485 9.04607C16.9078 9.04607 17.2506 8.7061 17.2506 8.28673V7.02115H19.5474C19.6884 7.02115 19.8026 7.13448 19.8026 7.27427V10.5648H5.00094V7.27427C5.00094 7.13448 5.11519 7.02115 5.25614 7.02115H7.55295V8.28673C7.55295 8.7061 7.89572 9.04607 8.31856 9.04607C8.74139 9.04607 9.08416 8.7061 9.08416 8.28673V7.02115H15.7194ZM5.00094 12.0835H19.8026V18.4113C19.8026 18.5511 19.6884 18.6645 19.5474 18.6645H5.25614C5.11519 18.6645 5.00094 18.5511 5.00094 18.4113V12.0835Z" fill="white"/>
</g>
<defs>
<clipPath id="clip0_2381_33658">
<rect width="24.4993" height="24.2991" fill="white" transform="translate(0.152344 0.187012)"/>
</clipPath>
</defs>
</svg>
