<svg width="25" height="25" viewBox="0 0 25 25" fill="none" xmlns="http://www.w3.org/2000/svg">
<g clip-path="url(#clip0_2381_33697)">
<path d="M6.5 10.5C5.4 10.5 4.5 11.4 4.5 12.5C4.5 13.6 5.4 14.5 6.5 14.5C7.6 14.5 8.5 13.6 8.5 12.5C8.5 11.4 7.6 10.5 6.5 10.5ZM18.5 10.5C17.4 10.5 16.5 11.4 16.5 12.5C16.5 13.6 17.4 14.5 18.5 14.5C19.6 14.5 20.5 13.6 20.5 12.5C20.5 11.4 19.6 10.5 18.5 10.5ZM12.5 10.5C11.4 10.5 10.5 11.4 10.5 12.5C10.5 13.6 11.4 14.5 12.5 14.5C13.6 14.5 14.5 13.6 14.5 12.5C14.5 11.4 13.6 10.5 12.5 10.5Z" fill="white"/>
</g>
<defs>
<clipPath id="clip0_2381_33697">
<rect width="24" height="24" fill="white" transform="translate(0.5 0.5)"/>
</clipPath>
</defs>
</svg>
