<svg width="200" height="22" viewBox="0 0 200 22" fill="none" xmlns="http://www.w3.org/2000/svg">
<g clip-path="url(#clip0_2738_2558)">
<path d="M35.6757 4.71094C30.8274 4.71094 26.8945 8.58059 26.8945 13.3564C26.8945 18.1321 30.8274 21.9991 35.6757 21.9991C40.5241 21.9991 44.457 18.1295 44.457 13.3564C44.457 8.58326 40.5269 4.71094 35.6757 4.71094ZM35.6757 18.6278C32.717 18.6278 30.3194 16.2666 30.3194 13.3564C30.3194 10.4461 32.717 8.08223 35.6757 8.08223C38.6344 8.08223 41.0321 10.4435 41.0321 13.3564C41.0321 16.2693 38.6344 18.6278 35.6757 18.6278Z" fill="white"/>
<path d="M157.32 4.71094C152.469 4.71094 148.539 8.58059 148.539 13.3564C148.539 18.1321 152.472 21.9991 157.32 21.9991C162.169 21.9991 166.101 18.1295 166.101 13.3564C166.101 8.58326 162.169 4.71094 157.32 4.71094ZM157.32 18.6278C154.362 18.6278 151.964 16.2666 151.964 13.3564C151.964 10.4461 154.362 8.08223 157.32 8.08223C160.279 8.08223 162.677 10.4435 162.677 13.3564C162.677 16.2693 160.279 18.6278 157.32 18.6278Z" fill="white"/>
<path d="M83.8866 0H81.6508C81.207 0 80.8469 0.346457 80.8469 0.767535V6.66796C79.3313 5.4447 77.3942 4.70915 75.2812 4.70915C70.43 4.70915 66.5 8.5788 66.5 13.3546C66.5 18.1303 70.4328 21.9973 75.2812 21.9973C77.3942 21.9973 79.3313 21.2618 80.8469 20.0385V20.7448C80.8469 21.1685 81.2098 21.5123 81.6508 21.5123H83.8866C84.3304 21.5123 84.6904 21.1658 84.6904 20.7448V0.767535C84.6904 0.346457 84.3276 0 83.8866 0ZM75.2812 18.6287C72.3225 18.6287 69.9248 16.2675 69.9248 13.3572C69.9248 10.447 72.3225 8.0831 75.2812 8.0831C78.2399 8.0831 80.6376 10.4443 80.6376 13.3572C80.6376 16.2701 78.2399 18.6287 75.2812 18.6287Z" fill="white"/>
<path d="M191.215 4.71165C186.364 4.71165 182.434 8.5813 182.434 13.3571C182.434 18.1328 186.366 21.9998 191.215 21.9998C194.704 21.9998 197.718 19.9957 199.134 17.0935C199.254 16.8456 199.298 16.31 198.779 16.31H196.286C195.622 16.31 195.298 16.7657 195.103 16.9709C194.129 17.9916 192.747 18.6285 191.212 18.6285C188.678 18.6285 186.559 16.8936 186.001 14.5643H198.896C199.856 14.5643 199.979 13.9647 199.993 13.3544C199.993 8.58131 196.06 4.70898 191.212 4.70898L191.215 4.71165ZM186.216 11.4729C186.986 9.49275 188.932 8.08294 191.215 8.08294C193.498 8.08294 195.444 9.49275 196.214 11.4729H186.216Z" fill="white"/>
<path d="M96.3281 4.71183C91.4769 4.71183 87.5469 8.58149 87.5469 13.3573C87.5469 18.133 91.4797 22 96.3281 22C99.8171 22 102.832 19.9959 104.247 17.0937C104.367 16.8458 104.411 16.3101 103.892 16.3101H101.4C100.735 16.3101 100.412 16.7659 100.216 16.9711C99.2421 17.9918 97.8605 18.6287 96.3253 18.6287C93.7909 18.6287 91.6723 16.8938 91.1141 14.5645H104.01C104.97 14.5645 105.093 13.9649 105.107 13.3546C105.107 8.58149 101.174 4.70917 96.3253 4.70917L96.3281 4.71183ZM91.329 11.4731C92.0994 9.49293 94.0449 8.08312 96.3281 8.08312C98.6113 8.08312 100.557 9.49293 101.327 11.4731H91.329Z" fill="white"/>
<path d="M63.6167 9.99088C63.4492 9.12474 63.1533 8.39718 62.7263 7.81353C62.1736 7.05932 60.39 5.10584 56.8005 4.75406C55.4467 4.6208 54.1823 4.92462 53.0156 5.42032C52.3987 5.68149 51.6339 6.25981 51.0506 6.96605V5.70281C51.0506 5.27907 50.6877 4.93528 50.2467 4.93528H48.0109C47.5699 4.93528 47.207 5.28174 47.207 5.70281V20.747C47.207 21.1708 47.5699 21.5146 48.0109 21.5146H50.2467C50.6905 21.5146 51.0506 21.1681 51.0506 20.747V12.3041L51.0617 12.512C51.0617 10.2227 53.4426 8.3652 55.8431 8.3652C58.2436 8.3652 59.949 10.2227 59.949 12.512V20.747C59.949 21.1708 60.3119 21.5146 60.7529 21.5146H62.9886C63.4325 21.5146 63.7925 21.1681 63.7925 20.747V12.5147C63.7925 12.5147 63.7925 12.5094 63.7925 12.5067C63.7869 11.2088 63.7283 10.5879 63.6167 9.99355V9.99088Z" fill="white"/>
<path d="M116.718 4.75781C115.677 4.80845 114.695 5.02965 113.771 5.42141C113.154 5.68259 112.389 6.2609 111.808 6.96447V5.70391C111.808 5.28016 111.446 4.93637 111.004 4.93637H108.769C108.328 4.93637 107.965 5.28283 107.965 5.70391V20.7481C107.965 21.1719 108.328 21.5157 108.769 21.5157H111.004C111.448 21.5157 111.808 21.1692 111.808 20.7481V12.3372L111.817 12.5131C111.817 10.2238 114.2 8.36629 116.598 8.36629C116.939 8.36629 117.558 8.50487 117.558 7.97186V5.37344C117.558 4.74982 116.807 4.75515 116.715 4.76048L116.718 4.75781Z" fill="white"/>
<path d="M135.444 12.144C135.444 9.79075 137.057 8.36228 139.087 8.36228C141.116 8.36228 142.38 10.0599 142.38 12.3519V20.5869C142.38 21.0106 142.743 21.3544 143.184 21.3544H145.543C145.917 21.3544 146.224 21.0079 146.224 20.5869V12.1067C146.224 12.1067 146.224 12.0934 146.224 12.088C146.215 10.9634 146.165 10.3851 146.076 9.83072C145.933 8.96458 145.682 8.23702 145.322 7.65338C144.853 6.89917 143.684 4.5939 139.028 4.5939C136.463 4.5939 134.911 5.74787 133.987 7.13103C133.278 6.23291 131.818 4.88172 129.342 4.5939C128.198 4.46065 127.126 4.76446 126.138 5.26016C125.806 5.42539 125.426 5.71855 125.066 6.08899V5.54266C125.066 5.11891 124.703 4.77512 124.262 4.77512H121.904C121.53 4.77512 121.223 5.12158 121.223 5.54266V20.5869C121.223 21.0106 121.53 21.3544 121.904 21.3544H124.262C124.706 21.3544 125.066 21.0079 125.066 20.5869V11.3285C125.066 9.22043 127.165 8.20504 128.53 8.20504C130.559 8.20504 132.005 10.0626 132.005 12.3519V20.5869C132.005 21.0106 132.312 21.3544 132.686 21.3544H134.763C135.137 21.3544 135.444 21.0079 135.444 20.5869V12.144Z" fill="white"/>
<path d="M25.7836 4.91406H23.4389C22.9951 4.91406 22.5151 5.24186 22.3727 5.64162L18.6101 16.0886L15.1099 5.64695C15.0122 5.3538 14.7331 5.09795 14.4177 4.98335C14.3284 4.94071 14.2251 4.91673 14.1051 4.91673H12.2517C12.1289 4.91673 12.02 4.94338 11.9307 4.98868C11.6209 5.10595 11.3529 5.36179 11.2636 5.65495L8.03136 16.0913L4.00082 5.63629C3.8473 5.2392 3.36163 4.91406 2.91782 4.91406H0.573191C0.129386 4.91406 -0.105077 5.2392 0.045649 5.63629L5.6951 20.2807C5.84862 20.6778 6.33429 21.0003 6.7781 21.0003H9.12273C9.56653 21.0003 10.0299 20.6698 10.1555 20.2648L13.2454 10.2841L16.5949 20.2701C16.7288 20.6725 17.2033 21.003 17.6444 21.003H19.989C20.43 21.003 20.9101 20.6752 21.0552 20.2754L26.3251 5.64162C26.4702 5.24186 26.2246 4.91406 25.7808 4.91406H25.7836Z" fill="white"/>
<path d="M181.434 4.91406H179.089C178.646 4.91406 178.16 5.2392 178.006 5.63629L174.341 15.1345L170.677 5.63629C170.523 5.2392 170.037 4.91406 169.594 4.91406H167.249C166.805 4.91406 166.571 5.2392 166.721 5.63629L172.371 20.2807C172.524 20.6778 173.01 21.0003 173.454 21.0003H175.224C175.667 21.0003 176.153 20.6752 176.307 20.2807L181.956 5.63629C182.109 5.2392 181.872 4.91406 181.428 4.91406H181.434Z" fill="white"/>
</g>
<defs>
<clipPath id="clip0_2738_2558">
<rect width="200" height="22" fill="white"/>
</clipPath>
</defs>
</svg>
