<svg width="100" height="101" viewBox="0 0 100 101" fill="none" xmlns="http://www.w3.org/2000/svg">
<path d="M82.713 83.5H81.275C77.2608 83.5 73.9955 80.4421 73.9955 76.6838V74.3867H25.997V76.6838C25.997 80.4421 22.7317 83.5 18.7175 83.5H17.2795C13.2653 83.5 10 80.4421 10 76.6838V53.9156C10 50.5791 10.674 47.3329 12.0146 44.2751L21.2339 23.1713C22.7392 19.7294 26.3041 17.5 30.3108 17.5H69.6143C73.6136 17.5 77.1784 19.7143 78.6838 23.1488L87.9629 44.2525C89.311 47.3254 90 50.5866 90 53.9457V76.6838C90 80.4421 86.7347 83.5 82.7205 83.5H82.713ZM21.496 69.8752H78.4891V76.6914C78.4891 77.9567 79.7398 78.9885 81.275 78.9885H82.713C84.2483 78.9885 85.499 77.9567 85.499 76.6914V53.9533C85.499 51.2268 84.9448 48.5832 83.8439 46.0902L74.5647 24.9865C73.7858 23.2165 71.7937 22.0265 69.6068 22.0265H30.3033C28.109 22.0265 26.1168 23.2165 25.338 24.994L16.1187 46.0977C15.0328 48.5757 14.4861 51.2117 14.4861 53.9156V76.6838C14.4861 77.9492 15.7368 78.981 17.272 78.981H18.71C20.2453 78.981 21.496 77.9492 21.496 76.6838V69.8677V69.8752Z" fill="url(#paint0_linear_2745_27389)"/>
<path d="M35.6149 55.9267C38.5956 55.9267 41.0072 53.5015 41.0072 50.5039C41.0072 47.5063 38.5956 45.0811 35.6149 45.0811C32.6342 45.0811 30.2227 47.5063 30.2227 50.5039C30.2227 53.5015 32.6342 55.9267 35.6149 55.9267Z" fill="url(#paint1_linear_2745_27389)"/>
<path d="M64.3805 55.9267C67.3612 55.9267 69.7728 53.5015 69.7728 50.5039C69.7728 47.5063 67.3612 45.0811 64.3805 45.0811C61.3998 45.0811 58.9883 47.5063 58.9883 50.5039C58.9883 53.5015 61.3998 55.9267 64.3805 55.9267Z" fill="url(#paint2_linear_2745_27389)"/>
<defs>
<linearGradient id="paint0_linear_2745_27389" x1="82.4859" y1="69.0042" x2="37.6403" y2="14.6459" gradientUnits="userSpaceOnUse">
<stop stop-color="#2B8BA7"/>
<stop offset="1" stop-color="#1E2A71"/>
</linearGradient>
<linearGradient id="paint1_linear_2745_27389" x1="39.9942" y1="53.5446" x2="32.4882" y2="46.0809" gradientUnits="userSpaceOnUse">
<stop stop-color="#2B8BA7"/>
<stop offset="1" stop-color="#1E2A71"/>
</linearGradient>
<linearGradient id="paint2_linear_2745_27389" x1="68.7598" y1="53.5446" x2="61.2538" y2="46.0809" gradientUnits="userSpaceOnUse">
<stop stop-color="#2B8BA7"/>
<stop offset="1" stop-color="#1E2A71"/>
</linearGradient>
</defs>
</svg>
