<svg width="846" height="845" viewBox="0 0 846 845" fill="none" xmlns="http://www.w3.org/2000/svg">
<g clip-path="url(#clip0_2745_27252)">
<g opacity="0.25">
<path d="M503.456 32.3465L503.893 34.8834L498.655 37.4202L497.116 32.6825L488.523 28.7933L500.496 27.004L504.196 19.5447L485.135 13.8661L483.664 23.6775L478.644 18.377L479.081 13.2949C479.081 13.2949 472.557 14.3617 471.716 14.3617C470.875 14.3617 474.322 21.1323 474.322 21.1323L470.186 28.7177L465.2 20.6955L461.5 35.8998L458.869 36.7482L459.306 27.6844L459.087 23.0139L456.926 17.117L452.571 21.3171L451.94 29.5661L448.897 34.0182L442.154 28.9361L434.973 34.6398L445.197 38.4367V45.4256L442.154 42.4436L430.399 44.9804L436.26 50.4657L431.492 49.8357L426.473 60.4031L422.992 53.0026L419.948 59.5547L412.801 51.3057L415.181 61.2432L410.607 58.7063L407.126 60.8064L413.432 67.9885L409.102 68.4253L399.761 66.7285L396.91 75.8175L404.091 77.9175L402.367 85.0997L397.347 83.4028L394.741 80.6728L384.298 79.3876L393.017 82.7728L389.318 85.7213L378.001 88.4766L384.525 89.9466L385.4 93.7435L389.755 90.1734L391.916 91.425L395.615 87.8549L398.441 89.325L405.621 88.9134L402.359 93.1134L394.522 95.8687L395.842 102.202L385.4 104.739L384.963 108.973L390.604 107.058L387.998 110.855L391.916 112.551L389.974 114.87L384.298 115.937L382.575 119.104L388.435 121.422L382.129 124.371L376.487 130.511L371.031 140.23L373.444 143.615L367.112 148.252L369.963 149.949L366.701 157.971L367.331 166.22L369.526 169.169L360.184 173.402L356.048 176.569L359.747 178.451L355.173 187.54L353.45 185.221L346.269 190.488L343.89 200.115L338.433 204.223L342.662 204.659L344.293 207.7L353.105 205.911L343.007 210.993L341.157 206.23L337.584 208.045L335.515 213.219L332.472 211.304L328.772 214.563L328.991 217.1L326.578 219.015L326.048 221.552L322.912 219.108L325.737 226.097L320.843 222.401L311.687 222.09L311.157 226.828L316.925 227.357L316.051 231.464L312.133 230.431L303.447 232.657L306.054 235.169L304.423 237.487L300.193 238.991L301.068 241.939L298.562 240.873L289.751 239.495L291.071 244.476L298.344 247.954L292.038 247.013L288.775 251.432L291.5 256.917L288.548 257.673L288.33 262.94L297.453 265.922L288.237 266.233L289.213 271.718L286.926 273.507L289.431 276.985L294.417 274.885L292.567 280.152L289.65 279.74L290.18 286.074L293.972 286.166L296.603 289.459L298.983 285.352L301.051 287.67L295.376 294.004L298.226 296.322L292.551 299.892L290.171 299.044L289.07 310.048L291.483 306.881L295.586 306.033L301.261 307.1L298.411 315.752L292.332 313.433L291.424 320.296L296.032 324.496L304.969 331.956V334.938L308.358 334.341L315.101 337.634L328.957 332.552L339.08 316.567L349.237 312.997L354.063 306.949L351.305 300.144L353.466 299.766L355.005 296.566L358.52 308.511L360.369 308.452L362.69 310.3L364.758 311.115L365.069 314.719L367.449 315.097L369.828 306.26L367.979 299.397L369.517 294.037L373.814 290.434L377.202 278.799L371.964 265.351L375.974 264.158L377.194 256.976L369.509 248.609V238.168L367.348 226.819L365.532 212.178L368.887 198.729L377.505 194.562L387.039 193.966L384.879 184.407L381.49 181.114L387.67 164.087L384.879 147.345L394.724 142.582L392.277 138.382L400.273 123.463L397.171 115.097L397.263 114.878L403.342 100.774L412.246 99.5816L411.935 89.1066L415.635 85.8137L427.927 87.9137V78.0687L427.019 72.6758L433.855 70.5086L433.418 66.0901L440.161 63.7716L447.123 75.3723L456.245 74.7423L459.289 69.4753L470.606 73.6754L474.524 61.638L471.892 55.0858L475.592 42.8552L480.612 39.6883L484.967 34.1694L489.734 38.6215L497.133 40.5367L498.108 44.7368L496.788 50.3481L499.58 55.6486L502.968 49.0629L500.807 45.2072L505.726 39.2179L509.426 38.3107L510.645 32.0441L503.431 32.2961L503.456 32.3465Z" fill="#00AAD2"/>
<path d="M562.465 487.208L550.619 509.031L553.847 518.557L556.168 520.657L551.552 522.161L544.094 520.061L541.05 517.742L534.307 516.675L523.898 519.439L515.406 521.539L513.018 525.991L509.1 525.361L507.158 521.757L501.297 518.372L495.841 523.664L492.141 518.994L488.568 516.146L487.685 513.105L482.926 512.887L480.067 510.972L476.931 512.887L472.702 510.123L474.115 508.023L473.677 506.016L470.096 507.712L464.328 505.075L460.41 504.235L459.661 506.234L462.352 508.116L460.41 509.72L459.443 512.131L452.918 506.864L449.967 505.923L452.792 501.471L451.287 499.463L449 500.623L444.107 500.312L435.959 498.842L433.571 494.07L430.847 494.919L430.183 497.145L428.241 497.456L429.813 491.534L428.745 484.822L425.861 481.63L423.011 475.699L423.667 469.592L420.623 464.51L421.06 458.176L413.35 453.943L412.593 451.314L415.292 447.827L415.419 443.913L412.156 432.312L416.991 434.32L417.958 431.75L414.603 429.33L419.404 428.112L421.035 424.038L435.329 417.234L445.956 409.086L452.54 404.6L463.487 399.837L470.692 400.585L470.222 402.307L468.691 404.76L471.382 407.297L474.552 409.086L479.849 409.237L482.136 409.019L482.674 410.808H484.616L487.912 407.078L507.065 406.163L521.426 403.248L530.17 398.325L539.268 401.778L540.487 407.137L543.875 415.226L549.391 421.779L553.25 433.438L546.473 439.99L546.003 444.787L551.871 447.013L552.586 455.858L555.848 459.277L558.926 466.451L563.373 472.129L566.325 480.622L567.073 483.637L562.465 487.208Z" fill="#00AAD2"/>
<path d="M551.551 522.161L547.355 537.584L542.369 540.978L538.006 537.181L531.489 539.499L522.585 539.717L515.624 550.285L509.318 548.37L506.938 553.452L499.32 555.989L496.933 561.037L481.916 565.052L476.274 560.634L470.221 560.256L466.555 552.041L466.714 544.422L471.036 540.129L480.386 536.206L484.304 527.243L492.14 518.994L495.84 523.665L501.296 518.373L507.157 521.758L509.099 525.362L513.017 525.992L515.405 521.54L523.897 519.439L534.306 516.676L541.049 517.743L544.093 520.061L551.551 522.161Z" fill="#00AAD2"/>
<path d="M492.141 518.994L484.305 527.243L480.386 536.206L471.037 540.129L466.715 544.421L459.467 543.514L455.331 545.773L450.563 543.665L436.27 541.725L430.721 550.688L425.045 552.477L421.035 551.284L417.209 547.554L406.136 541.288L401.377 536.332L396.921 535.458L393.061 528.587L393.532 524.857L387.832 517.087L387.672 514.105L391.531 516.49L395.382 512.005L400.309 511.249L402.436 509.031L405.825 507.964L407.204 506.015L412.913 504.075L414.292 502.126L420.278 498.27L418.739 496.17L421.035 495.104L424.574 495.86L425.045 498.556L427.366 498.934L428.24 497.456L430.183 497.145L430.847 494.919L433.571 494.07L435.959 498.842L444.106 500.312L449 500.622L451.287 499.463L452.792 501.471L449.966 505.923L452.918 506.864L459.442 512.131L460.409 509.72L462.351 508.115L459.661 506.234L460.409 504.235L464.327 505.075L470.095 507.712L473.677 506.015L474.114 508.023L472.702 510.123L476.931 512.887L480.067 510.971L482.926 512.887L487.685 513.105L488.567 516.146L492.141 518.994Z" fill="#00AAD2"/>
<path d="M414.601 429.33L412.626 430.556L408.867 430.304L407.707 428.137L409.338 427.381L410.658 427.566L408.775 425.34L405.109 424.055L409.75 424.466L414.61 429.322L414.601 429.33ZM402.09 416.192L402.654 413.529L400.081 412.773L398.828 411.018L395.978 413.059L396.037 416.478L394.221 417.704L398.517 421.056L400.678 418.889L404.907 418.83L402.082 416.201L402.09 416.192ZM428.744 484.822L425.86 481.621L423.009 475.699L423.665 469.584L420.622 464.502L421.059 458.168L413.349 453.934L412.6 451.305L415.299 447.827L415.425 443.904L412.163 432.304L407.934 431.018L404.108 424.155L397.365 422.366L393.447 419.107L389.436 418.67L392.261 416.444L386.931 416.881L382.475 423.845L375.95 425.76L371.847 430.615L368.459 429.548L363.565 429.137L365.945 424.996L366.289 419.603L361.488 421.921L356.284 419.603L353.677 418.754L351.609 419.603L350.735 417.906L352.273 415.898L350.516 415.05L352.366 413.89L350.827 411.698L349.011 412.009L345.622 410.539L342.671 411.387L333.456 408.724L333.767 413.05L338.224 418.351L334.12 421.829L334.339 423.299L336.945 422.669L337.795 423.609L335.415 425.836L338.366 427.532L337.173 430.699L343.134 432.236L348.052 438.192L344.513 438.285L341.881 435.151L333.919 433.866L331.665 440.511L329.286 440.292L328.596 444.089L325.771 443.652L324.989 437.755L313.605 438.352L311.066 444.03L314.168 446.727L311.722 449.297L313.042 453.531L310.217 462.183H306.08L305.861 465.568L310.881 467.265L309.342 472.121L305.861 476.321V479.076L294.796 480.546L298.681 491.735L294.418 500.799L296.554 502.269L295.015 506.091L298.277 510.635L297.058 512.551L299.345 513.491L300.884 516.877L297.495 517.633L296.369 520.892L296.083 524.84L299.471 527.755L302.137 528.981L297.748 535.223L305.18 543.06L327.571 547.915L320.424 558.164L319.171 579.29L323.938 580.668L327.478 578.601L334.692 578.727L332.531 576.661L335.323 575.157L340.998 577.854L351.155 580.836L354.384 578.895L362.38 584.885L366.365 579.802L371.754 580.088L375.74 583.095L380.978 581.155L392.362 577.114L393.741 575.174L402.956 575.611L405.563 578.618L408.043 574.888L401.897 565.925L402.805 562.196L409.733 558.155L410.641 552.922L415.56 554.266L417.25 547.554L406.185 541.288L401.418 536.332L396.962 535.458L393.102 528.595L393.573 524.865L387.864 517.087L387.704 514.105L391.564 516.49L395.423 512.005L400.342 511.249L402.477 509.023L405.866 507.956L407.244 506.015L412.953 504.075L414.332 502.134L420.319 498.279L418.78 496.179L421.067 495.112L424.607 495.868L425.078 498.564L427.398 498.942L428.273 497.472L429.837 491.55L428.769 484.838L428.744 484.822Z" fill="#00AAD2"/>
<path d="M305.836 465.578L310.856 467.275L309.317 472.13L305.836 476.33V479.085L294.771 480.555L298.656 491.744L294.393 500.808L296.529 502.278L294.99 506.1L290.189 505.067L291.291 496.197L288.465 492.904L282.79 493.433L280.31 491.022L272.255 489.737L271.944 493.66L270.002 493.945L270.06 492.282L268.867 489.619L266.142 488.838L261.568 489.275L257.65 487.234L258.651 485.007L261.627 485.226L263.418 486.73L265.957 487.36L269.783 484.537L272.852 483.252L266.546 479.144L267.017 476.011L271.154 473.004L274.542 466.233L277.771 454.792L281.47 455.388L282.597 458.303L284.85 460.563L280.621 463.545L280.68 469.593L284.219 467.653L288.516 463.923L290.677 462.134L290.046 459.967L290.206 456.892L286.666 456.136L285.758 451.65L294.502 444.628L298.984 444.939L305.567 443.275L311.68 449.298L313 453.532L310.175 462.184H306.038L305.82 465.57L305.836 465.578ZM265.638 490.342L262.25 490.997L259.239 489.678L254.094 490.056L256.036 492.811L263.654 494.911L269.985 493.937L265.629 490.333L265.638 490.342Z" fill="#00AAD2"/>
<path d="M152.271 409.178V411.589L147.79 415.822L145.183 415.293L145.31 413.411L149.228 409.396L152.271 409.178ZM212.91 271.238L210.152 272.582V277.505H207.831L207.991 279.294L210.749 280.957L209.37 287.073L210.908 288.106L214.137 280.798L214.919 277.194L212.91 271.238ZM190.771 306.788L186.475 302.302L183.557 301.991L182.305 305.125L183.087 308.132L185.693 306.469L187.543 307.376L187.383 310.358L190.771 306.788ZM144.435 316.221L145.629 315.062L145.192 309.888L138.667 313.81L137.036 315.91L133.463 314.44L132.714 321.404L131.613 324.159L134.337 325.73L136.279 323.941L137.911 322.059L141.484 322.689L142.896 318.145L145.848 316.675L144.435 316.238V316.221ZM138.667 356.29L137.507 353.375L134.901 355.761L137.036 356.828L136.439 358.172L137.978 358.676L134.371 360.02L134.06 361.431L138.289 361.087L142.207 360.179L143.586 358.609L138.667 356.29ZM135.439 367.857L134.22 369.739L133.908 369.302L130.52 370.117L128.83 373.847L131.529 373.317L130.369 377.047L134.699 374.88L135.447 370.612L139.365 366.286L135.447 367.857H135.439ZM125.753 331.426L123.146 334.088L124.777 337.129L124.87 345.815L128.443 344.437V333.341L125.744 331.426H125.753ZM144.814 342.018L144.343 338.885L140.988 335.752L141.896 332.182L139.416 330.392L138.348 333.374L135.119 332.467L133.581 334.13L136.338 336.197L136.498 337.701L141.736 341.741L140.988 344.723L144.814 342.027V342.018ZM135.91 398.921L132.992 398.325L134.808 395.939L131.453 385.934L126.972 383.994L120.515 385.027L116.689 386.531L112.83 388.757L110.694 392.646L107.903 392.957H105.927L107.465 396.09L101.445 398.157L103.926 403.986L109.912 406.994L112.83 407.43L113.612 403.39L116.058 401.92L119.918 408.312L120.077 410.723L124.214 411.479L128.351 412.353L130.512 409.22L134.522 408.783L137.591 404.742L135.901 398.913L135.91 398.921ZM224.605 476.136L230.44 471.809L232.601 457.168L225.984 451.212L218.148 450.145L212.439 453.749L209.647 450.675L212.817 448.356L214.667 444.66L211.716 437.797L207.705 434.193L203.131 431.337L212.691 433.345L208.773 427.011L208.462 421.333L203.543 412.37L197.708 409.077L192.789 386.69L185.39 377.568L180.026 373.527L172.19 375.468L168.019 372.645L172.35 372.805L175.864 370.99L183.574 368.764L182.792 366.068L178.336 364.598L184.011 363.094L194.168 348.016L197.868 341.59L196.178 337.701L177.554 333.534L169.558 336.197L165.892 336.357L173.729 330.678L170.189 330.392L170.971 327.536L183.263 319.321L185.399 312.735L182.792 311.702L179.404 313.332L168.65 312.735L161.436 309.602L158.804 317.968L154.668 318.279L155.139 321.261L154.037 322.017L155.256 325.587L148.202 325.898L148.673 330.821L145.444 333.517L148.513 336.777L147.412 342.329L144.805 342.018L143.737 350.074L138.188 351.141L142.796 356.819L149.102 355.03L144.494 361.423L141.265 369.789L139.886 374.586L136.221 382.641L141.425 381.449L143.906 373.519L145.284 369.352L149.741 371.578L153.28 369.042L151.59 373.401L149.9 378.483L152.347 382.81L142.224 396.384L145.612 401.466L146.68 397.14L152.826 402.063L153.137 397.451L157.594 400.433L164.959 398.803L165.43 396.703L171.887 398.493L168.188 400.593L162.672 406.422L166.498 419.56L170.979 416.553L173.115 416.427L169.449 422.542L169.735 427.935L167.448 429.405L165.287 438.368L163.277 435.235L152.271 435.647L147.378 430.724L144.771 434.521L147.782 438.318L142.669 441.67L141.131 444.492L146.68 443.618L149.909 447.348L147.588 457.353L129.469 464.09L130.066 467.945L129.94 470.482L133.454 471.389L141.291 469.449L143.451 472.305L142.384 474.094L148.37 474.968L150.817 479.605L157.434 480.512L159.914 478.101L167.75 475.438L160.04 485.283L149.757 483.183L142.232 483.78L141.45 486.191L137.625 486.627L133.925 492.306L122.541 501.118L117.462 502.462L115.016 504.847L118.875 505.284L122.701 508.888L124.079 504.999L130.697 501.865L138.533 502.899L146.369 506.351L151.288 498.421L159.124 497.388L171.416 501.714L175.334 498.236L190.099 499.614L195.648 498.766L208.378 500.773L225.749 494.221L226.152 487.829L217.685 487.232L211.539 484.099L219.375 482.31L217.837 478.42L224.143 477.664L224.614 476.161L224.605 476.136Z" fill="#00AAD2"/>
<path d="M466.302 790.773L469.472 789.077L468.37 793.403L462.316 809.892L465.074 813.622L467.395 819.3L463.914 827.667L453.85 827.449L447.392 820.115L439.338 818.922L421.345 810.43L414.82 809.523L411.751 805.507L413.601 797.636L416.577 796.603L418.957 798.485L421.496 798.392L423.505 795.948L426.953 794.226L434.637 798.93L441.347 797.359L449.183 797.199L455.548 792.932L461.694 793.529L463.763 791.143L466.302 790.765V790.773ZM518.002 749.453L509.973 745.883L507.593 738.482L493.67 736.785L495.831 734.685L489.97 733.837L486.052 743.338L485.396 748.604L483.891 753.905L485.396 756.442L496.276 760.642L496.058 767.194L497.815 770.798L490.853 771.831L486.498 776.913L487.372 783.028L479.973 791.084L479.755 796.763L472.793 796.981L470.851 790.647L475.181 786.01L474.777 780.307L479.544 778.207L479.763 772.688L475.408 762.784L471.523 756.643L466.722 747.361L461.736 749.461L453.017 745.664L454.337 742.061L450.201 735.542L441.734 738.491L442.583 732.787L437.378 732.35L429.98 723.479L417.157 723.916L408.253 718.431L400.636 711.66L392.387 705.327L388.688 701.311L381.07 698.145L380.415 695.826L374.554 689.056L370.417 685.67L370.636 681.655L364.994 673.44L363.708 664.754L358.907 660.117L354.77 660.965L346.959 654.228L338.904 652.943L333.481 658.244L329.345 660.125L328.689 665.611L318.372 668.777L321.475 662.914L320.567 659.117L313.1 660.025L307.047 654.447L308.896 649.18L307.677 644.635L302.691 637.705L306.736 637.109L311.091 633.186L306.265 623.064L309.527 619.611V619.578L313.445 620.14L318.364 618.04L323.282 618.796L328.521 614.185L327.579 610.581L330.211 608.195L332.498 607.003L333.91 611.488L338.518 615.655L340.653 620.737L343.411 619.704L342.343 616.722L344.824 611.925L346.8 606.095H349.431L350.499 610.295L357.587 608.506L360.034 610.892L361.724 610.732L359.243 604.743L362.346 601.761L363.414 603.861L366.331 602.357L365.112 599.224L365.297 596.124L369.4 596.343L369.686 598.224L374.798 597.191L378.027 593.369L386.62 592.521L393.581 589.043L393.363 592.613L398.038 598.006L419.982 601.391L414.122 608.473L419.545 610.043L416.846 613.966L422.925 617.889L425.086 621.241L422.707 621.77L421.605 619.67L418.78 618.074L417.056 619.67L411.6 619.359L409.876 622.089L400.409 628.23L401.065 623.904L396.297 628.952L402.477 638.982L400.627 641.964L398.904 641.116L399.971 655.883L423.455 670.273L433.46 693.062L452.807 705.1L470.649 703.403L473.028 706.788L467.387 712.71L477.165 718.633L504.129 727.696L516.951 738.045L518.019 749.453H518.002ZM401.645 659.025L401.14 659.109L400.653 659.663L401.098 660.125L401.645 659.68V659.016V659.025ZM403.309 710.308L402.847 710.291L402.78 710.358L403.276 710.484L403.309 710.316V710.308ZM356.057 735.097L348.658 727.293L334.112 737.415L331.48 734.685L328.655 739.952L336.273 751.36L335.398 755.997L336.054 760.012L334.953 764.246L334.734 778.601L338.871 781.138L345.614 781.987L345.833 774.586L355.174 776.283L358.655 756.627L357.335 750.074L359.529 745.026L356.048 735.089L356.057 735.097Z" fill="#00AAD2"/>
<path d="M320.54 659.101L321.448 662.897L318.346 668.761L316.404 669.231L315.025 668.82L313.461 670.575L312.242 670.668L310.77 673.582L308.979 673.675L302.993 679.101L301.454 682.487L287.783 684.461L280.317 680.983L279.535 678.413L275.205 677.379L276.424 674.649L273.943 672.986L269.899 677.967L265.258 674.8L260.583 673.893L256.699 671.482L248.013 678.287L244.751 677.816L239.168 686.284L240.858 689.887L239.479 696.221L232.896 699.606L226.312 696.624L221.486 698.128L216.441 694.709V692.012L213.684 690.29L210.732 690.45L199.945 685.309L197.969 687.25L188.973 687.88L161.537 676.565L162.639 672.079L156.055 669.324L169.441 639.352L173.174 619.729L173.805 602.828L158.88 587.749L160.133 579.316L149.884 568.437L123.483 554.266L130.319 552.133L123.172 547.025L130.008 540.658H140.257L148.942 539.465L155.778 548.529L174.402 547.303L174.09 533.728L171.61 523.16L178.757 524.387L183.432 523.16L182.801 530.401L196.784 534.039L203.586 531.628V528.587L223.462 517.742L228.137 500.245L243.027 495.7L246.13 504.168H250.805L252.369 510.501L257.01 512.601L264.787 515.331L266.637 522.262L270.681 524.395L275.944 519.565L276.886 527.092L286.202 533.736L292.096 535.24H297.704L305.137 543.077L327.527 547.933L320.381 558.181L319.128 579.307L315.395 583.818L309.812 582.155L310.123 585.759L300.344 597.83L295.081 604.037L294.299 609.304L291.667 612.942L296.149 613.101L297.25 607.364L304.994 605.986L306.877 613.227L309.509 619.561V619.594L306.247 623.047L311.073 633.169L306.718 637.092L302.673 637.688L307.659 644.619L308.878 649.163L307.029 654.43L313.082 660.008L320.549 659.101H320.54ZM352.146 686.72L349.321 687.35L348.884 693.054L345.403 692.424L337.154 699.388L337.592 710.577L339.752 711.425L338.878 715.441L340.635 716.726L339.98 719.674L346.058 723.471L350.195 721.589L352.137 710.4L353.676 700.9L352.137 686.729L352.146 686.72Z" fill="#00AAD2"/>
<path d="M259.061 758.609L255.958 759.676L253.326 757.45L249.593 755.636L250.695 753.065L255.739 752.973L259.061 758.618V758.609ZM204.821 771.84L199.524 776.451L202.063 778.459L208.209 773.662L204.821 771.848V771.84ZM237.427 758.828L236.208 754.56L221.939 762.557L225.328 765.758L228.178 764.817L235.451 770.899L242.034 760.021L237.427 758.828ZM239.495 696.221L232.912 699.606L226.328 696.624L221.502 698.128L216.457 694.709H210.967L210.748 690.442L199.961 685.301L197.985 687.241L188.989 687.871L161.553 676.556L162.655 672.071L156.071 669.315L147.731 668.249L138.919 665.048L135.186 665.678L124.214 661.008L104.901 659.941L89.9428 653.515L61.8518 649.474L51.7538 644.148L43.6318 651.389L24.9492 655.027L30.8769 671.894L26.7066 678.505L27.3623 685.309L29.7754 682.327L39.68 679.975L40.3358 682.983L38.1414 686.183L42.7489 688.317L51.3083 689.787L58.7745 688.317L67.3338 691.517L68.2082 695.784L71.9413 699.203L71.067 704.974L57.6815 711.997L58.3373 714.979L56.3613 726.294L51.3166 728.209L53.9483 733.568L49.3407 741.876L41.8744 739.524L44.0689 753.41L46.0449 755.106L41.2187 762.566L39.4614 767.707L44.0689 776.233L30.2126 789.026L32.1885 795.864H40.7815L49.7779 807.809L49.3407 815.932L63.8276 827.877L73.0428 819.754L79.8448 819.343L87.7483 815.075L118.942 820.183L125.307 817.612L129.477 820.813L144.838 804.827L160.889 804.172L163.739 789.026L181.077 780.063L171.643 761.726L194.252 731.225L221.275 721.598L239.05 712.005L243.438 700.278L239.487 696.238L239.495 696.221Z" fill="#00AAD2"/>
</g>
<g opacity="0.6" clip-path="url(#clip1_2745_27252)">
<path d="M437.084 642.392L435.613 643.241L433.451 639.225L433.199 635.529L431.753 633.429L431.811 631.833L432.787 631.867L434.696 635.093L435.074 638.73L437.084 642.401V642.392ZM447.058 647.911L443.795 645.811L443.61 646.811L444.426 647.659L446.873 649.415L447.058 650.448L448.504 651.263L449.009 649.448L447.066 647.911H447.058ZM449.631 657.723L444.897 653.43H443.862L443.576 654.085L447.462 658.033L447.933 659.411H449.69L449.631 657.714V657.723ZM479.107 673.238L477.786 672.734L473.111 672.641L472.892 673.708L475.398 674.12L478.661 675.153L482.302 674.498L483.37 673.843L479.107 673.246V673.238ZM505.387 680.638L497.456 676.657L494.008 677.631L492.688 678.261L488.458 676.287L484.354 675.531L484.068 676.598L486.423 677.287L490.249 678.412L496.178 680.89L496.363 679.135L497.961 679.101L502.098 681.453L502.973 682.864L505.075 683.335L508.649 686.56L508.994 683.679L505.387 680.638ZM514.233 623.139L515.335 619.569L510.096 616.495L506.396 606.146L501.72 606.557L498.583 609.942L487.264 609.002L485.414 607.532L479.771 607.624L466.005 596.401L460.858 600.198L455.089 602.735L454.559 611.102L450.422 614.672L449.951 620.35L447.504 621.795L443.745 621.417L439.414 621.921L437.437 618.124L432.266 622.61L427.75 624.618L419.349 624.559L418.566 628.104L422.267 634.563L424.024 638.36L426.505 639.519L429.768 633.497L431.618 626.852L434.444 627.608L437.614 630.338L442.819 633.942L442.601 640.276L447.84 647.012L453.046 649.549L450.666 651.868L451.103 655.883L461.11 662.654L463.936 667.106L471.496 665.19L479.653 667.668L482.79 670.617L488.685 673.003L492.419 676.455L494.05 673.129L488.938 665.728L482.319 663.594L469.057 651.364L458.394 634.967L460.025 627.07L462.405 627.482L463.818 629.708L465.668 630.237L468.082 627.482L475.23 625.382L490.56 627.079L494.042 625.264L505.454 625.172L508.498 629.624L516.21 626.961L514.267 623.164L514.233 623.139Z" stroke="#005394" stroke-miterlimit="10"/>
<path d="M565.222 673.65L563.052 685.217L558.789 687.662L555.719 695.121L548.815 696.91L549.883 692.425L545.871 687.065L542.197 684.965L539.438 680.639L537.437 681.294L536.402 676.842L540.128 675.439L542.079 672.491L545.274 667.694L544.585 665.183L547.503 661.453L557.88 669.92L565.222 673.65Z" stroke="#005394" stroke-miterlimit="10"/>
<path d="M698.62 817.108L696.425 819.334L695.676 816.797L694.642 815.008L695.618 809.993L697.375 809.489L696.845 814.344L698.637 817.1L698.62 817.108ZM711.318 790.488C711.318 790.488 705.86 794.873 705.549 795.251L703.64 799.14L704.641 800.803L705.171 803.466L706.928 804.441L711.1 799.3L712.479 792.714L711.318 790.488ZM642.175 708.662L640.829 710.073L642.175 710.485L644.37 709.292L642.175 708.662ZM628.282 708.947L625.457 709.981L622.917 708.855L623.514 706.915L625.053 705.881L627.307 706.167L628.282 708.956V708.947ZM642.52 722.74L643.428 725.815L641.83 726.848L639.98 724.681L637.97 725.059L635.59 724.463L636.12 722.144L640.888 721.548L641.67 719.918L643.428 720.044L642.52 722.74ZM666.823 737.852L665.226 737.038L666.672 738.852L664.696 740.482L660.02 739.255L661.652 736.466L659.86 735.685L658.986 738.474L656.16 738.096L655.058 736.777C655.117 736.525 656.059 734.988 656.059 734.988L658.506 734.014L659.852 731.284L663.174 732.065L663.392 733.316L668.657 737.609L666.807 737.827L666.823 737.852ZM683.256 766.228L680.026 769.58L678.176 768.513L676.107 768.606L675.258 767.698L677.739 765.632L681.094 765.85L683.104 764.565L683.264 766.228H683.256ZM659.356 759.962L660.264 755.921L657.194 751.721L658.574 750.251L663.031 751.444L663.19 760.407L659.364 759.97L659.356 759.962ZM660.104 789.808L659.036 791.622L656.875 790.555V785.633H659.507L660.104 789.799V789.808ZM571.795 788.934L570.257 789.908L568.844 791.698L565.177 787.876L565.867 785.649L567.877 787.59L571.795 788.934ZM546.113 750.402L545.734 748.361L544.952 746.79L544.574 744.094L540.562 745.597L541.033 747.765L544.044 749.554L546.113 753.065L548.4 753.594L549.939 753.158L546.113 750.402ZM564.017 777.426L561.696 773.856L560.947 776.737L558.786 776.829L558.567 780.559L560.165 780.03L561.267 781.819H566.254L567.322 779.652L564.025 777.426H564.017ZM635.456 766.48L631.697 767.329L628.871 764.473L628.493 760.457L626.643 757.005L622.724 757.29L614.348 755.694L612.405 751.931L607.923 751.083L602.406 756.442L603.474 757.164L605.232 756.291L608.747 756.324L612.355 758.71L617.182 760.777L617.905 762.717L618.754 763.91L625.406 762.877L627.315 766.673L632.58 770.655L636.877 770.437L635.464 766.489L635.456 766.48ZM681.927 825.668L680.64 827.986L675.872 828.423L673.551 831.498L672.264 831.405L670.322 827.298L667.782 828.709L658.565 829.834L656.118 828.86L644.673 832.9L642.881 831.111L635.733 830.044L632.664 828.104L631.814 831.178L630.275 830.582L629.275 837.983L639.282 837.075L646.212 835.883L653.957 837.453L654.739 840.368L677.941 833.782L679.791 832.212L681.078 832.808L683.399 833.06L683.869 825.441L681.927 825.66V825.668ZM615.222 803.567L606.283 790.866L605.686 786.666L612.582 788.606L612.893 791.462L620.579 787.136L617.51 783.533L615.819 785.633L613.532 784.44L611.842 780.114L609.361 778.61L610.74 776.67L607.822 776.51L605.375 778.45L601.363 776.384L593.526 774.57L587.538 772.033L581.551 777.266L577.85 777.862L576.942 782.348L574.621 784.885L583.09 789.967L586.479 797.427L585.537 801.156L588.017 804.163L588.766 807.146L593.374 808.49L593.248 803.567L595.695 801.753L596.763 804.449L602.003 807.305L601.691 812.068L604.761 814.924L605.392 807.146L608.461 804.919L612.918 810.002L617.375 811.472L615.996 809.086L615.248 803.567H615.222ZM655.016 683.31L654.579 679.144L649.659 677.203L646.901 678.866L647.969 682.436L646.279 687.519L635.363 693.197L628.123 691.408L624.137 692.281L619.436 689.241L615.079 689.837L609.311 694.222L599.774 696.759L594.039 699.707L589.582 701.522L589.674 703.622L583.594 706.696L577.514 707.108L573.376 713.248L570.206 714.718L566.943 714.811L560.325 717.255L561.864 723.807L559.576 730.141L557.945 735.097L553.589 737.634L553.808 741.96L550.452 747.135L550.637 749.831L552.109 750.738L553.522 753.216L557.567 755.913L562.024 759.332L564.816 757.542L570.021 758.013L571.56 761.432L564.942 762.625L563.874 763.969L567.103 765.758L572.653 774.57L576.009 771.588L579.238 773.377L584.477 772.184L587.395 769.958L592.786 770.991L596.326 768.169L598.773 770.235L600.935 768.606L609.84 770.991L610 773.528L606.771 773.965L607.839 776.502L610.757 776.661L617.686 773.368L622.455 777.695L629.073 778.761L625.844 771.579L626.315 767.69L618.754 763.893L612.296 762.919L610.227 760.004L607.25 761.129L605.24 758.592L601.7 759.029L596.62 758.122L603.861 752.166L600.472 748.126L602.011 745.303L605.08 745.9V750.066L609.689 747.084L607.242 743.791L598.622 737.962L590.936 730.183L591.407 719.431L595.233 715.264L596.175 717.961L594.636 720.346L602.911 723.043L604.012 726.336L606.619 729.469L613.709 728.713L605.4 724.387L606.149 721.38L610.32 721.69L612.767 724.513L617.535 726.773L617.375 723.917L611.068 719.901L613.549 717.961L622.766 721.69L620.756 718.12L613.07 716.02L612.002 713.761L609.369 711.535L610 708.679L615.239 709.149L621.227 702.412L625.524 704.201L631.36 698.842L642.15 699.279L650.273 699.119L652.435 692.13L651.215 685.99L655.042 683.293L655.016 683.31Z" stroke="#005394" stroke-miterlimit="10"/>
<path d="M765.132 521.253L769.74 514.23L774.668 512.441L781.438 506.334L786.483 500.496L789.124 498.867L789.276 494.666L798.501 489.744L794.481 483.755L796.651 474.825L811.418 457.487L808.937 451.498L805.237 449.272L805.868 442.686L802.79 441.653L805.111 432.841L800.502 426.86L787.114 426.264L783.103 429.111L774.037 428.364L768.05 430.59L766.511 431.934L761.272 433.001L756.066 428.204L750.676 432.253L741.921 434.194L734.681 434.034L731.611 435.067L728.062 433.286L722.546 424.164L716.398 421.778L705.012 424.038L701.783 418.956L701.312 409.556L697.645 407.296L696.552 402.651L689.648 400.425L687.175 402.651L683.189 402.97L679.489 407.296L672.871 408.489L671.021 415.512L662.897 416.108L654.117 421.341L653.495 431.657L656.724 442.09L647.188 439.99L636.903 444.786L632.765 439.116L629.974 441.812L630.133 444.349L619.218 443.879L615.518 446.298L613.381 448.835L610.749 446.575L606.141 448.239L603.223 442.686L597.858 445.072L576.943 444.635L566.624 450.901L563.118 455.824L555.869 459.277L558.947 466.45L563.395 472.129L566.347 480.621L567.095 483.637L562.487 487.207L550.638 509.031L553.867 518.557L556.188 520.657L551.571 522.16L547.375 537.583L561.705 545.454L568.634 542.917L588.018 541.287L593.375 546.21L600.624 538.154L612.162 533.954L613.07 528.435L618.747 525.142L629.343 517.96L646.532 521.539L653.049 519.842L659.575 525.361L665.033 536.331L669.801 537.398L678.076 548.369L683.5 550.914L682.626 554.484L677.857 556.399L673.064 556.181L671.744 558.088L666.32 555.333L666.757 560.818L663.931 576.056L664.377 579.004L660.677 584.17L663.275 586.59L666.849 586.27L679.144 577.618L683.82 581.23L684.636 577.937L679.649 572.797L680.12 568.689L682.718 571.881L684.568 567.555L690.085 558.155L683.971 554.862L684.854 551.662L687.831 552.384L691.346 555.803L693.129 545.773L708.09 537.558L707.93 530.661L711.159 537.239L717.618 537.558L718.534 539.187L705.609 540.977L705.331 543.077L709.469 542.01L712.538 542.321L710.537 545.773L721.167 547.999L732.831 541.565L735.749 542.321L738.978 540.221L741.921 543.824L735.152 551.443L726.683 562.481L729.601 564.858L733.773 561.725L739.449 563.674L744.688 562.632L747.758 566.085L749.137 573.67L746.975 576.677L755.915 578.626L761.272 572.477L763.593 565.614L771.59 561.129L772.498 556.962L775.131 554.862L775.887 551.88L778.486 550.847L781.438 552.476L790.184 547.554L788.805 542.631L790.47 537.961L790.655 537.398L782.506 539.624L780.496 542.161L778.209 542.321L775.728 546.361L770.96 549.629L766.04 547.554L763.122 542.757L757.883 541.565L755.124 537.835L744.839 539.187L744.31 540.313L740.45 538.28L740.391 537.054L748.01 536.239L749.608 535.517L753.056 534.861L756.756 535.357L758.042 530.065L760.834 524.546L763.122 523.513L759.741 520.22L760.523 518.12L765.132 521.253Z" stroke="#005394" stroke-miterlimit="10"/>
<path d="M566.788 388.64L570.328 392.966L566.947 397.14L563.399 394.158L554.342 405.07L546.874 404.314L544.275 406.7L540.508 407.137L539.288 401.777L530.189 398.325L526.615 393.436L527.809 388.362L523.571 384.658L516.389 385.095L511.184 384.473L503.943 382.029L497.922 366.665L506.079 355.753L526.834 350.393L539.288 351.149L546.966 345.16L550.641 348.89L554.804 349.637L558.042 348.134L560.48 351.586L572.178 358.449L573.406 365.195L576.635 366.068L567.57 377.887L566.788 388.64Z" stroke="#005394" stroke-miterlimit="10"/>
<path d="M441.061 344.438L440.531 353.308L438.025 363.43L435.956 370.613L434.106 368.386L436.175 358.037L438.462 351.393L439.657 345.152L441.069 344.429L441.061 344.438ZM461.824 332.274L464.65 328.385L459.1 328.166L453.675 337.037L454.205 345.286L455.963 347.697L456.274 350.553L458.561 349.704L460.193 344.622L462.917 340.111L462.135 336.508L461.824 332.274ZM471.605 125.613L470.385 113.357L465.18 107.368L466.399 102.319L463.01 96.019L460.504 88.526L454.642 83.1331L442.255 79.1178L436.831 76.4885L433.879 70.5664L427.042 72.7337L427.951 78.1266V87.9716L415.656 85.8715L411.956 89.1644L412.267 99.6394L403.361 100.832L397.281 114.936L397.188 115.155L400.292 123.521L392.294 138.44L394.741 142.64L384.894 147.403L387.686 164.144L381.505 181.172L384.894 184.464L387.055 194.024L377.519 194.62L368.899 198.787L365.543 212.235L367.36 226.877L369.521 238.226V248.667L377.207 257.034L375.988 264.216L371.977 265.409L377.216 278.857L373.827 290.492L369.529 294.095L367.99 299.455L369.841 306.318L367.461 315.154L365.081 314.777L364.77 311.173L362.701 310.358L361.852 312.802L364.921 326.192L367.99 328.133L371.977 327.847L370.909 340.825L373.516 344.396L374.298 349.629L377.056 349.94L383.203 361.129L385.365 364.699L389.351 366.799L387.215 371.721V375.014H384.734L381.976 376.207L387.812 382.037L391.512 388.749L391.672 393.982L396.751 395.485L401.208 393.545L406.885 392.478L409.836 391.285L408.146 384.263L409.365 380.096L411.972 378.903L414.293 374.737L426.588 372.797L428.876 375.333L433.644 358.903L434.426 350.217L435.645 340.809L433.955 333.5V327.948L433.358 320.925L433.795 317.666L432.416 314.373L434.737 313.903L436.427 311.366L442.415 307.04L443.323 304.503L445.333 306.603L448.091 301.681L451.321 298.825L450.101 296.758L452.86 296.288L451.792 293.751L444.425 298.237L437.807 299.303L435.645 297.363L429.338 296.17L421.03 295.859L425.949 293.633L433.787 293.322L439.808 292.726L440.716 289.433L443.634 295.7L456.871 284.947L453.801 284.191L455.492 280.932L453.801 277.925L447.183 277.051L446.115 273.448L439.345 268.836L431.348 266.895L430.566 261.813L427.337 244.635L430.877 243.442L427.808 237.453L429.498 231.337L424.889 227.011L425.638 224.601L432.256 224.164V216.704L436.865 214.008L438.715 205.952L442.104 205.356L446.401 198.174L455.938 188.329L462.085 173.687L456.249 167.698L458.41 156.66L457.468 151.863L463.615 146.504L462.076 141.111L466.407 138.725L471.016 139.036L479.61 137.222L471.613 125.588L471.605 125.613Z" stroke="#005394" stroke-miterlimit="10"/>
<path d="M108.406 135.207L108.6 140.692L104.488 144.296L96.65 148.529L94.926 150.848L88.8122 154.015L84.6999 151.881L74.701 154.645L67.5193 158.878L55.3506 157.182L50.9861 161.818L40.7685 160.567L34.2427 153.796L28.3812 150.193L26.6237 142.826L22.9571 141.129L9.24953 135.425L11.6378 131.191L19.9129 132.258L22.9571 128.436L22.0741 118.087L14.0178 111.972L8.15625 112.82L9.24953 107.335L18.3739 109.872L29.0372 114.072L30.7611 110.502L27.061 107.746L32.3001 104.353L24.681 97.6158L15.994 96.7674L11.8565 92.7605L17.4993 91.6937L19.2569 88.7452L23.1758 93.3821L22.5114 87.2668L27.2795 83.4447L34.2427 89.7785L34.024 79.6562L38.3802 81.5631L43.8043 92.5337L41.4244 99.7159L38.3802 101.186L37.9429 111.535L45.7805 105.42L45.9992 107.335L49.4808 106.05L53.1557 96.7674L56.0066 97.8006L58.1679 107.116L62.0866 102.034L67.7379 101.186L70.3365 114.072L72.3127 107.965L72.7247 102.253L76.8623 105.638L77.5182 109.653L83.161 106.486L86.6426 109.032L89.4682 108.183L92.9497 102.253L96.8685 104.798L98.4075 110.502L107.532 109.435L101.662 114.92L104.706 116.205L102.074 122.951L104.925 125.076L110.349 131.821L108.406 135.207Z" stroke="#005394" stroke-miterlimit="10"/>
<path d="M465.464 571.444L462.227 575.619L464.085 584.456L460.536 585.926L458.72 589.438L456.559 590.126L457.307 593.638L452.102 593.545L448.78 596.46L440.782 595.931L433.416 602.298L419.96 601.383L398.012 597.997L393.336 592.605L393.554 589.034L386.591 592.512L377.997 593.361L374.768 597.183L369.654 598.216L369.377 596.334L365.265 596.116L365.391 593.705L360.311 596.527L355.543 595.645L355.863 593.865L351.692 592.672L351.599 592.638V592.605L352.036 589.438L350.312 588.026L351.095 585.49V580.853L354.324 578.904L362.321 584.893L366.299 579.819L371.698 580.097L375.676 583.104L380.915 581.163L392.301 577.123L393.681 575.174L402.897 575.619L405.504 578.627L407.977 574.897L401.829 565.926L402.746 562.196L409.676 558.155L410.584 552.914L415.503 554.266L417.202 547.554L421.028 551.284L425.04 552.477L430.716 550.688L436.267 541.725L450.563 543.665L455.331 545.774L459.468 543.514L466.717 544.421L466.558 552.04L470.224 560.255L471.486 567.555L464.085 568.152L462.698 570.1L465.464 571.444Z" stroke="#005394" stroke-miterlimit="10"/>
<path d="M305.811 465.578L310.831 467.275L309.293 472.13L305.811 476.33V479.085L294.744 480.555L298.629 491.744L294.366 500.808L296.502 502.278L294.963 506.1L290.161 505.067L291.262 496.197L288.437 492.904L282.76 493.433L280.28 491.022L272.223 489.737L271.912 493.66L269.969 493.945L270.028 492.282L268.834 489.619L266.109 488.838L261.535 489.275L257.616 487.234L258.617 485.007L261.594 485.226L263.385 486.73L265.924 487.36L269.751 484.537L272.82 483.252L266.513 479.144L266.984 476.011L271.122 473.004L274.511 466.233L277.74 454.792L281.44 455.388L282.567 458.303L284.821 460.563L280.591 463.545L280.65 469.593L284.19 467.653L288.487 463.923L290.649 462.134L290.018 459.967L290.178 456.892L286.637 456.136L285.729 451.65L294.475 444.628L298.957 444.939L305.542 443.275L311.656 449.298L312.976 453.532L310.15 462.184H306.013L305.794 465.57L305.811 465.578ZM265.605 490.342L262.216 490.997L259.205 489.678L254.059 490.056L256.001 492.811L263.62 494.911L269.953 493.937L265.596 490.333L265.605 490.342Z" stroke="#005394" stroke-miterlimit="10"/>
<path d="M320.519 659.101L321.427 662.897L318.324 668.761L316.381 669.231L315.002 668.82L313.438 670.575L312.219 670.668L310.747 673.582L308.956 673.675L302.968 679.101L301.429 682.487L287.755 684.461L280.288 680.983L279.506 678.413L275.175 677.379L276.394 674.649L273.913 672.986L269.868 677.967L265.226 674.8L260.55 673.893L256.665 671.482L247.978 678.287L244.715 677.816L239.131 686.284L240.822 689.887L239.442 696.221L232.858 699.606L226.273 696.624L221.446 698.128L216.4 694.709V692.012L213.642 690.29L210.69 690.45L199.901 685.309L197.925 687.25L188.926 687.88L161.486 676.565L162.588 672.079L156.003 669.324L169.391 639.352L173.125 619.729L173.756 602.828L158.829 587.749L160.082 579.316L149.83 568.437L123.424 554.266L130.261 552.133L123.113 547.025L129.95 540.658H140.201L148.889 539.465L155.726 548.529L174.353 547.303L174.041 533.728L171.561 523.16L178.709 524.387L183.384 523.16L182.754 530.401L196.739 534.039L203.542 531.628V528.587L223.422 517.742L228.098 500.245L242.991 495.7L246.094 504.168H250.77L252.334 510.501L256.976 512.601L264.755 515.331L266.605 522.262L270.65 524.395L275.915 519.565L276.857 527.092L286.174 533.736L292.069 535.24H297.679L305.113 543.077L327.507 547.933L320.359 558.181L319.106 579.307L315.372 583.818L309.788 582.155L310.099 585.759L300.319 597.83L295.055 604.037L294.273 609.304L291.641 612.942L296.123 613.101L297.224 607.364L304.97 605.986L306.853 613.227L309.486 619.561V619.594L306.223 623.047L311.05 633.169L306.694 637.092L302.649 637.688L307.635 644.619L308.855 649.163L307.005 654.43L313.06 660.008L320.527 659.101H320.519ZM352.13 686.72L349.305 687.35L348.867 693.054L345.386 692.424L337.136 699.388L337.573 710.577L339.735 711.425L338.86 715.441L340.618 716.726L339.962 719.674L346.042 723.471L350.179 721.589L352.122 710.4L353.661 700.9L352.122 686.729L352.13 686.72Z" stroke="#005394" stroke-miterlimit="10"/>
<path d="M683.503 550.914L682.629 554.484L677.861 556.399L673.067 556.181L671.747 558.088L666.323 555.332L666.76 560.818L663.934 576.056L664.38 579.004L660.68 584.17L656.442 581.759L649.983 549.032L642.145 546.806L625.208 525.453L618.75 525.142L629.346 517.96L646.535 521.538L653.053 519.842L659.578 525.361L665.036 536.331L669.804 537.398L678.079 548.369L683.503 550.914Z" stroke="#005394" stroke-miterlimit="10"/>
<path d="M540.13 675.44L536.404 676.842L537.439 681.295L533.142 682.706L531.603 680.043L526.834 690.048L528.499 692.87L528.214 697.666L522.066 693.466L518.055 689.291L512.975 686.914L508.645 686.561L508.989 683.68L512.227 679.295L511.529 672.491L513.606 670.013L510.15 666.216L508.678 659.135L512.757 657.85L519.283 659.857L530.038 668.728L542.081 672.491L540.13 675.44Z" stroke="#005394" stroke-miterlimit="10"/>
<path d="M672.871 629.255L669.044 634.489L669.204 646.719L665.504 655.405L669.33 656.128L676.226 663.713L670.239 667.409L663.587 665.401L654.151 671.114L649.669 677.195L646.91 678.85L647.97 682.429L646.28 687.502L635.364 693.181L628.124 691.392L624.137 692.274L619.436 689.233L615.08 689.829L609.303 694.214L599.775 696.751L594.031 699.699L592.408 691.585L588.262 683.991L581.308 681.454L579.079 678.699L581.24 674.65L579.079 672.71L578.642 666.754L580.929 664.654L586.32 656.128L577.414 651.642L575.404 647.03L572.646 644.93L572.023 641.637L574.942 636.715L574.185 631.792L581.081 634.178L580.172 639.1L590.457 638.504L604.602 639.1L612.288 636.715L623.826 636.404L628.746 634.178L632.135 625.963L649.98 617.159L658.574 618.94L662.746 619.1L665.975 621.04L669.482 621.796L675.629 621.04L677.799 624.459L676.42 629.541L672.871 629.255Z" stroke="#005394" stroke-miterlimit="10"/>
<path d="M561.706 545.454L559.73 550.847L553.423 554.266L549.882 559.188L550.79 562.195L548.032 566.37L540.346 591.604L534.795 592.201L534.047 594.897L529.346 596.527L521.971 597.216L517.581 596.905L511.972 601.979L508.675 603.113L506.388 606.154L501.712 606.557L498.575 609.942L487.256 609.001L485.406 607.531L479.763 607.624L465.997 596.401L461.54 589.378L458.723 589.437L460.539 585.926L464.088 584.456L462.229 575.619L465.467 571.444L462.7 570.1L464.088 568.151L471.488 567.555L470.227 560.255L476.282 560.633L481.925 565.051L496.944 561.036L499.332 555.988L506.951 553.451L509.331 548.369L515.638 550.284L522.602 539.717L531.507 539.498L538.025 537.18L542.389 540.977L547.376 537.583L561.706 545.454Z" stroke="#005394" stroke-miterlimit="10"/>
<path d="M530.188 398.325L521.442 403.248L507.079 406.163L487.922 407.07L493.413 399.073L488.805 399.854L488.645 396.343L488.082 393.268L491.782 392.983L495.642 390.194L498.526 390.631L503.261 390.79L504.581 388.942L503.421 386.246L503.951 382.012L511.191 384.456L516.397 385.087L523.578 384.65L527.808 388.346L526.614 393.428L530.188 398.317V398.325ZM666.885 -0.448242L671.343 3.87785L666.734 9.83358L674.261 24.1895L661.058 32.4049L645.66 29.4228L646.913 19.5442L654.28 9.69918L639.697 3.49144L628.286 9.41357L617.53 10.3544L619.161 12.8912L628.504 14.3613L632.961 19.8466L640.547 37.907L646.66 37.0586L653.968 46.7104L656.449 56.4294L660.746 60.4699L654.759 58.2102L650.899 60.9067V56.421H643.843L641.362 58.521L637.822 56.5806L635.215 57.4542L635.686 64.3172L631.826 74.6326L626.309 92.4074L640.765 99.5895L645.971 106.142L635.526 109.149L605.075 108.553L605.386 115.701L603.225 117.49L617.681 125.269L622.92 121.38L629.379 127.965L625.048 135.147L611.845 136.021L608.145 131.258L600.778 130.947L597.709 132.14L580.494 114.239L581.714 103.176L575.566 97.8171L562.018 96.5907L554.652 92.4242L544.804 83.772L552.802 84.0576L558.949 88.8541H570.335L573.405 87.6613L578.955 89.1313L596.17 86.4348L607.834 85.5612L618.303 79.2947L624.14 61.9567L622.601 49.1044L614.292 44.3415L610.903 39.5786L594.631 36.8822L584.783 37.4786L572.488 31.8001L549.404 28.1964L539.556 32.3965L534.662 35.6893L519.895 32.9929L527.892 27.6L517.734 25.2143L515.598 31.8001L510.678 32.0857L509.459 38.3522L505.759 39.2594L500.839 45.2487L503 49.1044L499.611 55.6902V62.2759L502.681 70.9281L519.584 80.1767L518.953 99.3039L537.109 122.598L535.57 135.45L544.19 144.413L552.785 153.972V163.532L562.632 173.377L573.699 177.266L575.549 188.018L553.407 244.484L562.002 237.899L564.794 243.291L571.218 247.458L578.93 245.391L585.674 249.558L573.38 251.944L561.682 261.822V267.501L567.232 268.097L561.993 274.364L561.396 287.216L566.602 300.354L571.521 303.924L568.452 312.291L577.071 318.28L575.221 325.143L580.461 326.613L583.379 333.635L588.584 337.995L588.895 341.851L591.965 343.195L595.976 340.213L599.205 342.75L601.812 339.616L607.203 340.65L607.043 346.328L609.961 345.135L615.041 340.65L627.335 341.716L627.588 349.806L630.851 352.973L631.506 358.87L638.251 363.103L642.355 369.874L650.857 373.444L651.075 378.929L654.338 382.314L660.418 376.199L664.556 378.929L666.499 383.6L665.178 388.648L655.835 391.63L656.491 398.812L659.535 408.716L662.857 416.083L670.981 415.487L672.831 408.464L679.449 407.271L683.149 402.945L687.136 402.635L689.616 400.408L696.512 402.635L697.614 407.271L701.28 409.531L701.751 418.939L704.981 424.021L716.367 421.762L722.515 424.147L728.031 433.27L731.572 435.059L734.641 434.026L741.882 434.186L750.628 432.245L756.018 428.205L761.224 433.001L766.463 431.934L768.002 430.59L773.989 428.364L783.055 429.12L787.066 426.264L800.454 426.861L805.063 432.85L802.742 441.662L805.811 442.695L805.18 449.281L808.881 451.507L811.361 457.496L796.594 474.834L794.433 483.772L798.444 489.761L807.821 485.023L809.452 481.327L813.245 479.412L815.44 483.864L813.245 485.116L805.811 494.994L807.501 497.977L804.272 497.54L797.216 502.303L801.825 507.981L804.272 506.352L814.431 510.678L808.721 511.585L805.962 515.155L803.953 525.748L804.045 533.022L798.898 536.122L794.542 535.744L792.314 538.659L795.955 538.348L792.692 542.985L803.011 543.926L811.067 548.781L815.642 546.462L822.353 550.478L831.292 548.378L845.841 554.493V-0.448242H666.81H666.885Z" stroke="#005394" stroke-miterlimit="10"/>
<path d="M422.653 399.518L420.744 401.996L416.665 401.341L414.874 398.863L416.127 394.822L419.953 397.452L422.653 399.518ZM380.698 408.456L379.571 407.389L375.307 407.263L375.181 408.515L378.881 414.286L378.822 411.749L380.706 408.456H380.698ZM376.812 412.564L373.836 412.874L371.927 413.815L367.755 412.748L365.846 410.741L366.755 410.111L366.124 407.885L368.504 406.095L371.388 409.103L372.675 410.102L374.306 409.103L376.812 412.555V412.564ZM362.172 400.022L360.162 404.533L356.495 405.062L350.188 401.643L348.994 397.754L349.053 394.806L354.695 392.076L359.371 392.764L361.347 396.528L362.163 400.005L362.172 400.022ZM382.59 394.848L384.911 396.444L384.221 398.384L379.646 400.299L380.748 405.003L377.553 406.255L374.449 401.677L367.486 399.165L366.671 395.125L363.786 390.202L363.408 389.572L367.141 388.724L369.807 386.246L369.992 383.491L373.348 383.617L373.634 386.716L375.484 389.413L376.955 383.239L376.552 381.449L381.724 379.442L384.171 380.912L384.768 385.397L385.642 388.253L381.505 391.95L382.607 394.831L382.59 394.848ZM157.34 230.481L154.708 230.666L153.859 226.651L151.008 223.702L152.11 222.451L156.466 221.384L155.591 224.987L157.349 230.473L157.34 230.481ZM362.146 371.587L359.766 379.173L354.964 377.476L353.678 386.347L348.439 393.117L347.842 394.024L346.277 396.502L346.933 401.551L344.957 404.533L347.245 407.885L345.613 410.547L342.661 411.396L333.444 408.733L332.124 397.544L323.874 394.596L325.161 386.347L325.38 368.605L329.955 358.483L338.86 356.568L343.881 354.031L347.766 347.697L352.341 346.227L357.143 342.624L355.166 346.639L356.487 350.243L354.948 358.895L352.568 360.365L353.224 361.65L354.729 369.672L362.129 371.587H362.146Z" stroke="#005394" stroke-miterlimit="10"/>
<path d="M492.149 518.994L484.311 527.243L480.392 536.206L471.041 540.129L466.718 544.421L459.469 543.514L455.332 545.773L450.564 543.665L436.267 541.725L430.717 550.688L425.041 552.477L421.029 551.284L417.203 547.554L406.127 541.288L401.368 536.332L396.911 535.458L393.051 528.587L393.522 524.857L387.82 517.087L387.66 514.105L391.52 516.49L395.372 512.005L400.3 511.249L402.427 509.031L405.816 507.964L407.196 506.015L412.906 504.075L414.285 502.126L420.272 498.27L418.733 496.17L421.029 495.104L424.57 495.86L425.041 498.556L427.362 498.934L428.236 497.456L430.179 497.145L430.843 494.919L433.568 494.07L435.956 498.842L444.105 500.312L448.999 500.622L451.287 499.463L452.792 501.471L449.966 505.923L452.918 506.864L459.444 512.131L460.411 509.72L462.354 508.115L459.663 506.234L460.411 504.235L464.33 505.075L470.099 507.712L473.681 506.015L474.119 508.023L472.706 510.123L476.936 512.887L480.073 510.971L482.932 512.887L487.692 513.105L488.575 516.146L492.149 518.994Z" stroke="#005394" stroke-miterlimit="10"/>
<path d="M71.001 704.966L57.6045 711.988L58.2689 714.97L56.2926 726.285L51.2386 728.2L53.8707 733.56L49.2622 741.868L41.803 739.515L43.9978 753.401L45.9742 755.098L41.1387 762.557L39.3894 767.698L43.9978 776.224L30.1389 789.018L32.1152 795.856L21.7967 799.678L16.5239 795.629L7.96298 793.058L2.47994 795.41L1.15969 792.655L7.52567 782.844L11.2596 763.842L12.79 760.02L4.89348 760.869L4.22919 757.231L13.4544 749.764L0.0664062 754.249L4.22919 739.515L7.96298 738.23L17.1882 725.218L25.5221 708.351L27.2797 685.309L29.6933 682.335L39.6081 679.983L40.2641 682.991L38.0692 686.191L42.6776 688.316L51.2386 689.795L58.7062 688.316L67.2671 691.517L68.1417 695.784L71.8755 699.195L71.001 704.966Z" stroke="#005394" stroke-miterlimit="10"/>
<path d="M300.824 516.894L297.443 517.65L296.308 520.909L293.743 519.75L289.505 527.931L292.827 531.787L292.078 535.24L286.183 533.727L276.865 527.083L275.932 519.565L270.659 524.386L266.614 522.253L264.764 515.331L256.985 512.601L252.343 510.501L250.779 504.167H246.103L243 495.7L254.067 490.063L256.018 492.819L263.637 494.919L269.969 493.944L271.912 493.667L272.223 489.744L280.288 491.029L282.76 493.449L288.437 492.911L291.262 496.204L290.161 505.074L294.963 506.108L298.226 510.661L296.998 512.567L299.294 513.508L300.824 516.894Z" stroke="#005394" stroke-miterlimit="10"/>
<path d="M466.305 790.773L469.476 789.077L468.374 793.403L462.319 809.892L465.078 813.622L467.399 819.3L463.917 827.667L453.851 827.449L447.392 820.115L439.336 818.922L421.34 810.43L414.814 809.523L411.744 805.507L413.594 797.636L416.571 796.603L418.951 798.485L421.491 798.392L423.501 795.948L426.949 794.226L434.635 798.93L441.346 797.359L449.184 797.199L455.549 792.932L461.697 793.529L463.766 791.143L466.305 790.765V790.773ZM518.016 749.453L509.984 745.883L507.605 738.482L493.678 736.785L495.84 734.685L489.978 733.837L486.059 743.338L485.403 748.604L483.898 753.905L485.403 756.442L496.285 760.642L496.067 767.194L497.824 770.798L490.861 771.831L486.505 776.913L487.38 783.028L479.979 791.084L479.761 796.763L472.797 796.981L470.855 790.647L475.186 786.01L474.782 780.307L479.55 778.207L479.769 772.688L475.413 762.784L471.528 756.643L466.726 747.361L461.739 749.461L453.018 745.664L454.339 742.061L450.201 735.542L441.733 738.491L442.582 732.787L437.376 732.35L429.976 723.479L417.152 723.916L408.246 718.431L400.627 711.66L392.377 705.327L388.677 701.311L381.058 698.145L380.402 695.826L374.54 689.056L370.403 685.67L370.622 681.655L364.979 673.44L363.692 664.754L358.89 660.117L354.753 660.965L346.94 654.228L338.884 652.943L333.46 658.244L329.322 660.125L328.666 665.611L318.348 668.777L321.451 662.914L320.543 659.117L313.075 660.025L307.02 654.447L308.87 649.18L307.651 644.635L302.664 637.705L306.709 637.109L311.065 633.186L306.238 623.064L309.501 619.611V619.578L313.42 620.14L318.339 618.04L323.259 618.796L328.498 614.185L327.556 610.581L330.188 608.195L332.476 607.003L333.889 611.488L338.497 615.655L340.633 620.737L343.391 619.704L342.323 616.722L344.804 611.925L346.78 606.095H349.413L350.481 610.295L357.57 608.506L360.017 610.892L361.707 610.732L359.227 604.743L362.33 601.761L363.398 603.861L366.316 602.357L365.096 599.224L365.281 596.124L369.385 596.343L369.671 598.224L374.784 597.191L378.014 593.369L386.608 592.521L393.571 589.043L393.353 592.613L398.028 598.006L419.977 601.391L414.116 608.473L419.54 610.043L416.84 613.966L422.921 617.889L425.082 621.241L422.702 621.77L421.6 619.67L418.775 618.074L417.051 619.67L411.593 619.359L409.869 622.089L400.4 628.23L401.056 623.904L396.287 628.952L402.468 638.982L400.618 641.964L398.894 641.116L399.962 655.883L423.45 670.273L433.458 693.062L452.808 705.1L470.653 703.403L473.033 706.788L467.39 712.71L477.17 718.633L504.14 727.696L516.964 738.045L518.032 749.453H518.016ZM401.636 659.025L401.131 659.109L400.644 659.663L401.089 660.125L401.636 659.68V659.016V659.025ZM403.301 710.308L402.839 710.291L402.771 710.358L403.267 710.484L403.301 710.316V710.308ZM356.039 735.097L348.639 727.293L334.091 737.415L331.458 734.685L328.633 739.952L336.252 751.36L335.377 755.997L336.033 760.012L334.931 764.246L334.713 778.601L338.85 781.138L345.595 781.987L345.813 774.586L355.156 776.283L358.638 756.627L357.318 750.074L359.513 745.026L356.031 735.089L356.039 735.097Z" stroke="#005394" stroke-miterlimit="10"/>
<path d="M316.381 669.231L314.75 671.012L313.43 670.575L315.002 668.819L316.381 669.231Z" stroke="#005394" stroke-miterlimit="10"/>
<path d="M561.866 723.807L559.57 730.141L557.939 735.097L553.583 737.634L553.801 741.96L550.446 747.134L546.779 745.127L546.367 742.43L544.517 741.019L543.138 738.171L532.702 733.249L532.921 732.333L535.427 731.711L531.853 726.319L533.484 721.362L534.014 719.573L532.382 715.659L532.82 709.955L531.197 708.913L531.634 704.15L532.601 702.773L531.853 698.976L528.211 697.666L528.497 692.869L526.832 690.047L531.6 680.042L533.139 682.705L537.436 681.294L539.438 680.638L542.196 684.964L545.871 687.065L549.883 692.424L548.815 696.91L550.858 704.461L550.446 707.855L554.02 713.433L556.753 714.718L560.327 717.255L561.866 723.807Z" stroke="#005394" stroke-miterlimit="10"/>
<path d="M579.079 672.709L581.24 674.649L579.079 678.698L574.47 680.638L568.163 679.891L565.716 681.075L565.876 683.62L563.05 685.216L565.22 673.649L557.878 669.92L547.501 661.452L544.583 665.182L545.272 667.694L542.077 672.49L530.034 668.727L519.279 659.856L515.763 656.219L519.59 654.178L517.74 652.767L516.293 647.844L518.74 647.474L519.808 648.877L522.508 648.289L522.062 645.148L520.75 642.325L514.351 638.503L517.05 629.54L516.167 626.936L514.224 623.139L515.326 619.569L510.087 616.495L506.387 606.154L508.674 603.113L511.971 601.979L517.58 596.905L521.97 597.216L529.345 596.527L531.287 600.727L539.033 604.617L539.504 609.816L552.042 616.402L553.27 624.458L562.176 626.718L563.866 628.658L567.726 624.021L573.713 623.584L573.554 626.407L571.392 628.507L574.184 631.791L574.941 636.714L572.023 641.636L572.645 644.929L575.404 647.029L577.414 651.641L586.319 656.127L580.929 664.653L578.641 666.753L579.079 672.709Z" stroke="#005394" stroke-miterlimit="10"/>
<path d="M648.223 713.996L645.616 714.81L644.363 714.34L644.801 712.929L647.937 712.4L648.223 713.996ZM697.52 675.212L690.12 675.523L679.894 669.282L676.227 663.704L670.239 667.4L663.587 665.392L654.152 671.096L649.67 677.178L654.589 679.118L655.027 683.285L651.2 685.981L652.42 692.122L650.258 699.111L652.394 702.655H657.852L663.587 699.673L664.025 701.37L660.325 703.815L654.144 710.997L655.994 714.794L657.903 712.005L663.394 703.915L670.105 697.674L673.057 689.148L690.019 682.067L693.938 682.697L697.823 680.471L697.512 675.204L697.52 675.212ZM827.22 628.843L817.213 630.54L809.813 625.458L798.081 628.843L792.439 622.921L786.762 628.003L766.344 634.337L755.024 642.804L736.338 668.139L719.906 669.609L715.231 673.305L699.202 675.094L699.387 680.42L699.421 680.857L706.417 684.805L716.862 682.075L716.114 684.612L707.3 686.804L700.119 690.408L699.37 693.667L704.92 693.037L703.726 695.574L685.351 700.429L685.663 697.263L682.963 697.044L680.894 699.27L682.526 701.37L679.894 703.596L675.344 704.974L671.736 702.118L664.462 706.536L659.416 713.03L658.348 716.23L656.439 718.397L657.886 730.057L669.331 724.009L671.812 723.698L671.593 726.327L667.893 731.25L672.409 735.517L673.04 738.717L676.362 739.314L675.361 742.985L672.729 743.959L676.9 749.26L680.037 750.671L672.291 752.989L671.888 751.36L670.601 748.352L666.96 747.596L666.674 750.226L669.651 752.452L669.121 754.333L667.052 754.77L666.522 756.711L672.729 759.029L675.798 756.862L677.177 758.802L682.887 759.457L686.966 761.499L687.344 765.447L685.873 767.018L687.664 768.866L688.354 774.259L690.961 773.066L695.51 774.788L694.661 778.895L693.029 778.299L691.053 778.643L690.801 781.121L691.961 782.692L693.811 780.844L696.132 781.189L709.268 776.207L708.166 780.475L705.879 780.693L705.627 782.541L698.731 784.582L695.342 787.497L695.813 788.967L700.169 787.842L702.271 785.616L707.258 783.826L706.35 787.774L708.166 788.371L710.647 783.07L710.555 781.567L715.634 779.937L721.344 782.76L722.883 779.777L727.778 780.97L725.801 783.507L729.628 788.74L741.325 788.9L748.692 782.634L753.46 782.76L752.241 768.429L762.997 765.447L779.463 767.513L792.069 774.847L805.272 769.017L811.452 766.631L816.818 760.642L822.965 746.756L826.976 744.094L840.053 746.32L842.501 740.927L845.948 735.693V628.818H827.262L827.22 628.843Z" stroke="#005394" stroke-miterlimit="10"/>
<path d="M665.217 388.674L655.874 391.648L656.53 398.83L659.575 408.734L662.896 416.109L654.117 421.343L653.495 431.658L656.724 442.091L647.187 439.991L636.903 444.788L632.765 439.118L629.973 441.814L630.133 444.351L619.217 443.88L615.517 446.3L613.381 448.837L610.749 446.577L606.14 448.24L603.222 442.688L597.857 445.073L576.943 444.636L566.624 450.903L563.117 455.826L555.868 459.278L552.605 455.859L551.89 447.014L546.021 444.788L546.491 439.991L553.27 433.439L549.41 421.78L543.893 415.227L540.504 407.138L544.271 406.701L546.87 404.316L554.338 405.072L563.395 394.16L566.944 397.142L570.324 392.967L566.784 388.641L567.566 377.889L576.631 366.07L573.402 365.196L572.174 358.451L579.861 350.235L583.847 350.68L584.309 346.354L588.926 341.869L591.996 343.213L596.007 340.239L599.236 342.776L601.843 339.643L607.234 340.676L607.082 346.354L610 345.162L615.08 340.676L627.366 341.743L627.618 349.832L630.881 352.999L631.537 358.887L638.282 363.121L642.394 369.892L650.888 373.47L651.106 378.955L654.369 382.341L660.449 376.225L664.595 378.955L666.538 383.626L665.217 388.674Z" stroke="#005394" stroke-miterlimit="10"/>
<path d="M503.469 32.3465L503.907 34.8834L498.668 37.4202L497.129 32.6825L488.534 28.7933L500.509 27.004L504.209 19.5447L485.145 13.8661L483.673 23.6775L478.653 18.377L479.09 13.2949C479.09 13.2949 472.564 14.3617 471.723 14.3617C470.882 14.3617 474.33 21.1323 474.33 21.1323L470.193 28.7177L465.206 20.6955L461.506 35.8998L458.874 36.7482L459.311 27.6844L459.092 23.0139L456.931 17.117L452.575 21.3171L451.944 29.5661L448.9 34.0182L442.155 28.9361L434.974 34.6398L445.2 38.4367V45.4256L442.155 42.4436L430.399 44.9804L436.26 50.4657L431.492 49.8357L426.472 60.4031L422.99 53.0026L419.946 59.5547L412.798 51.3057L415.178 61.2432L410.603 58.7063L407.121 60.8063L413.428 67.9885L409.097 68.4253L399.754 66.7285L396.904 75.8175L404.085 77.9175L402.361 85.0997L397.341 83.4028L394.734 80.6728L384.289 79.3876L393.01 82.7728L389.31 85.7213L377.991 88.4766L384.516 89.9466L385.391 93.7435L389.747 90.1734L391.908 91.425L395.609 87.8549L398.434 89.325L405.616 88.9134L402.353 93.1134L394.515 95.8687L395.836 102.202L385.391 104.739L384.954 108.973L390.596 107.058L387.99 110.855L391.908 112.551L389.966 114.87L384.289 115.937L382.565 119.104L388.427 121.422L382.12 124.371L376.477 130.511L371.019 140.23L373.433 143.615L367.1 148.252L369.951 149.949L366.688 157.971L367.319 166.22L369.514 169.169L360.171 173.402L356.033 176.569L359.733 178.451L355.159 187.54L353.435 185.221L346.253 190.488L343.873 200.115L338.415 204.223L342.645 204.659L344.277 207.7L353.09 205.911L342.99 210.993L341.14 206.23L337.566 208.045L335.497 213.219L332.453 211.304L328.753 214.563L328.971 217.1L326.558 219.015L326.028 221.552L322.891 219.108L325.717 226.097L320.823 222.401L311.665 222.09L311.135 226.828L316.904 227.357L316.029 231.464L312.11 230.431L303.423 232.657L306.03 235.169L304.399 237.487L300.169 238.991L301.043 241.939L298.537 240.873L289.724 239.495L291.044 244.476L298.319 247.954L292.011 247.013L288.748 251.432L291.473 256.917L288.521 257.673L288.303 262.94L297.427 265.922L288.21 266.233L289.186 271.718L286.898 273.507L289.404 276.985L294.391 274.885L292.541 280.152L289.623 279.74L290.153 286.074L293.946 286.166L296.578 289.459L298.958 285.352L301.026 287.67L295.35 294.004L298.201 296.322L292.524 299.892L290.145 299.044L289.043 310.048L291.456 306.881L295.56 306.033L301.237 307.1L298.386 315.752L292.306 313.433L291.398 320.296L296.006 324.496L304.945 331.956V334.938L308.334 334.341L315.079 337.634L328.938 332.552L339.063 316.567L349.222 312.997L354.049 306.949L351.29 300.144L353.452 299.766L354.99 296.566L358.506 308.511L360.356 308.452L362.677 310.3L364.746 311.115L365.057 314.719L367.437 315.097L369.817 306.26L367.966 299.397L369.505 294.037L373.803 290.434L377.192 278.799L371.953 265.351L375.964 264.158L377.183 256.976L369.497 248.609V238.168L367.336 226.819L365.519 212.178L368.875 198.729L377.494 194.562L387.031 193.966L384.87 184.407L381.481 181.114L387.662 164.087L384.87 147.345L394.717 142.582L392.27 138.382L400.267 123.463L397.164 115.097L397.257 114.878L403.337 100.774L412.243 99.5816L411.931 89.1066L415.632 85.8137L427.926 87.9137V78.0687L427.018 72.6758L433.855 70.5086L433.418 66.0901L440.162 63.7716L447.125 75.3723L456.25 74.7423L459.294 69.4753L470.613 73.6754L474.532 61.638L471.9 55.0858L475.6 42.8552L480.621 39.6883L484.977 34.1694L489.745 38.6215L497.145 40.5367L498.121 44.7368L496.801 50.3481L499.593 55.6486L502.982 49.0629L500.82 45.2072L505.74 39.2179L509.44 38.3107L510.66 32.0441L503.444 32.2961L503.469 32.3465Z" stroke="#005394" stroke-miterlimit="10"/>
<path d="M122.643 414.881L124.149 418.771L123.619 426.07L122.425 430.497L123.4 435.571L113.174 453.539L98.1883 453.942L88.1809 458.394L84.262 457.546L80.3433 460.713L69.4613 461.343L61.8674 461.124L66.1984 457.546L59.4539 456.706L62.7168 453.942L57.9487 452.254L56.6367 449.087L62.0861 446.357L57.5113 443.82L58.6129 440.435L63.3728 443.375L66.417 440.023L70.7732 436.822L75.575 438.108L82.2858 436.419L80.1246 434.949L74.2548 435.352L67.956 435.571L69.8986 433.034L72.9428 432.816L76.6431 425.852L82.2858 425.003L81.8738 422.685L75.76 421.618L74.9191 418.048L72.4971 418.451L68.6119 413.596L72.9428 409.178L77.0804 408.547L76.2057 406.011L70.7732 403.877L70.3359 400.307L73.8175 400.08L73.3801 396.695L77.7362 396.292L84.0434 399.022L84.918 401.365L87.525 399.862L93.3865 401.147L93.6051 398.828L101.443 394.813L94.3619 393.217L95.144 390.05L98.4994 388.983L103.074 381.936L111.324 381.272L110.668 385.287L114.368 381.18L120.011 382.557L116.622 386.539L112.77 388.765L110.634 392.654L107.842 392.965H105.866L107.405 396.098L101.384 398.173L103.856 404.003L109.852 407.01L112.77 407.447L113.553 403.407L116 401.937L119.851 408.329L120.011 410.74L124.149 411.496L125.78 413.722L122.643 414.881Z" stroke="#005394" stroke-miterlimit="10"/>
<path d="M551.571 522.161L547.374 537.584L542.387 540.978L538.023 537.181L531.505 539.499L522.6 539.717L515.637 550.285L509.33 548.37L506.95 553.452L499.331 555.989L496.942 561.037L481.923 565.052L476.28 560.634L470.225 560.256L466.559 552.041L466.718 544.422L471.041 540.129L480.392 536.206L484.311 527.243L492.149 518.994L495.849 523.665L501.307 518.373L507.168 521.758L509.111 525.362L513.03 525.992L515.418 521.54L523.912 519.439L534.323 516.676L541.067 517.743L544.111 520.061L551.571 522.161Z" stroke="#005394" stroke-miterlimit="10"/>
<path d="M414.597 429.33L412.62 430.557L408.861 430.305L407.701 428.137L409.332 427.381L410.653 427.566L408.769 425.34L405.102 424.055L409.744 424.467L414.605 429.322L414.597 429.33ZM402.083 416.192L402.647 413.53L400.073 412.774L398.82 411.018L395.97 413.059L396.028 416.478L394.212 417.704L398.509 421.056L400.67 418.889L404.9 418.83L402.075 416.201L402.083 416.192ZM428.741 484.822L425.857 481.621L423.006 475.699L423.662 469.584L420.618 464.502L421.055 458.168L413.344 453.934L412.595 451.305L415.295 447.827L415.421 443.905L412.158 432.304L407.928 431.019L404.102 424.156L397.357 422.366L393.438 419.107L389.427 418.67L392.252 416.444L386.921 416.881L382.464 423.845L375.938 425.76L371.834 430.615L368.445 429.549L363.551 429.137L365.931 424.996L366.275 419.603L361.474 421.921L356.268 419.603L353.661 418.754L351.592 419.603L350.718 417.906L352.257 415.898L350.499 415.05L352.349 413.891L350.81 411.698L348.994 412.009L345.605 410.539L342.653 411.387L333.436 408.725L333.747 413.051L338.204 418.351L334.101 421.829L334.319 423.299L336.926 422.669L337.776 423.61L335.396 425.836L338.347 427.533L337.153 430.699L343.116 432.237L348.035 438.192L344.495 438.285L341.863 435.152L333.899 433.866L331.645 440.511L329.265 440.292L328.575 444.089L325.75 443.653L324.968 437.756L313.581 438.352L311.042 444.031L314.145 446.727L311.698 449.298L313.018 453.531L310.192 462.183H306.055L305.836 465.569L310.857 467.265L309.318 472.121L305.836 476.321V479.076L294.769 480.546L298.654 491.735L294.391 500.799L296.527 502.269L294.988 506.091L298.251 510.636L297.031 512.551L299.319 513.492L300.858 516.877L297.469 517.633L296.342 520.892L296.056 524.84L299.445 527.755L302.111 528.982L297.721 535.223L305.155 543.06L327.549 547.916L320.401 558.164L319.148 579.29L323.917 580.668L327.457 578.602L334.672 578.727L332.511 576.661L335.303 575.157L340.98 577.854L351.138 580.836L354.368 578.895L362.365 584.885L366.351 579.803L371.742 580.088L375.728 583.096L380.967 581.155L392.353 577.115L393.733 575.174L402.949 575.611L405.556 578.618L408.037 574.889L401.89 565.926L402.798 562.196L409.728 558.155L410.636 552.922L415.555 554.266L417.246 547.554L406.179 541.288L401.41 536.332L396.953 535.458L393.093 528.595L393.564 524.866L387.854 517.087L387.695 514.105L391.555 516.491L395.414 512.005L400.334 511.249L402.47 509.023L405.859 507.956L407.238 506.015L412.948 504.075L414.328 502.135L420.315 498.279L418.776 496.179L421.064 495.112L424.604 495.868L425.075 498.565L427.396 498.943L428.271 497.473L429.835 491.55L428.767 484.839L428.741 484.822Z" stroke="#005394" stroke-miterlimit="10"/>
<path d="M352.04 589.438L351.602 592.604V592.638L349.719 592.042L350.316 588.026L352.04 589.438Z" stroke="#005394" stroke-miterlimit="10"/>
<path d="M216.409 692.021V694.717H210.918L210.699 690.45L213.651 690.299L216.409 692.021Z" stroke="#005394" stroke-miterlimit="10"/>
<path d="M507.17 296.154L505.412 298.069L504.344 301.454L501.081 298.162L497.037 297.532L496.061 296.683L498.786 295.742L500.947 295.524L503.234 292.45L504.866 294.365L507.153 296.154H507.17ZM566.625 300.354L561.42 287.216L562.017 274.364L567.256 268.097L561.706 267.501L555.87 270.634L546.022 269.567L534.669 270.911L534.198 273.322L526.361 275.389L525.578 276.733L516.984 283.755L512.527 285.545L512.964 291.097L514.184 296.305L516.816 297.061L516.505 299.598L523.871 306.461L526.192 304.395L529.893 303.168L528.673 317.684L536.292 309.468L551.505 310.098L552.161 314.332L559.343 316.214L562.824 313.677L568.467 312.299L571.537 303.933L566.617 300.362L566.625 300.354ZM512.056 301.967L511.047 304.479L509.785 303.429H505.782L502.351 305.151L499.635 306.251L498.903 307.662L495.918 307.78L497.255 311.199L497.02 313.181L500.964 314.458V316.676L499.265 320.338L502.57 320.481L503.251 315.508L504.916 312.971L507.288 311.19L510.795 307.36L512.342 305.663L515.033 305.403L512.073 301.959L512.056 301.967Z" stroke="#005394" stroke-miterlimit="10"/>
<path d="M400.656 659.664L401.102 660.134L401.649 659.689V659.025L401.144 659.109L400.656 659.664Z" stroke="#005394" stroke-miterlimit="10"/>
<path d="M823.77 788.236L828.101 791.529L823.4 792.94L820.482 793.1L818.943 798.115L810.727 804.449L810.256 807.204L807.716 807.078L806.867 805.952L803.856 807.363L798.18 806.767L796.549 804.759L794.413 803.037L793.883 799.585L796.33 799.526L799.719 795.259L804.487 794.503L804.327 788.387C804.706 788.387 809.407 788.446 809.407 788.446L818.094 784.431L830.321 771.041L831.541 772.545L822.543 785.615L823.762 788.219L823.77 788.236Z" stroke="#005394" stroke-miterlimit="10"/>
<path d="M465.994 596.401L460.847 600.19L455.078 602.735L454.548 611.102L450.411 614.68L449.94 620.35L447.493 621.795L443.725 621.417L439.403 621.921L437.426 618.124L432.254 622.61L427.739 624.618L419.329 624.551L422.684 621.762L425.073 621.232L422.903 617.872L416.823 613.958L419.522 610.035L414.09 608.473L419.96 601.383L433.415 602.298L440.782 595.931L448.779 596.46L452.101 593.545L457.306 593.638L456.558 590.127L458.719 589.438L461.536 589.379L465.994 596.401Z" stroke="#005394" stroke-miterlimit="10"/>
<path d="M518.741 647.474L516.294 647.844L517.74 652.766L519.59 654.178L515.764 656.219L519.279 659.856L512.753 657.848L508.675 659.134L510.147 666.215L513.603 670.012L511.526 672.49L512.224 679.294L508.986 683.679L505.387 680.638L497.448 676.656L494 677.631L492.369 676.438L494 673.112L488.887 665.719L482.269 663.586L469.007 651.355L458.344 634.958L459.975 627.062L462.355 627.465L463.768 629.691L465.618 630.229L468.032 627.465L475.188 625.365L490.519 627.062L494 625.239L505.412 625.146L508.456 629.599L516.168 626.936L517.051 629.54L514.351 638.503L520.751 642.325L522.063 645.147L522.508 648.289L519.809 648.877L518.741 647.474Z" stroke="#005394" stroke-miterlimit="10"/>
<path d="M589.586 701.522L589.678 703.622L583.598 706.688L577.51 707.099L573.372 713.24L570.202 714.718L566.947 714.811L560.329 717.255L556.755 714.718L554.022 713.433L550.448 707.855L550.86 704.462L548.816 696.91L555.721 695.121L558.79 687.661L563.054 685.217L565.879 683.621L565.72 681.076L568.167 679.891L574.474 680.639L579.082 678.698L581.311 681.454L588.266 683.99L592.411 691.584L594.035 699.699L589.586 701.522Z" stroke="#005394" stroke-miterlimit="10"/>
<path d="M685.669 589.782L680.463 593.453L676.788 596.242L676.729 590.194L672.962 590.63V598.686L675.35 601.013L673.181 608.036L675.628 621.039L669.48 621.795L665.974 621.039L662.744 619.099L658.573 618.939L649.979 617.158L632.134 625.962L628.745 634.177L623.825 636.403L612.287 636.714L604.601 639.099L590.456 638.503L580.171 639.099L581.079 634.177L574.183 631.791L571.391 628.507L573.553 626.407L573.713 623.584L567.725 624.021L563.865 628.658L562.175 626.718L553.269 624.458L552.041 616.402L539.503 609.816L539.032 604.617L531.286 600.727L529.344 596.527L534.045 594.898L534.793 592.201L540.343 591.605L548.03 566.371L550.788 562.196L549.88 559.188L553.42 554.266L559.727 550.847L561.704 545.454L568.633 542.917L588.017 541.288L593.374 546.21L600.623 538.154L612.161 533.954L613.069 528.435L618.746 525.143L625.204 525.453L642.141 546.807L649.979 549.033L656.437 581.76L660.676 584.171L663.274 586.59L666.848 586.271L679.143 577.618L683.819 581.231L685.669 589.782Z" stroke="#005394" stroke-miterlimit="10"/>
<path d="M469.538 276.312L465.964 275.464L462.92 274.178L463.013 272.297L462.037 272.515L463.98 267.66L469.093 270.171L466.048 271.868V273.683L468.773 273.372L469.522 276.32L469.538 276.312ZM573.716 177.274L562.649 173.385L552.801 163.54V153.98L544.207 144.421L535.587 135.458L537.126 122.605L518.97 99.3118L519.6 80.1845L502.697 70.936L499.628 62.2838V55.698L496.836 50.3975L498.156 44.7862L497.181 40.5861L489.78 38.6708L485.012 34.2188L480.656 39.7377L475.635 42.9045L471.935 55.1352L474.567 61.6873L470.649 73.7248L459.329 69.5247L456.285 74.7916L447.161 75.4216L440.197 63.821L433.453 66.1394L433.89 70.5579L436.842 76.4801L442.266 79.1093L454.654 83.1246L460.515 88.5175L463.021 96.0105L466.41 102.311L465.191 107.359L470.396 113.348L471.616 125.604L479.613 137.239L483.784 136.138L485.853 138.49L488.805 138.053L493.262 141.531L496.525 154.635L491.319 157.172L489.78 166.454L480.437 186.522L476.518 189.278L472.818 192.848L475.644 196.451L473.92 200.87L469.118 202.155L466.511 214.193L470.43 223.475L472.591 230.245L478.049 236.579L477.174 248.398L478.68 254.539L483.254 261.721L492.16 263.636L495.204 265.518L494.136 269.97L497.618 270.6L501.503 268.903L503.135 269.533L503.698 275.144L506.835 271.348L516.304 265.829L518.247 266.677L528.691 257.084L532.702 255.799L534.679 253.917L544.56 247.457L549.017 246.928L553.44 244.484L575.583 188.018L573.733 177.265L573.716 177.274Z" stroke="#005394" stroke-miterlimit="10"/>
<path d="M588.926 341.868L584.309 346.354L583.846 350.68L579.86 350.235L572.174 358.45L560.476 351.587L558.037 348.135L554.8 349.638L550.637 348.891L546.962 345.161L539.284 351.15L526.829 350.394L506.075 355.754L497.917 366.665L494.125 357.198L493.688 347.916L495.849 341.364L497.825 330.175L508.673 323.211L511.087 327.411L518.681 330.175L520.438 335.879L526.3 337.794L532.161 333.963L533.7 325.941L528.68 317.692L536.299 309.485L551.511 310.107L552.167 314.341L559.349 316.222L562.831 313.685L568.474 312.308L577.102 318.289L575.252 325.16L580.491 326.63L583.4 333.653L588.606 338.012L588.926 341.868Z" stroke="#005394" stroke-miterlimit="10"/>
<path d="M562.486 487.207L550.637 509.03L553.866 518.556L556.187 520.656L551.57 522.16L544.111 520.06L541.067 517.741L534.322 516.674L523.911 519.438L515.418 521.538L513.029 525.99L509.111 525.36L507.168 521.756L501.306 518.371L495.849 523.663L492.148 518.993L488.574 516.145L487.691 513.104L482.932 512.886L480.072 510.971L476.936 512.886L472.706 510.122L474.118 508.022L473.681 506.015L470.099 507.711L464.33 505.074L460.411 504.234L459.662 506.233L462.353 508.115L460.411 509.719L459.444 512.13L452.918 506.863L449.966 505.922L452.792 501.47L451.286 499.462L448.999 500.622L444.105 500.311L435.956 498.841L433.568 494.07L430.843 494.918L430.179 497.144L428.236 497.455L429.808 491.533L428.74 484.821L425.856 481.629L423.005 475.698L423.661 469.591L420.617 464.509L421.054 458.175L413.343 453.942L412.586 451.313L415.285 447.827L415.411 443.912L412.148 432.311L416.984 434.319L417.951 431.749L414.596 429.329L419.397 428.111L421.029 424.037L435.325 417.233L445.955 409.085L452.539 404.599L463.489 399.836L470.696 400.584L470.225 402.306L468.694 404.759L471.385 407.296L474.556 409.085L479.854 409.236L482.141 409.018L482.679 410.807H484.622L487.918 407.077L507.075 406.162L521.439 403.247L530.185 398.324L539.284 401.777L540.503 407.136L543.892 415.225L549.409 421.778L553.269 433.437L546.491 439.989L546.02 444.786L551.89 447.012L552.605 455.857L555.868 459.276L558.945 466.45L563.394 472.128L566.346 480.621L567.094 483.636L562.486 487.207Z" stroke="#005394" stroke-miterlimit="10"/>
<path d="M152.218 409.178V411.589L147.736 415.822L145.129 415.293L145.255 413.411L149.174 409.396L152.218 409.178ZM212.868 271.238L210.11 272.582V277.505H207.789L207.949 279.294L210.707 280.957L209.328 287.073L210.867 288.106L214.096 280.798L214.878 277.194L212.868 271.238ZM190.726 306.788L186.428 302.302L183.51 301.991L182.257 305.125L183.039 308.132L185.646 306.469L187.496 307.376L187.337 310.358L190.726 306.788ZM144.381 316.221L145.575 315.062L145.138 309.888L138.612 313.81L136.98 315.91L133.406 314.44L132.658 321.404L131.556 324.159L134.281 325.73L136.223 323.941L137.855 322.059L141.429 322.689L142.842 318.145L145.794 316.675L144.381 316.238V316.221ZM138.612 356.29L137.451 353.375L134.844 355.761L136.98 356.828L136.383 358.172L137.922 358.676L134.315 360.02L134.003 361.431L138.233 361.087L142.152 360.179L143.531 358.609L138.612 356.29ZM135.383 367.857L134.163 369.739L133.852 369.302L130.463 370.117L128.773 373.847L131.472 373.317L130.312 377.047L134.642 374.88L135.391 370.612L139.31 366.286L135.391 367.857H135.383ZM125.695 331.426L123.088 334.088L124.719 337.129L124.812 345.815L128.386 344.437V333.341L125.686 331.426H125.695ZM144.759 342.018L144.288 338.885L140.933 335.752L141.841 332.182L139.36 330.392L138.292 333.374L135.063 332.467L133.524 334.13L136.282 336.197L136.442 337.701L141.681 341.741L140.933 344.723L144.759 342.027V342.018ZM135.854 398.921L132.935 398.325L134.752 395.939L131.396 385.934L126.914 383.994L120.456 385.027L116.629 386.531L112.769 388.757L110.633 392.646L107.841 392.957H105.865L107.404 396.09L101.383 398.157L103.864 403.986L109.851 406.994L112.769 407.43L113.551 403.39L115.998 401.92L119.859 408.312L120.018 410.723L124.156 411.479L128.293 412.353L130.455 409.22L134.466 408.783L137.535 404.742L135.845 398.913L135.854 398.921ZM224.566 476.136L230.402 471.809L232.563 457.168L225.945 451.212L218.107 450.145L212.397 453.749L209.605 450.675L212.776 448.356L214.626 444.66L211.674 437.797L207.663 434.193L203.088 431.337L212.649 433.345L208.731 427.011L208.419 421.333L203.5 412.37L197.664 409.077L192.744 386.69L185.344 377.568L179.978 373.527L172.141 375.468L167.97 372.645L172.3 372.805L175.816 370.99L183.527 368.764L182.745 366.068L178.288 364.598L183.964 363.094L194.123 348.016L197.823 341.59L196.133 337.701L177.506 333.534L169.508 336.197L165.842 336.357L173.68 330.678L170.139 330.392L170.921 327.536L183.216 319.321L185.352 312.735L182.745 311.702L179.356 313.332L168.6 312.735L161.385 309.602L158.753 317.968L154.615 318.279L155.086 321.261L153.984 322.017L155.204 325.587L148.148 325.898L148.619 330.821L145.39 333.517L148.459 336.777L147.358 342.329L144.751 342.018L143.683 350.074L138.132 351.141L142.741 356.819L149.048 355.03L144.44 361.423L141.21 369.789L139.831 374.586L136.165 382.641L141.37 381.449L143.851 373.519L145.23 369.352L149.687 371.578L153.228 369.042L151.537 373.401L149.847 378.483L152.294 382.81L142.169 396.384L145.558 401.466L146.626 397.14L152.774 402.063L153.085 397.451L157.542 400.433L164.908 398.803L165.379 396.703L171.838 398.493L168.138 400.593L162.621 406.422L166.447 419.56L170.93 416.553L173.066 416.427L169.399 422.542L169.685 427.935L167.398 429.405L165.236 438.368L163.227 435.235L152.218 435.647L147.324 430.724L144.717 434.521L147.728 438.318L142.615 441.67L141.076 444.492L146.626 443.618L149.855 447.348L147.534 457.353L129.412 464.09L130.009 467.945L129.883 470.482L133.398 471.389L141.236 469.449L143.397 472.305L142.329 474.094L148.316 474.968L150.764 479.605L157.382 480.512L159.863 478.101L167.7 475.438L159.989 485.283L149.704 483.183L142.177 483.78L141.395 486.191L137.569 486.627L133.869 492.306L122.482 501.118L117.403 502.462L114.956 504.847L118.816 505.284L122.642 508.888L124.021 504.999L130.64 501.865L138.477 502.899L146.315 506.351L151.235 498.421L159.072 497.388L171.367 501.714L175.286 498.236L190.053 499.614L195.603 498.766L208.335 500.773L225.709 494.221L226.113 487.829L217.645 487.232L211.497 484.099L219.335 482.31L217.796 478.42L224.103 477.664L224.574 476.161L224.566 476.136Z" stroke="#005394" stroke-miterlimit="10"/>
<path d="M366.3 602.357L363.391 603.86L362.323 601.76L359.22 604.742L361.692 610.723L360.002 610.883L357.555 608.497L350.465 610.287L349.406 606.086H346.765L344.789 611.916L342.317 616.713L343.384 619.695L340.618 620.728L338.49 615.646L333.882 611.479L332.469 606.994L330.182 608.187L327.541 610.572L328.483 614.176L323.252 618.788L318.324 618.032L313.405 620.132L309.486 619.569L306.845 613.235L304.97 605.994L297.224 607.372L296.123 613.109L291.641 612.949L294.273 609.321L295.055 604.054L300.328 597.846L310.108 585.775L309.797 582.171L315.381 583.826L319.106 579.315L323.874 580.693L327.423 578.626L334.63 578.752L332.469 576.677L335.261 575.174L340.937 577.87L351.096 580.852V585.489L350.314 588.026L349.717 592.041L351.601 592.638L351.693 592.671L355.864 593.864L355.545 595.645L360.313 596.527L365.392 593.705L365.266 596.115L365.081 599.224L366.3 602.357Z" stroke="#005394" stroke-miterlimit="10"/>
<path d="M302.076 528.998L297.686 535.239H292.077L292.826 531.786L289.504 527.931L293.742 519.749L296.307 520.908L296.03 524.856L299.419 527.771L302.076 528.998Z" stroke="#005394" stroke-miterlimit="10"/>
<path d="M259.03 758.609L255.927 759.676L253.295 757.45L249.561 755.636L250.663 753.065L255.709 752.973L259.03 758.618V758.609ZM204.78 771.84L199.482 776.451L202.022 778.459L208.169 773.662L204.78 771.848V771.84ZM237.393 758.828L236.173 754.56L221.902 762.557L225.291 765.758L228.142 764.817L235.416 770.899L242.001 760.021L237.393 758.828ZM239.461 696.221L232.877 699.606L226.292 696.624L221.465 698.128L216.419 694.709H210.928L210.709 690.442L199.92 685.301L197.943 687.241L188.945 687.871L161.505 676.556L162.607 672.071L156.022 669.315L147.68 668.249L138.866 665.048L135.133 665.678L124.158 661.008L104.841 659.941L89.8808 653.515L61.7845 649.474L51.6846 644.148L43.5611 651.389L24.875 655.027L30.8038 671.894L26.6327 678.505L27.2885 685.309L29.7021 682.327L39.6085 679.975L40.2645 682.983L38.0696 686.183L42.678 688.317L51.239 689.787L58.7067 688.317L67.2675 691.517L68.1422 695.784L71.8759 699.203L71.0014 704.974L57.6134 711.997L58.2694 714.979L56.293 726.294L51.2473 728.209L53.8795 733.568L49.2711 741.876L41.8034 739.524L43.9983 753.41L45.9746 755.106L41.1475 762.566L39.3899 767.707L43.9983 776.233L30.1394 789.026L32.1156 795.864H40.7102L49.7084 807.809L49.2711 815.932L63.7607 827.877L72.9776 819.754L79.7809 819.343L87.6859 815.075L118.885 820.183L125.251 817.612L129.422 820.813L144.787 804.827L160.841 804.172L163.691 789.026L181.032 780.063L171.596 761.726L194.21 731.225L221.238 721.598L239.016 712.005L243.405 700.278L239.453 696.238L239.461 696.221Z" stroke="#005394" stroke-miterlimit="10"/>
<path d="M402.841 710.282L402.773 710.349L403.27 710.476L403.312 710.307L402.841 710.282Z" stroke="#005394" stroke-miterlimit="10"/>
<path d="M458.286 842.66L456.999 845.138L454.619 843.198L453.147 842.442L452.365 841.031L453.904 839.619L457.26 840.401L458.294 842.66H458.286ZM450.255 838.116L450.91 840.09L452.475 839.334L450.246 838.107L450.255 838.116Z" stroke="#005394" stroke-miterlimit="10"/>
</g>
</g>
<defs>
<clipPath id="clip0_2745_27252">
<rect width="846" height="845" fill="white"/>
</clipPath>
<clipPath id="clip1_2745_27252">
<rect width="846" height="845" fill="white"/>
</clipPath>
</defs>
</svg>
